<svg width="100" height="100" viewBox="0 0 100 100" fill="none" xmlns="http://www.w3.org/2000/svg">
<circle cx="50" cy="50" r="50" fill="#1573FB"/>
<path fill-rule="evenodd" clip-rule="evenodd" d="M29.7713 47.0111C30.2775 46.3355 28.8646 43.7804 28.1662 42.8001C27.8486 42.3533 27.0584 41.9514 27.1788 41.2864C27.7507 38.1204 30.4796 40.5312 31.9335 39.6284C33.7383 38.5068 33.8884 36.1998 34.9417 34.6526C35.4005 33.9781 36.8421 33.0291 37.0578 32.2572C37.3072 31.3647 35.6859 30.553 35.4118 29.7763C34.8523 28.1842 35.3857 26.1756 35.1649 25.4821C34.8833 24.5927 33.8301 24.2954 33.9207 23.2295C34.0695 21.4859 37.337 21.9077 38.3368 22.6026C39.241 23.2309 40.8375 24.5278 41.784 24.9085C42.9921 25.3953 44.3108 23.3878 45.395 24.168C47.3884 25.6029 44.4422 27.0788 44.5502 28.4681C44.5899 28.9831 45.3515 30.1462 45.1568 30.5782C44.8144 31.3415 43.7203 31.5036 43.435 32.3411C43.012 33.5899 46.3576 34.6697 46.9343 35.326C47.6576 36.1511 46.1765 37.2379 46.0214 38.0552C46.0028 38.1575 47.3822 38.8185 47.5024 38.9123C48.2022 39.4581 48.8595 40.4353 49.6931 40.7734C50.8616 41.2471 52.0922 40.7439 53.2855 40.9048C55.0048 41.136 57.0515 43.4197 58.8377 42.2413C59.8748 41.5573 58.3825 39.4087 59.3725 39.0673C61.7219 38.2565 61.2529 40.7803 62.0841 41.2315C62.1758 41.2815 65.6541 40.8579 66.0064 40.7387C66.3649 40.6171 66.0907 39.7461 66.324 39.3967C66.938 38.4723 68.104 36.988 69.1088 36.4389C70.5613 35.6459 74.7478 36.8959 74.996 38.7978C75.0716 39.3708 74.057 39.4651 73.6786 39.6842C72.6837 40.2603 71.2064 41.6388 70.7834 42.7C70.5861 43.1966 71.1729 43.8887 71.2598 44.3968C71.3441 44.9022 70.8491 45.9198 70.6184 46.3743C70.219 47.1581 68.7838 46.4416 68.4526 47.6644C68.1114 48.9188 69.9919 50.124 69.0853 51.3163C68.7416 51.7672 67.712 49.8814 67.5718 49.5243C67.5161 49.3813 67.5346 49.4176 67.4936 49.3112C67.4751 49.2625 67.4565 49.214 67.4367 49.1659C67.4193 49.1229 67.3957 49.0602 67.3647 49.0257C66.9875 48.6108 65.3167 49.6312 64.9768 48.7212C64.3777 47.1166 64.9482 46.6149 65.5189 45.248C65.628 44.9856 64.9569 45.15 64.6741 45.1151C64.1172 45.0462 63.5503 45.0482 63.0132 44.8739C61.8396 44.4931 61.3336 42.3686 60.1961 43.6853C58.8203 45.2778 62.2366 49.4469 61.1699 51.1868C60.4218 52.4088 58.7572 52.2768 57.802 53.1828C57.2934 53.6641 57.6481 54.3096 57.1532 54.8425C56.6757 55.3561 55.9959 55.5929 55.5108 56.1107C53.5448 58.2103 51.7448 60.4467 49.7538 62.4991C48.6114 63.6767 46.819 63.6013 45.8564 65.094C45.483 65.6731 46.4914 67.6009 46.4443 68.4863C46.3959 69.4113 45.7335 70.3515 45.6169 71.3059C45.5437 71.9062 46.0114 72.891 45.7757 73.4063C45.2845 74.4777 43.5925 75.2426 42.7601 76.0256C42.0667 76.6777 41.6153 78.1897 40.376 77.9803C38.1022 77.5954 38.364 73.7217 37.678 72.085C37.3194 71.2314 36.5479 70.5626 36.1311 69.7102C35.491 68.3973 35.6239 66.8825 35.0644 65.5578C34.3859 63.9521 33.2906 62.6526 32.9307 60.9157C32.3465 58.087 33.2099 55.8897 32.8018 53.296C32.7832 53.1765 32.5598 52.3936 32.3713 52.3701C31.6966 52.2861 30.8828 53.5461 30.3072 53.8034C29.4128 54.2031 27.3996 52.8232 26.7595 52.3554C25.6245 51.525 25.5835 51.2365 26.4096 50.1004C26.654 49.7651 25.1704 48.7687 25.003 48.5845C24.9844 48.5639 25.0589 48.4134 25.0589 48.4134C25.3131 47.8972 26.6553 47.1951 27.185 46.8945C27.8263 46.5307 29.0036 47.2326 29.7713 47.0111Z" fill="#FCFCFC"/>
</svg>
