<svg width="100" height="100" viewBox="0 0 100 100" fill="none" xmlns="http://www.w3.org/2000/svg">
<circle cx="50" cy="50" r="50" fill="#1573FB"/>
<path d="M62.3852 26.0564C60.632 26.0564 58.9182 26.5648 57.4604 27.5171C56.0028 28.4695 54.8666 29.8231 54.1958 31.4068C53.5248 32.9906 53.3493 34.7333 53.6913 36.4145C54.0334 38.0958 54.8776 39.6402 56.1172 40.8523C57.3569 42.0644 58.9364 42.8899 60.6558 43.2244C62.3754 43.5588 64.1576 43.3871 65.7773 42.7312C67.397 42.0751 68.7814 40.9643 69.7555 39.5389C70.7294 38.1136 71.2493 36.4379 71.2493 34.7237C71.2468 32.4258 70.312 30.2227 68.6501 28.5978C66.9885 26.973 64.7352 26.0591 62.3852 26.0564ZM63.37 41.4648H61.4003V39.5388H63.37V41.4648ZM65.0601 34.663C64.5508 35.0893 64.1375 35.6144 63.8466 36.2051C63.5556 36.7957 63.3934 37.4391 63.37 38.0943V38.5758H61.4003V38.0943C61.4214 37.1724 61.6389 36.2651 62.0387 35.43C62.4386 34.595 63.0121 33.8506 63.7227 33.2444C63.9687 33.0238 64.1531 32.7453 64.2582 32.4353C64.3631 32.1253 64.3852 31.7941 64.3224 31.4734C64.2466 31.0924 64.0561 30.7422 63.7754 30.4677C63.4945 30.1931 63.1363 30.0068 62.7466 29.9326C62.4616 29.8806 62.1682 29.8908 61.8875 29.9624C61.6069 30.034 61.3459 30.1654 61.1231 30.3471C60.9004 30.5288 60.7216 30.7564 60.5992 31.0134C60.4768 31.2706 60.4141 31.551 60.4154 31.8346H58.4455C58.4457 31.1948 58.6086 30.5651 58.92 30.0023C59.2313 29.4395 59.6811 28.9615 60.2287 28.6112C60.7764 28.261 61.4045 28.0496 62.0566 27.9964C62.7087 27.943 63.3641 28.0494 63.9637 28.3057C64.5632 28.562 65.088 28.9603 65.4907 29.4647C65.8932 29.9691 66.1611 30.5636 66.2699 31.1944C66.3787 31.8254 66.3251 32.4729 66.114 33.0784C65.9027 33.684 65.5406 34.2285 65.0601 34.663Z" fill="#FAFAFA"/>
<path d="M56.1596 55.0565V53.9163C55.5855 53.7178 55.0881 53.3508 54.7355 52.8654C54.3829 52.3799 54.1923 51.7998 54.1898 51.2044V48.5195C51.2522 46.578 49.0749 43.7197 48.0134 40.4115C46.952 37.1035 47.0694 33.5412 48.3464 30.3069C45.732 29.2598 42.894 28.859 40.0836 29.1398C37.273 29.4207 34.5767 30.3745 32.2331 31.917C29.8894 33.4595 27.9707 35.5432 26.6467 37.9835C25.3228 40.4237 24.6345 43.1454 24.6426 45.9078V46.4856C24.6481 48.4142 24.2625 50.3247 23.5077 52.1064C22.7531 53.8882 21.6445 55.506 20.246 56.866C19.9941 57.1123 19.8225 57.426 19.7529 57.7675C19.6834 58.1092 19.719 58.4633 19.8553 58.785C19.9917 59.1068 20.2227 59.3817 20.5189 59.5753C20.815 59.7686 21.1634 59.8717 21.5196 59.8716H24.6426C24.9039 59.8716 25.1543 59.9732 25.3391 60.1537C25.5238 60.3343 25.6276 60.5792 25.6276 60.8347V64.6868C25.6276 65.7083 26.0426 66.6882 26.7814 67.4106C27.5202 68.133 28.5224 68.5389 29.5671 68.5389H32.5219C33.5667 68.5389 34.5688 68.9447 35.3076 69.6671C36.0464 70.3895 36.4615 71.3693 36.4615 72.3909V78.169H53.2048V77.7723C53.2008 71.5504 54.3453 65.3791 56.5831 59.5548C56.8599 58.8344 57.1091 58.0958 57.3434 57.3543C56.9774 57.0874 56.6798 56.7408 56.4743 56.342C56.2688 55.9432 56.161 55.503 56.1596 55.0565Z" fill="#FAFAFA"/>
<path d="M62.2681 21.8311C59.2794 21.8291 56.3711 22.7773 53.9817 24.5326C51.5924 26.2881 49.8514 28.7556 49.0215 31.5629C48.1917 34.3703 48.3179 37.3654 49.3811 40.0965C50.4444 42.8276 52.3869 45.1467 54.9159 46.704C55.0562 46.7909 55.1717 46.911 55.2518 47.0533C55.3318 47.1957 55.3738 47.3554 55.3738 47.5178V50.7217C55.3738 50.9772 55.4776 51.2221 55.6622 51.4027C55.847 51.5833 56.0974 51.6848 56.3587 51.6848H68.1776C68.4388 51.6848 68.6894 51.5833 68.874 51.4027C69.0587 51.2221 69.1625 50.9772 69.1625 50.7217V47.5178C69.1625 47.3554 69.2045 47.1957 69.2845 47.0533C69.3646 46.911 69.4801 46.7909 69.6205 46.704C72.1494 45.1467 74.0921 42.8276 75.1551 40.0965C76.2184 37.3654 76.3446 34.3703 75.5147 31.5629C74.6849 28.7556 72.944 26.2881 70.5546 24.5326C68.1652 22.7773 65.2569 21.8291 62.2681 21.8311ZM62.2681 45.9066C60.1255 45.9066 58.0308 45.2854 56.2491 44.1213C54.4674 42.9574 53.0789 41.3029 52.2589 39.3672C51.4389 37.4316 51.2244 35.3016 51.6424 33.2467C52.0604 31.1919 53.0922 29.3043 54.6074 27.8229C56.1225 26.3413 58.0529 25.3325 60.1546 24.9237C62.2562 24.515 64.4345 24.7247 66.4142 25.5265C68.3938 26.3282 70.0859 27.686 71.2763 29.4281C72.4667 31.1702 73.1021 33.2182 73.1021 35.3134C73.0987 38.1219 71.9561 40.8144 69.9252 42.8003C67.8942 44.7862 65.1405 45.9033 62.2681 45.9066Z" fill="#FAFAFA"/>
</svg>
