<svg width="100" height="100" viewBox="0 0 100 100" fill="none" xmlns="http://www.w3.org/2000/svg">
<circle cx="50" cy="50" r="50" fill="#1573FB"/>
<path d="M42.3589 28.3859C43.0513 27.727 43.4599 26.8921 43.4599 25.9718C43.4599 24.2248 42.0438 22.8086 40.2968 22.8086C38.5499 22.8086 37.1338 24.2248 37.1338 25.9718C37.1338 26.8944 37.5423 27.727 38.2352 28.3859H42.3589Z" fill="white"/>
<path d="M44.3879 28.386H47.8409C47.5165 27.0767 46.3856 26.1253 45.0399 26.0298C45.0328 26.866 44.8023 27.5953 44.3879 28.386Z" fill="white"/>
<path d="M50.9402 28.3861H57.0658C56.7134 26.9364 55.4738 26.0483 54.003 26.0483C52.5321 26.0483 51.2926 26.9364 50.9402 28.3861Z" fill="white"/>
<path d="M48.7313 23.3186C47.7215 23.3197 46.7727 23.8024 46.177 24.6178C47.7799 25.1204 49.0003 26.4287 49.3903 28.0624C49.6888 26.8202 50.4764 25.7513 51.5746 25.0983C51.0448 24.0105 49.9412 23.3199 48.7313 23.3186Z" fill="white"/>
<path d="M58.6598 28.2647C60.3729 28.6045 62.0371 27.4911 62.3769 25.778C62.7166 24.065 61.6032 22.4008 59.8902 22.061C58.177 21.7212 56.5128 22.8347 56.173 24.5477C56.1481 24.6739 56.1307 24.8013 56.1213 24.9294C57.4401 25.5858 58.3786 26.8187 58.6598 28.2647Z" fill="white"/>
<path d="M63.9392 26.0681C63.7734 26.9312 63.3751 27.7326 62.7871 28.3858H66.2929C66.0151 27.2272 65.1019 26.3278 63.9392 26.0681Z" fill="white"/>
<path d="M75.2087 54.3275C75.2036 56.9279 74.805 59.5125 74.0269 61.9938H75.3317C77.8027 61.9938 79.8348 59.9246 79.8348 57.4534V46.8372H74.0864C74.8331 49.2638 75.2114 51.7886 75.2087 54.3275Z" fill="white"/>
<path d="M42.9326 48.2869H47.4065C49.0803 48.2869 50.4945 49.1436 51.19 50.5779C51.3804 50.9709 51.2163 51.4439 50.8233 51.6343C50.7157 51.6865 50.5978 51.7136 50.4782 51.7136H42.9326V53.2952H50.4784C50.9152 53.2952 51.2691 53.6491 51.2692 54.0857C51.2692 54.218 51.2361 54.3482 51.1726 54.4646C50.4161 55.8409 48.9771 56.7035 47.4065 56.7218H44.0465C43.65 56.7218 43.4027 56.838 43.3117 57.0671C43.1908 57.3438 43.269 57.6672 43.5034 57.8579L52.4727 66.2976L53.558 65.1395L47.4595 59.5211C47.1384 59.2253 47.1179 58.7249 47.4139 58.4038C47.5472 58.259 47.7296 58.1693 47.9256 58.1519C50.414 57.9314 52.4804 56.2195 53.068 53.8923C53.1567 53.541 53.4727 53.2952 53.8349 53.2952H56.3759V51.7136H53.8336C53.4709 51.7136 53.1546 51.4667 53.0666 51.1148C52.932 50.5485 52.704 50.0085 52.3919 49.5171C52.1491 49.1541 52.2467 48.663 52.6098 48.4202C52.7398 48.3333 52.8928 48.2869 53.0494 48.2869H56.3759V46.7053H42.9326V48.2869Z" fill="white"/>
<path d="M32.3968 38.2703C28.404 42.7513 26.2078 48.3285 26.2078 54.2662C26.2078 67.3403 36.8436 78 49.9177 78C62.9918 78 73.6278 67.3397 73.6278 54.2662C73.6278 48.3272 71.4321 42.7513 67.4391 38.2703H32.3968ZM57.9573 49.0775C57.9573 49.5143 57.6034 49.8682 57.1665 49.8682H54.3307C54.3636 49.9547 54.3951 50.0426 54.4252 50.1318H57.1665C57.6034 50.1318 57.9573 50.4859 57.9573 50.9227V54.0857C57.9573 54.5225 57.6034 54.8765 57.1665 54.8765H54.4221C53.6434 57.0528 51.8825 58.7331 49.6722 59.4091L55.2159 64.5163C55.5371 64.8122 55.5577 65.3125 55.2617 65.6337L55.2572 65.6386L53.0847 67.9567C52.9413 68.1103 52.7425 68.2003 52.5325 68.2072H52.5077C52.3063 68.2072 52.1125 68.1303 51.9658 67.9923L42.4186 59.0082C41.7168 58.3699 41.4867 57.3619 41.8423 56.4824C42.1813 55.6295 42.9853 55.1401 44.0464 55.1401H47.4064C47.8012 55.1384 48.1907 55.0484 48.5463 54.8765H42.1418C41.705 54.8765 41.3511 54.5225 41.3511 54.0857V50.9227C41.3511 50.4859 41.705 50.1318 42.1418 50.1318H48.6335C48.2493 49.9532 47.83 49.8632 47.4064 49.8682H42.1418C41.705 49.8682 41.3511 49.5143 41.3511 49.0775V45.9144C41.3511 45.4776 41.705 45.1236 42.1418 45.1236H57.1665C57.6034 45.1236 57.9573 45.4776 57.9573 45.9144V49.0775Z" fill="white"/>
<path d="M28.3037 29.9673H71.5327V36.6889H28.3037V29.9673Z" fill="white"/>
<path d="M35.5517 26.0134C34.0802 26.0134 32.8401 26.936 32.4885 28.3857H36.204C35.7995 27.6587 35.5753 26.845 35.5517 26.0134Z" fill="white"/>
<path d="M25.7487 46.8372H20V57.4534C20 59.9246 22.0321 61.9938 24.503 61.9938H25.8078C25.0297 59.5125 24.6312 56.9279 24.626 54.3275C24.6234 51.7886 25.0018 49.2637 25.7487 46.8372Z" fill="white"/>
</svg>
