<svg width="100" height="100" viewBox="0 0 100 100" fill="none" xmlns="http://www.w3.org/2000/svg">
<circle cx="50" cy="50" r="50" fill="#1573FB"/>
<path d="M44.868 69.3812C44.868 71.7614 42.8209 73.6903 40.2949 73.6903C37.7689 73.6903 35.7209 71.7614 35.7209 69.3812V65.0715H67.7367V52.1431H56.3024V44.4939C53.4326 42.066 51.7285 38.5792 51.7285 34.9049V26.2861H28.8605C25.0729 26.2861 22 29.1815 22 32.7503V39.2147H26.5739V32.7503C26.5739 31.5591 27.5961 30.5959 28.8605 30.5959C30.1249 30.5959 31.147 31.5591 31.147 32.7503V39.2147V69.3812C31.147 74.1408 35.2434 78 40.2949 78H67.7367C72.7881 78 76.8838 74.1408 76.8838 69.3812H44.868ZM35.7209 30.5959H47.1553V34.9049H35.7209V30.5959ZM35.7209 39.2147H47.1553V43.5243H35.7209V39.2147ZM35.7209 47.8333H49.4419V52.1431H35.7209V47.8333ZM35.7209 56.4528H56.3024V60.7619H35.7209V56.4528Z" fill="white"/>
<path d="M72.0471 42.8762C75.5896 40.9321 77.9991 37.3554 77.9991 33.2158C77.9991 27.0221 72.6659 22 66.095 22C59.5277 22 54.1917 27.0221 54.1917 33.2158C54.1917 37.3563 56.5977 40.933 60.1437 42.8762V50.04L66.095 47.2362L72.0471 50.04V42.8762Z" fill="white"/>
</svg>
