<svg width="100" height="100" viewBox="0 0 100 100" fill="none" xmlns="http://www.w3.org/2000/svg">
<circle cx="50" cy="50" r="50" fill="#1573FB"/>
<path d="M51.7653 32.3145H59.7591L57.296 40.0029H56.8077C55.9016 40.0029 55.167 40.8461 55.167 41.8863C55.167 42.9215 55.8949 43.7612 56.7951 43.7689V47.3826C56.7951 49.5097 58.3024 51.2403 60.1555 51.2403H64.1656C66.0185 51.2403 67.526 49.5097 67.526 47.3826V43.7698H67.6092C68.5152 43.7698 69.2498 42.9264 69.2498 41.8863C69.2498 40.8461 68.5152 40.0029 67.6092 40.0029H67.0214L64.4225 32.0629C65.8023 31.742 67.1193 31.1176 68.3075 30.2083C69.0614 29.6314 69.2651 28.4621 68.7625 27.5966C68.2599 26.7311 67.2414 26.4975 66.4874 27.0741C65.2275 28.0382 63.7616 28.5478 62.2478 28.5478H51.7652V23.8834C51.7652 22.8432 51.0306 22 50.1245 22C49.2186 22 48.484 22.8432 48.484 23.8834V28.5478H37.755C36.2411 28.5478 34.7751 28.038 33.5154 27.0741C32.7614 26.4971 31.7429 26.7311 31.2403 27.5966C30.7377 28.4621 30.9415 29.6314 31.6954 30.2083C32.8704 31.1077 34.1716 31.7281 35.5348 32.0522L32.9876 40.0031H32.4993C31.5932 40.0031 30.8586 40.8463 30.8586 41.8865C30.8586 42.9216 31.5865 43.7614 32.4867 43.7691V47.3827C32.4867 49.5099 33.9942 51.2404 35.8471 51.2404H39.8574C41.7103 51.2404 43.2176 49.5099 43.2176 47.3827V43.7691C44.118 43.7612 44.8457 42.9216 44.8457 41.8865C44.8457 40.8463 44.1111 40.0031 43.205 40.0031H42.7132L40.1966 32.3146H48.4841V59.0967H51.7654L51.7653 32.3145ZM60.7922 40.0029L62.1395 35.7971L63.5163 40.0029H60.7922ZM36.4837 40.0029L37.831 35.7972L39.2078 40.0029H36.4837Z" fill="white"/>
<path d="M77.998 61.8246C77.9899 61.6911 77.9441 61.4389 77.7271 61.251C76.1025 59.8424 73.792 60.0266 72.3526 61.6792L64.1405 71.1064C63.8331 71.4596 63.4156 71.6582 62.9806 71.6582H43.7853C42.8792 71.6582 42.1446 70.8149 42.1446 69.7748C42.1446 68.7346 42.8792 67.8913 43.7853 67.8913H55.17C55.804 67.8913 56.3196 67.2993 56.3196 66.5717C56.3196 64.5272 54.8707 62.864 53.0899 62.864H45.9805C45.8269 62.864 45.674 62.8392 45.5265 62.7903C39.6732 60.8554 33.3056 62.6593 28.9083 67.4985L28.0172 68.4793C27.7029 68.8244 27.292 69.0139 26.8588 69.0139H23.6407C22.736 69.0139 22 69.8588 22 70.8973V76.1166C22 77.1551 22.736 78 23.6407 78H62.3897C63.5836 78 64.7061 77.4665 65.5503 76.4972L77.799 62.436C77.9911 62.2153 78.0062 61.9583 77.998 61.8246Z" fill="white"/>
</svg>
