<svg width="100" height="100" viewBox="0 0 100 100" fill="none" xmlns="http://www.w3.org/2000/svg">
<circle cx="50" cy="50" r="50" fill="#1573FB"/>
<path fill-rule="evenodd" clip-rule="evenodd" d="M52.2481 67.2055C51.9548 67.2441 51.6814 67.3777 51.4711 67.586L47.921 71.1253C47.503 71.5421 47.4093 72.1819 47.6879 72.7015L50.1637 77.2972C50.4088 77.7513 50.8938 78.0238 51.4095 77.9984C65.3114 77.3173 76.574 66.559 77.9927 52.9038C78.0517 52.3415 77.7488 51.8032 77.2371 51.5602C76.724 51.317 76.1145 51.4226 75.7139 51.822L72.8269 54.7001C72.3272 55.1984 71.5314 55.2223 71.0077 54.7696C70.946 54.7175 70.8804 54.6695 70.8107 54.628L68.8615 53.4834C68.4985 53.271 68.0564 53.2403 67.6665 53.4006C67.278 53.5622 66.9873 53.8961 66.8827 54.3035C65.1358 61.1004 59.3605 66.2959 52.2481 67.2055ZM22.7056 51.3719C22.23 51.6256 21.9541 52.1398 22.0063 52.6754C23.1932 65.0925 32.5147 75.1576 44.5893 77.5109C45.1077 77.6124 45.6355 77.4014 45.941 76.9727C46.2451 76.5426 46.2691 75.9763 46.0012 75.5222L44.4472 72.8924C44.4057 72.823 44.3588 72.7575 44.3052 72.6961C43.8511 72.1738 43.8765 71.3806 44.3762 70.8823L46.2357 69.0286C46.5746 68.6906 46.7059 68.1964 46.5799 67.7343C46.4541 67.2721 46.0897 66.9129 45.6249 66.7914C39.887 65.3048 35.2945 60.9721 33.4591 55.3987C33.3802 55.1583 33.2354 54.9472 33.0412 54.7857C33.009 54.7589 32.977 54.7309 32.9474 54.7015L27.8996 49.6689C27.483 49.2523 26.8398 49.1588 26.3187 49.4365L22.7056 51.3719ZM51.3506 44.6431H47.3316C46.592 44.6431 45.9918 45.2414 45.9918 45.9787V49.9855H41.9728C41.2333 49.9855 40.6332 50.5838 40.6332 51.3211V57.9991C40.6332 58.7363 41.2333 59.3347 41.9728 59.3347H58.049C58.7885 59.3347 59.3887 58.7363 59.3887 57.9991V41.9719C59.3887 41.2346 58.7885 40.6363 58.049 40.6363H52.6902C51.9508 40.6363 51.3506 41.2346 51.3506 41.9719V44.6431ZM54.0299 45.9787V43.3075H56.7092V56.6635H54.0299V45.9787ZM45.9918 52.6567V56.6635H43.3125V52.6567H45.9918ZM48.6713 51.3198V56.6635H51.3506V47.3143H48.6713V51.3198ZM67.3838 48.7528C67.416 49.2095 67.6812 49.6195 68.0858 49.836L71.0022 51.3972C71.5235 51.6764 72.1651 51.5815 72.5831 51.1648L77.3671 46.3967C77.6738 46.0896 77.8132 45.6528 77.7395 45.2267C75.5759 32.628 64.971 22.8875 51.944 22.0032C51.3867 21.9645 50.8642 22.2757 50.6338 22.7833C50.4021 23.2894 50.5106 23.8865 50.9058 24.2805L52.9676 26.336C53.4672 26.8328 53.4913 27.6275 53.0372 28.1484C52.9849 28.2099 52.9368 28.2766 52.8952 28.3461L51.4538 30.7875C51.226 31.1721 51.2072 31.6437 51.4015 32.0457C51.5971 32.4477 51.9802 32.7268 52.4237 32.7883C60.4952 33.9048 66.8064 40.5454 67.3838 48.7528ZM22.1576 46.0201C22.0854 46.5289 22.3104 47.0325 22.7391 47.3183C23.1665 47.6028 23.7198 47.6188 24.1631 47.3584L26.1272 46.2058C26.1968 46.1643 26.2638 46.1176 26.324 46.0642C26.8479 45.6113 27.6437 45.6368 28.1433 46.1337L30.4717 48.4549C30.832 48.8141 31.3653 48.9384 31.8489 48.7755C32.3312 48.6125 32.6795 48.1904 32.7465 47.6856C33.7232 40.3412 39.3109 34.4404 46.5116 32.9739C46.9015 32.8937 47.2351 32.6467 47.424 32.2967L49.6545 28.155C49.9345 27.6355 49.8394 26.9944 49.4214 26.5777L45.6797 22.8473C45.3636 22.5322 44.9095 22.3946 44.47 22.4828C32.8671 24.7986 23.8336 34.2348 22.1576 46.0201Z" fill="white"/>
</svg>
