<svg width="52" height="70" viewBox="0 0 52 70" fill="none" xmlns="http://www.w3.org/2000/svg">
<g clip-path="url(#clip0_387_892)">
<path d="M45.5363 70.0009H6.37122C6.25071 69.953 6.1336 69.8881 6.008 69.8625C2.53194 69.1481 0.00975944 66.0907 0.00806215 62.519C-0.000424324 47.0937 -0.0072135 31.6684 0.0148513 16.2431C0.0182459 13.5121 1.27764 11.4152 3.53504 9.92154C5.77716 8.43814 8.28746 8.80044 10.8164 8.77652C10.6094 9.84121 10.4142 10.841 10.219 11.8407C9.48575 15.5937 12.2761 19.1278 16.0679 19.1483C22.6177 19.1825 29.1676 19.1825 35.7174 19.133C36.6136 19.1261 37.5828 18.9159 38.3873 18.5263C41.086 17.2172 42.3114 14.5153 41.7021 11.5417C41.5171 10.641 41.3491 9.73697 41.1657 8.80215C42.5745 8.80215 43.8848 8.73208 45.1849 8.82095C46.7532 8.92691 48.1535 9.55069 49.3501 10.5966C51.212 12.227 52.0064 14.3205 52.003 16.7746C51.9945 23.2003 51.9996 29.6261 51.9996 36.0502C51.9996 44.7079 52.003 53.3673 51.9979 62.0251C51.9962 65.6977 50.0613 68.5312 46.8228 69.6266C46.4002 69.7702 45.9657 69.8761 45.538 70.0009H45.5363ZM31.3741 39.1042C33.881 39.1042 36.3879 39.1161 38.8931 39.099C40.1694 39.0905 41.0639 38.2223 41.0673 37.0568C41.0707 35.9169 40.1966 35.0128 38.9711 35.0077C33.9353 34.9889 28.8994 34.9923 23.8635 35.0077C23.0098 35.0094 22.3394 35.4127 21.9727 36.2194C21.3363 37.6225 22.3478 39.0854 23.9874 39.099C26.4485 39.1195 28.9096 39.1042 31.3724 39.1042H31.3741ZM31.3741 50.057V50.0605C33.8351 50.0605 36.2962 50.0639 38.7573 50.057C39.0475 50.057 39.3496 50.0485 39.6246 49.9682C40.5615 49.6981 41.1624 48.7821 41.0605 47.8371C40.957 46.8647 40.2305 46.0529 39.2393 46.046C34.0252 46.0136 28.8111 46.0272 23.5971 46.046C23.3017 46.046 22.9775 46.1862 22.7162 46.3451C21.9795 46.7946 21.6384 47.7174 21.8522 48.5395C22.0848 49.4298 22.8384 50.0468 23.7872 50.0519C26.3161 50.0656 28.8451 50.057 31.3724 50.057H31.3741ZM31.4216 56.9972V56.9938C28.9826 56.9938 26.5453 56.9904 24.1062 56.9972C23.816 56.9972 23.5139 57.0041 23.2372 57.0827C22.2715 57.3612 21.7046 58.2585 21.8132 59.2804C21.9133 60.2238 22.6601 61.0082 23.6836 61.015C28.8519 61.0458 34.0218 61.0356 39.1918 61.0082C39.5652 61.0065 39.9844 60.8083 40.2984 60.5844C40.9977 60.0836 41.2201 59.2138 40.9536 58.3935C40.6752 57.5407 39.9929 57.0092 39.0747 57.0041C36.5236 56.9904 33.9726 56.9989 31.4216 56.9989V56.9972ZM20.5708 24.0497V24.0463C18.0435 24.0463 15.5145 24.036 12.9873 24.0514C11.604 24.06 10.7248 25.1486 10.9658 26.5021C11.1423 27.4899 11.94 28.0983 13.1723 28.1C18.0927 28.112 23.0132 28.1085 27.9336 28.0983C28.2646 28.0983 28.616 28.0504 28.9249 27.9325C29.8159 27.5959 30.3031 26.6798 30.1384 25.7416C29.9636 24.7487 29.2253 24.0634 28.2239 24.0565C25.6728 24.0377 23.1235 24.0497 20.5725 24.0497H20.5708ZM14.9239 37.0431C14.9205 35.9152 13.9972 34.9889 12.8973 35.0077C11.8178 35.0265 10.9352 35.9289 10.9234 37.0277C10.9115 38.1574 11.8127 39.0939 12.916 39.099C14.0226 39.1042 14.9273 38.1762 14.9239 37.0431ZM14.9239 48.1037C14.9527 46.9552 14.1007 46.046 12.9703 46.0204C11.8314 45.9948 10.9386 46.8612 10.9234 48.008C10.9081 49.1239 11.7516 50.0246 12.8413 50.0553C13.9802 50.0878 14.895 49.2316 14.9222 48.1037H14.9239ZM12.9007 56.9989C11.7754 57.0075 10.9047 57.9167 10.9251 59.0583C10.9454 60.1794 11.8026 61.0304 12.9143 61.0356C14.0447 61.0407 14.929 60.1503 14.9256 59.0087C14.9205 57.8722 14.0311 56.9887 12.9007 56.9989Z" fill="#124ABB"/>
<path d="M34.152 0C35.2026 0.480225 35.5845 1.37231 35.7865 2.46436C36.4009 5.76782 37.0764 9.05762 37.735 12.3525C38.0558 13.9539 37.2241 15.0835 35.6066 15.0903C29.1976 15.1125 22.7869 15.1125 16.3779 15.0903C14.7774 15.0852 13.9355 14.0308 14.2359 12.4346C14.9013 8.91064 15.6124 5.39526 16.2999 1.87476C16.4815 0.94165 17.0467 0.355469 17.8902 0L34.152 0Z" fill="#124ABB"/>
</g>
<defs>
<clipPath id="clip0_387_892">
<rect width="52" height="70" fill="white"/>
</clipPath>
</defs>
</svg>
