<svg width="87" height="70" viewBox="0 0 87 70" fill="none" xmlns="http://www.w3.org/2000/svg">
<g clip-path="url(#clip0_387_921)">
<path d="M6.17578 63.7829V15.6705H33.7612C33.5664 15.98 33.3949 16.2686 33.2079 16.5468C31.6314 18.9207 30.0627 21.3024 28.4706 23.6659C28.0082 24.3523 27.668 25.0283 28.2316 25.7979C28.7407 26.4948 29.416 26.5312 30.2237 26.3492C32.1145 25.928 34.0235 25.5925 36.0311 25.2025C36.4337 27.1656 36.8571 29.0819 37.2103 31.0112C37.3661 31.8614 37.7012 32.5244 38.5842 32.6726C39.4933 32.826 39.9842 32.2254 40.3867 31.4922C41.7243 29.0507 43.0853 26.6222 44.441 24.1911C44.6073 23.8921 44.7917 23.6035 45.0462 23.1822C45.5059 23.9987 45.9033 24.6903 46.2903 25.3845C47.4383 27.449 48.5862 29.5161 49.7238 31.5858C50.1108 32.2904 50.6251 32.8234 51.4874 32.6726C52.3211 32.5244 52.6847 31.916 52.8379 31.0996C53.1964 29.1651 53.6093 27.2384 54.0223 25.1999C56.0689 25.6029 58.061 25.9696 60.0375 26.396C60.7959 26.5598 61.3881 26.3986 61.8374 25.7901C62.3075 25.1505 62.1646 24.5135 61.7517 23.8973C60.1518 21.5 58.5545 19.1027 56.9572 16.7028C56.7468 16.3882 56.552 16.0606 56.2923 15.6523H80.7532V63.7855H6.17578V63.7829ZM22.2891 37.384C16.1077 37.3528 10.8664 42.5322 10.8145 48.7257C10.7599 55.0543 15.9025 60.2883 22.2138 60.3299C28.4732 60.3689 33.6625 55.2389 33.73 48.9441C33.7975 42.6518 28.6134 37.4178 22.2891 37.384ZM61.7075 51.2972C59.6609 53.4449 59.0142 54.8697 59.0272 57.1942C59.035 58.5697 59.6038 59.1807 60.9517 59.1833C64.3515 59.1937 67.7513 59.1963 71.1511 59.1833C72.4368 59.1781 73.0185 58.5567 73.0315 57.2462C73.0575 54.8411 72.1563 52.8494 70.3174 51.3128C72.8757 47.9352 72.8445 44.6097 70.2758 42.1968C67.9201 39.9841 64.3308 39.9425 61.8893 42.0954C59.2505 44.4251 59.1856 47.7298 61.7075 51.2972ZM45.8384 38.9467C47.8123 38.9467 49.7836 38.9467 51.7575 38.9467C53.1158 38.9467 54.4742 38.9727 55.8326 38.9337C56.8013 38.9051 57.4844 38.1978 57.4636 37.3554C57.4429 36.5416 56.7858 35.9124 55.8689 35.8318C55.7079 35.8188 55.5469 35.8265 55.3832 35.8265C49.0122 35.8265 42.6411 35.8265 36.2701 35.8265C35.9792 35.8265 35.6779 35.8083 35.4026 35.8812C34.6312 36.0866 34.1559 36.6066 34.1689 37.4126C34.1819 38.1692 34.6364 38.6789 35.3688 38.8739C35.6753 38.9545 36.0104 38.9415 36.3298 38.9415C39.4985 38.9467 42.6697 38.9441 45.8384 38.9441V38.9467ZM45.028 48.281C43.0905 48.281 41.1503 48.2733 39.2128 48.281C38.0102 48.2863 37.2648 48.8973 37.2674 49.8411C37.2674 50.785 38.0154 51.3934 39.2206 51.396C43.0983 51.4038 46.9759 51.4038 50.8536 51.396C52.0536 51.396 52.8042 50.7745 52.8016 49.8333C52.799 48.8921 52.0484 48.2863 50.8458 48.281C48.9083 48.2733 46.9682 48.281 45.0306 48.281H45.028ZM45.041 42.0538C43.5865 42.0538 42.1347 42.0434 40.6802 42.0564C39.5556 42.0668 38.8258 42.6882 38.818 43.6009C38.8102 44.5135 39.54 45.1609 40.6594 45.1661C43.5658 45.1791 46.4721 45.1791 49.3784 45.1661C50.5004 45.1609 51.2328 44.5291 51.2406 43.6191C51.2484 42.7064 50.516 42.0668 49.3992 42.0538C47.9473 42.0382 46.4929 42.0486 45.0384 42.0486L45.041 42.0538ZM45.015 57.631C45.9838 57.631 46.95 57.6492 47.9187 57.6258C48.9654 57.6024 49.6771 56.9628 49.6875 56.0866C49.6979 55.2051 48.9914 54.5317 47.9525 54.5187C46.0176 54.4953 44.08 54.4979 42.1451 54.5187C41.0958 54.5291 40.3893 55.1739 40.3763 56.0554C40.3634 56.9342 41.0724 57.5972 42.1113 57.6258C43.0775 57.6518 44.0463 57.631 45.015 57.631Z" fill="#124ABB"/>
<path d="M87 9.39844V69.9991H0V9.41664H32.9513C32.8032 10.3865 32.6552 11.3563 32.4838 12.4692C32.1877 12.4692 31.8111 12.4692 31.4345 12.4692C22.7181 12.4692 14.0044 12.4692 5.288 12.4692C3.52966 12.4692 3.03878 12.9606 3.03618 14.7208C3.03618 31.3927 3.03618 48.062 3.03618 64.7339C3.03618 66.4811 3.53485 66.9725 5.30098 66.9725C30.767 66.9725 56.2304 66.9725 81.6964 66.9725C83.3976 66.9725 83.9171 66.4629 83.9171 64.7858C83.9171 48.0828 83.9171 31.3797 83.9171 14.6766C83.9171 12.9814 83.408 12.4718 81.7146 12.4718C74.0034 12.4718 66.2921 12.4718 58.5835 12.4718C58.2355 12.4718 57.8875 12.4718 57.5862 12.4718C57.4147 11.3901 57.2589 10.4125 57.1005 9.40364H87V9.39844Z" fill="#124ABB"/>
<path d="M35.6758 11.5552C36.5796 10.2057 36.0342 8.58848 35.7563 6.90881C35.5173 5.46055 36.4134 4.34771 37.7588 3.79909C38.6055 3.45587 39.1301 2.99825 39.4574 2.12202C40.1223 0.340947 42.1118 -0.478086 43.8597 0.286345C44.6649 0.639959 45.3453 0.67376 46.1609 0.309746C47.9556 -0.496286 49.9295 0.322746 50.6255 2.16362C50.9424 3.00085 51.4359 3.45847 52.2618 3.77308C54.0383 4.45431 54.8591 6.43299 54.0929 8.18286C53.7396 8.98889 53.7059 9.67012 54.0721 10.4866C54.8746 12.2858 54.0565 14.2593 52.2176 14.9561C51.3813 15.2733 50.9268 15.77 50.61 16.5968C49.9243 18.3779 47.9504 19.1943 46.205 18.4273C45.3973 18.0737 44.7194 18.0425 43.9039 18.4065C42.1066 19.2099 40.1353 18.3883 39.4418 16.5474C39.1249 15.7076 38.6263 15.2603 37.8029 14.9379C36.4472 14.4075 35.7537 13.3207 35.6784 11.5526L35.6758 11.5552ZM51.2515 9.38411C51.2723 6.02217 48.4724 3.17246 45.109 3.12826C41.7144 3.08406 38.8392 5.91817 38.8133 9.33211C38.7873 12.6862 41.5949 15.5412 44.9583 15.5854C48.3504 15.6296 51.2333 12.7902 51.2541 9.38151L51.2515 9.38411Z" fill="#124ABB"/>
<path d="M57.2321 22.6675C55.7751 22.3841 54.5518 22.1501 53.3285 21.9109C52.2246 21.6951 51.4948 22.1527 51.2585 23.2473C51.0273 24.3134 50.8299 25.3872 50.565 26.7211C49.5988 24.9868 48.7469 23.4605 47.8379 21.8277C50.604 21.4923 52.4896 20.0804 53.6973 17.3789C54.9362 19.2328 56.014 20.8448 57.2321 22.6675Z" fill="#124ABB"/>
<path d="M36.3455 17.4049C37.5844 20.044 39.4336 21.5027 42.2282 21.8199C41.3166 23.4606 40.4699 24.9868 39.5037 26.7263C39.2414 25.4341 39.0336 24.3992 38.8207 23.3644C38.5661 22.1345 37.8908 21.6925 36.6572 21.9343C35.4598 22.1683 34.2599 22.3919 32.8418 22.6624C34.0313 20.8761 35.0988 19.2718 36.3455 17.4023V17.4049Z" fill="#124ABB"/>
<path d="M13.9316 48.8463C13.9265 44.2312 17.6327 40.5078 22.2376 40.5C26.9049 40.4922 30.6423 44.213 30.6371 48.8619C30.6345 53.4615 26.8945 57.2239 22.3234 57.2239C17.6613 57.2239 13.9394 53.5083 13.9316 48.8463ZM27.8373 49.3378C27.8191 45.2218 28.1334 45.916 25.1518 44.1974C21.9623 42.3591 22.8324 42.3383 19.6456 44.1766C16.6302 45.9186 16.9159 45.2686 16.9133 48.8931C16.9107 52.5775 16.6562 51.8859 19.6378 53.6123C22.674 55.3726 21.9234 55.3258 25.1881 53.6357C27.2296 52.5801 28.4347 51.345 27.8399 49.3352L27.8373 49.3378Z" fill="#124ABB"/>
<path d="M66.046 49.8367C64.3266 49.8419 62.9449 48.495 62.9241 46.7893C62.9008 45.0083 64.2513 43.6224 66.0123 43.6172C67.7732 43.612 69.1471 44.9927 69.1367 46.7581C69.1238 48.4742 67.7628 49.8289 66.046 49.8367Z" fill="#124ABB"/>
<path d="M69.7614 56.0335H62.3203C62.5437 54.3512 64.0605 53.0252 65.8058 52.9602C67.7823 52.8874 69.3666 54.0886 69.7614 56.0335Z" fill="#124ABB"/>
<path d="M48.1404 9.32985C48.1508 11.1005 46.7794 12.4734 45.0107 12.4656C43.2939 12.4578 41.9356 11.0979 41.9278 9.37925C41.92 7.60078 43.2809 6.23833 45.0549 6.24613C46.7716 6.25393 48.13 7.61118 48.1404 9.32985Z" fill="#124ABB"/>
</g>
<defs>
<clipPath id="clip0_387_921">
<rect width="87" height="70" fill="white"/>
</clipPath>
</defs>
</svg>
