<svg width="60" height="52" viewBox="0 0 60 52" fill="none" xmlns="http://www.w3.org/2000/svg">
<g clip-path="url(#clip0_1077_1080)">
<path d="M59.1993 26.5956C58.8299 27.4506 58.5826 28.389 58.0643 29.1428C57.0126 30.6741 55.4366 31.3295 53.5895 31.3325C50.9708 31.3355 48.3521 31.3325 45.7305 31.3325C45.5249 31.3325 45.3223 31.3325 45.0393 31.3325C45.1376 31.6066 45.2032 31.8002 45.2747 31.9939C47.3601 37.6722 49.4515 43.3505 51.522 49.0347C51.668 49.4369 51.7812 49.9017 51.7335 50.3158C51.6471 51.0993 50.9887 51.6683 50.2231 51.7666C49.5468 51.853 48.7811 51.4657 48.4862 50.7716C48.0512 49.7468 47.6848 48.6921 47.3005 47.6464C45.367 42.3822 43.4305 37.118 41.5179 31.8479C41.3481 31.3831 41.0889 31.3325 40.6688 31.3146C40.2071 31.2937 40.0462 31.4963 39.9062 31.8836C37.7075 37.9701 35.494 44.0536 33.2835 50.137C33.1971 50.3724 33.1047 50.6048 32.9856 50.8222C32.5297 51.6594 31.6151 51.9871 30.775 51.6266C29.9736 51.284 29.5267 50.3873 29.8246 49.5233C30.4801 47.6166 31.1802 45.7249 31.8684 43.8301C33.3043 39.8768 34.7462 35.9264 36.1822 31.973C36.2537 31.7794 36.2984 31.5797 36.3699 31.3265H34.0461C34.0998 30.3523 34.1415 29.4139 34.213 28.4784C34.2279 28.2758 34.3232 28.0733 34.4156 27.8885C35.5596 25.5827 36.7185 23.2827 37.8595 20.9739C38.8307 19.0106 38.7354 17.1158 37.4394 15.3194C35.4225 12.5249 30.8674 12.6232 29.062 15.5548C28.2278 16.9103 27.5783 18.376 26.8425 19.7941C26.7472 19.9788 26.6518 20.1635 26.5386 20.381C25.195 19.7137 23.8842 19.0702 22.5882 18.3999C22.4452 18.3254 22.3141 18.0811 22.3141 17.9143C22.3052 13.6779 22.2635 9.43851 22.341 5.20212C22.3976 2.29146 24.7749 0.0630394 27.7035 0.0123934C29.0709 -0.01144 30.4384 0.00643502 31.8058 0.00643502C39.0482 0.00643502 46.2906 0.00345584 53.53 0.00643502C55.8567 0.00643502 57.5965 1.02233 58.6452 3.1167C58.8984 3.62316 59.0146 4.19814 59.1963 4.74333V26.5956H59.1993ZM40.7046 10.8834C43.7851 10.8834 46.8655 10.8894 49.946 10.8834C51.1377 10.8804 51.9063 9.97774 51.7127 8.84565C51.5577 7.93998 50.8576 7.44544 49.6928 7.44544C43.7434 7.44246 37.7939 7.44544 31.8445 7.44544C31.6151 7.44544 31.3828 7.46033 31.1563 7.49906C30.486 7.61227 30.0451 8.01446 29.8395 8.64903C29.4671 9.79303 30.2805 10.8804 31.5228 10.8834C34.5824 10.8953 37.645 10.8864 40.7076 10.8864L40.7046 10.8834ZM46.1416 20.4585C44.8516 20.4585 43.5616 20.4466 42.2687 20.4615C41.217 20.4734 40.508 21.2509 40.5616 22.2937C40.6122 23.2798 41.3392 23.8965 42.513 23.9024C44.5924 23.9143 46.6749 23.9084 48.7543 23.9024C49.2161 23.9024 49.6809 23.9233 50.1397 23.8756C51.1436 23.7713 51.7842 23.0444 51.7454 22.106C51.7067 21.1467 50.9738 20.4644 49.9549 20.4585C48.6828 20.4495 47.4137 20.4585 46.1416 20.4585ZM46.1476 17.378C47.3988 17.378 48.6501 17.3869 49.9013 17.378C51.0125 17.3661 51.7514 16.6719 51.7544 15.6739C51.7544 14.6759 51.0125 13.9728 49.9043 13.9669C47.4018 13.9549 44.8993 13.9549 42.3968 13.9669C41.2766 13.9728 40.5586 14.655 40.5586 15.6709C40.5586 16.6868 41.2766 17.3661 42.3968 17.378C43.648 17.3899 44.8993 17.378 46.1505 17.378H46.1476Z" fill="#124ABB"/>
<path d="M10.1973 18.5644C5.82979 17.915 3.26174 14.2923 3.48518 10.464C3.69074 6.94862 6.64311 3.87113 10.2777 3.49277C13.954 3.10846 17.392 5.55734 18.3751 9.13831C19.2659 12.3826 17.4784 17.5426 12.3542 18.5614C14.8061 18.4512 16.9362 19.4314 19.0484 20.492C22.0365 21.9964 25.0336 23.4801 28.0783 24.9965C28.1826 24.8028 28.2809 24.6241 28.3732 24.4423C29.4755 22.2437 30.5808 20.0481 31.6771 17.8464C31.9393 17.3191 32.2968 16.914 32.8837 16.7769C33.5778 16.616 34.1886 16.7918 34.6503 17.3459C35.13 17.9209 35.1836 18.5823 34.8678 19.2407C34.2273 20.5724 33.551 21.8892 32.8897 23.2149C32.1925 24.6062 31.4805 25.9915 30.8132 27.3977C30.6851 27.6688 30.6374 28.0322 30.694 28.3272C31.1945 30.8654 29.1836 33.5348 26.6155 33.7791C25.537 33.8833 24.5569 33.6659 23.6095 33.1922C22.0782 32.4265 20.5499 31.6609 19.0186 30.8952C18.8339 30.8029 18.6432 30.7254 18.3632 30.6003V31.3391C18.3632 37.3869 18.3632 43.4376 18.3632 49.4853C18.3632 51.1775 17.7554 51.7882 16.0752 51.7882C12.667 51.7882 9.25882 51.7882 5.84767 51.7882C4.35808 51.7882 3.71756 51.1387 3.71756 49.6343C3.71756 46.7266 3.7116 43.8159 3.72649 40.9082C3.72649 40.518 3.63414 40.3094 3.24685 40.1277C1.21803 39.1803 0.112753 37.5567 0.0352947 35.3223C-0.0302472 33.4573 0.0144405 31.5864 0.0203988 29.7185C0.0323155 24.4274 3.42858 20.1136 8.56766 18.8653C9.08305 18.7402 9.61335 18.6717 10.1973 18.5644Z" fill="#124ABB"/>
</g>
<defs>
<clipPath id="clip0_1077_1080">
<rect width="59.1992" height="51.79" fill="white"/>
</clipPath>
</defs>
</svg>
