<svg width="64" height="70" viewBox="0 0 64 70" fill="none" xmlns="http://www.w3.org/2000/svg">
<g clip-path="url(#clip0_387_879)">
<path d="M9.93098 66.1007C9.91181 65.7873 9.88625 65.5358 9.88625 65.2842C9.88412 61.1701 9.89903 57.0538 9.86921 52.9397C9.86495 52.2661 10.046 52.0444 10.7382 52.0359C14.4826 51.989 17.9289 50.8485 21.2111 49.1069C22.2419 48.5612 23.3346 48.1349 24.3974 47.6489C25.98 46.9241 27.6285 46.6448 29.3346 47.0563C32.2057 47.7491 35.0769 48.4546 37.9246 49.2327C38.6296 49.4245 39.3005 49.853 39.9054 50.2879C41.0556 51.1171 41.0897 52.5944 40.0609 53.5835C39.3474 54.2699 38.5103 54.6216 37.5178 54.547C34.4571 54.3146 31.3985 54.0759 28.3399 53.835C27.4837 53.7668 26.6317 53.6708 25.7755 53.6154C24.9768 53.5621 24.4315 53.9906 24.3889 54.6578C24.3484 55.2931 24.8 55.7599 25.5753 55.8238C29.4368 56.1415 33.2984 56.4484 37.1621 56.7597C38.7404 56.8876 40.0779 56.3717 41.3687 55.4465C42.6722 54.5129 44.1248 53.7817 45.5156 52.9717C49.0875 50.8911 52.6637 48.8192 56.2313 46.7365C57.3069 46.1077 58.4123 45.9265 59.5838 46.4189C60.7233 46.8964 61.4603 47.7405 61.652 48.962C61.8586 50.2772 61.4603 51.4837 60.3208 52.168C52.3421 56.943 44.5103 61.9759 35.9906 65.7958C33.4709 66.9256 30.9406 66.7423 28.3442 66.5142C23.1642 66.058 17.9927 65.3993 12.7744 65.8044C11.8479 65.8768 10.9278 65.9983 9.92672 66.107L9.93098 66.1007Z" fill="#124ABB"/>
<path d="M51.2103 17.975C51.2103 23.4172 51.2103 28.8593 51.2103 34.2994C51.2103 35.5805 50.8653 35.9323 49.6108 35.9344C47.9196 35.9344 46.2284 35.9408 44.5373 35.9344C43.5256 35.9301 43.106 35.523 43.106 34.5232C43.1017 23.5088 43.1038 12.4966 43.106 1.48222C43.106 0.495258 43.5362 0.0305522 44.5117 0.0198938C46.2817 -0.00142294 48.0495 -0.00142294 49.8195 0.0198938C50.7929 0.0326839 51.2082 0.495258 51.2082 1.49715C51.2103 6.99048 51.2082 12.4838 51.2082 17.9793L51.2103 17.975Z" fill="#124ABB"/>
<path d="M22.9082 20.377C22.9082 15.7683 22.9082 11.1596 22.9082 6.54882C22.9082 5.2421 23.2639 4.88398 24.5738 4.87759C26.1862 4.87119 27.8006 4.86693 29.413 4.87759C30.6015 4.88824 31.0168 5.30605 31.019 6.48274C31.0211 15.779 31.0232 25.0752 31.019 34.3715C31.019 35.5268 30.6164 35.9276 29.479 35.9297C27.7879 35.934 26.0967 35.934 24.4055 35.9297C23.2852 35.9276 22.9103 35.5588 22.9103 34.4354C22.9061 29.7479 22.9103 25.0603 22.9082 20.3749V20.377Z" fill="#124ABB"/>
<path d="M56.2744 23.6174C56.4512 24.6811 56.5982 25.5657 56.743 26.4504C56.7899 26.7317 56.8474 27.0131 56.8708 27.2988C56.9262 27.966 56.628 28.4115 55.9762 28.565C55.3671 28.7078 54.7941 28.3284 54.6621 27.6484C54.3277 25.9388 54.0359 24.2228 53.727 22.5089C53.6951 22.3298 53.661 22.1508 53.6269 21.9717C53.4608 21.0785 53.7867 20.5264 54.6557 20.3623C56.4938 20.017 58.3362 19.6908 60.1807 19.3881C61.0944 19.2389 61.678 19.6098 61.7824 20.326C61.8761 20.9741 61.4139 21.475 60.5428 21.6541C60.1871 21.7266 59.8271 21.7841 59.4693 21.8481C59.1392 21.9078 58.809 21.9674 58.3064 22.0591C58.6131 22.2979 58.8112 22.4407 58.9965 22.5984C59.9592 23.4319 61.0092 24.1844 61.8591 25.1181C64.7323 28.2751 64.6961 32.2038 61.8378 35.3863C59.4949 37.9955 56.4746 39.5452 53.2691 40.7752C49.1477 42.3569 44.8601 43.2394 40.4853 43.7574C35.7888 44.3138 31.0838 44.4097 26.3788 44.0324C19.629 43.491 13.0369 42.2674 6.96664 39.055C4.97303 37.9998 3.15408 36.6973 1.75472 34.8982C-0.684048 31.7625 -0.573292 28.2154 2.02309 25.214C3.86973 23.0802 6.22543 21.6711 8.74939 20.5115C9.42245 20.2024 10.0423 20.4582 10.317 21.0721C10.5833 21.6669 10.3234 22.1998 9.65248 22.6112C7.99753 23.628 6.28933 24.5809 4.73448 25.7341C3.44162 26.6934 2.52149 28.0363 2.32554 29.7054C2.10615 31.5706 2.97729 33.0372 4.23182 34.2992C6.35536 36.4287 9.00498 37.6992 11.7718 38.7331C15.9571 40.2977 20.3064 41.1355 24.743 41.5917C29.1328 42.0414 33.5268 42.0926 37.9166 41.7153C44.219 41.1738 50.3767 40.01 56.0423 37.0043C57.7079 36.1218 59.2414 35.0517 60.4256 33.5488C62.1466 31.366 62.1296 29.002 60.3639 26.849C59.2819 25.5295 57.9464 24.5255 56.2702 23.6131L56.2744 23.6174Z" fill="#124ABB"/>
<path d="M41.0898 23.502C41.0898 27.1195 41.0919 30.7391 41.0898 34.3565C41.0898 35.5865 40.7405 35.9318 39.52 35.934C37.8289 35.9361 36.1377 35.9382 34.4487 35.934C33.4072 35.9297 32.9833 35.5161 32.9833 34.4631C32.9769 27.1493 32.9769 19.8355 32.9833 12.5196C32.9833 11.4666 33.3965 11.0701 34.4615 11.0658C36.2038 11.0573 37.9482 11.0552 39.6904 11.0658C40.7128 11.0722 41.0898 11.4516 41.0898 12.4919C41.0962 16.1626 41.0919 19.8313 41.0919 23.502H41.0898Z" fill="#124ABB"/>
<path d="M20.8986 26.848C20.8986 29.3719 20.9007 31.8979 20.8986 34.4218C20.8986 35.5346 20.5067 35.9311 19.4098 35.9353C17.6675 35.9396 15.9252 35.9438 14.1829 35.9353C13.2181 35.9311 12.7963 35.5175 12.7942 34.5646C12.79 29.438 12.79 24.3113 12.7942 19.1846C12.7942 18.2168 13.1968 17.8011 14.1595 17.7947C15.955 17.782 17.7484 17.782 19.5439 17.7947C20.5003 17.8033 20.8964 18.2211 20.8986 19.1995C20.905 21.749 20.9007 24.3006 20.9007 26.8501L20.8986 26.848Z" fill="#124ABB"/>
<path d="M2.30615 59.7549C2.30615 56.6555 2.32745 53.556 2.29124 50.4587C2.28272 49.7254 2.51701 49.508 3.23054 49.5378C4.45098 49.589 5.67782 49.5762 6.89827 49.5421C7.48826 49.525 7.66078 49.7574 7.66078 50.3201C7.648 56.6214 7.648 62.9247 7.66078 69.226C7.66078 69.8079 7.44779 70.0083 6.88123 69.9976C5.63309 69.972 4.38283 69.9614 3.13469 70.0019C2.47228 70.0232 2.29124 69.761 2.2955 69.13C2.31893 66.005 2.30615 62.88 2.30615 59.7549Z" fill="#124ABB"/>
</g>
<defs>
<clipPath id="clip0_387_879">
<rect width="64" height="70" fill="white"/>
</clipPath>
</defs>
</svg>
