<svg width="39" height="52" viewBox="0 0 39 52" fill="none" xmlns="http://www.w3.org/2000/svg">
<g clip-path="url(#clip0_1050_991)">
<g clip-path="url(#clip1_1050_991)">
<path d="M-3.44531 38.4172V7.49609H41.7471V38.4233H-3.44531V38.4172ZM31.5672 17.0829C31.0406 18.015 30.6291 18.8562 30.1086 19.6309C27.9782 22.8326 24.9762 25.0175 21.6172 26.7545C15.1413 30.0953 8.16298 31.681 0.984964 32.5223C0.31316 32.601 -0.116553 33.0065 -0.05603 33.5512C0.00449276 34.1141 0.500781 34.459 1.15443 34.3925C4.83422 34.0112 8.45954 33.3696 12.0304 32.4134C16.5454 31.209 20.9031 29.5991 24.8612 27.0753C28.6197 24.6785 31.7003 21.6706 33.3526 17.4097C33.4131 17.2584 33.6855 17.1011 33.8671 17.095C34.5752 17.0587 35.2833 17.089 35.9914 17.0769C36.9235 17.0648 37.335 16.3748 36.875 15.5577C35.8764 13.7965 34.8657 12.0474 33.8428 10.3044C33.3889 9.53572 32.5416 9.51151 32.0937 10.2741C31.0406 12.0474 30.0117 13.8328 29.001 15.6304C28.5774 16.3869 29.001 17.0587 29.8847 17.0769C30.3749 17.089 30.8651 17.0769 31.5672 17.0769V17.0829ZM36.8024 24.8783C36.409 24.4486 36.1367 24.1157 35.8219 23.8191C35.3801 23.4015 34.8294 23.4015 34.4602 23.7828C34.0849 24.1641 34.097 24.6967 34.5268 25.1446C34.8354 25.4653 35.1804 25.7437 35.5677 26.0887C35.1622 26.464 34.8415 26.7303 34.557 27.0268C34.097 27.505 34.0728 28.0376 34.4662 28.437C34.8475 28.8183 35.4104 28.7941 35.8764 28.3402C36.179 28.0436 36.4453 27.7107 36.7782 27.3416C37.1535 27.7471 37.4198 28.0618 37.7163 28.3462C38.1823 28.7941 38.7452 28.8183 39.1265 28.437C39.5017 28.0557 39.4715 27.4808 39.0297 27.0268C38.7331 26.7242 38.4123 26.4519 38.025 26.0948C38.4426 25.7195 38.7876 25.4472 39.0781 25.1385C39.4715 24.7209 39.4654 24.1823 39.1144 23.8191C38.7513 23.4439 38.1763 23.4378 37.7466 23.8433C37.4319 24.1399 37.1656 24.4788 36.7964 24.8843L36.8024 24.8783ZM5.69365 16.1327C5.26999 16.514 4.97948 16.744 4.71923 17.0103C4.20478 17.5308 4.15636 18.0331 4.56792 18.4568C4.97342 18.8744 5.54839 18.832 6.05678 18.3055C6.32308 18.0271 6.52886 17.6882 6.80727 17.319C7.27935 17.8274 7.55775 18.1602 7.87247 18.4568C8.30824 18.8683 8.8711 18.8562 9.23424 18.4689C9.59737 18.0876 9.59737 17.5792 9.19187 17.1555C8.8832 16.8348 8.52612 16.5564 8.04799 16.1327C8.4777 15.7756 8.81663 15.5396 9.10714 15.2491C9.59737 14.7649 9.61553 14.1899 9.20397 13.8026C8.78637 13.4152 8.29613 13.4576 7.79984 13.9297C7.49118 14.2202 7.19461 14.5168 6.83148 14.8617C6.49255 14.4925 6.21414 14.1536 5.89942 13.8571C5.43945 13.4273 4.925 13.4273 4.53766 13.8268C4.16847 14.2081 4.18057 14.7528 4.61029 15.1886C4.9129 15.4912 5.25788 15.7514 5.69365 16.1267V16.1327ZM19.3779 20.1333C19.7834 20.569 20.0678 20.9019 20.3765 21.1985C20.8183 21.6221 21.363 21.6282 21.7383 21.2408C22.1135 20.8595 22.1075 20.3088 21.6777 19.8851C21.363 19.5704 20.9938 19.3102 20.5641 18.9591C21.0301 18.5415 21.3509 18.2873 21.6354 17.9908C22.0954 17.5126 22.1075 16.9861 21.6898 16.5927C21.3146 16.2356 20.7578 16.2538 20.322 16.6774C20.0194 16.974 19.741 17.3008 19.3779 17.6882C19.0087 17.2766 18.7363 16.9437 18.4277 16.6472C18.0222 16.2598 17.4714 16.2598 17.1083 16.6048C16.7149 16.98 16.7088 17.5187 17.1325 17.9605C17.429 18.2692 17.774 18.5355 18.2279 18.9349C17.7861 19.3102 17.423 19.5765 17.1083 19.8972C16.6967 20.3209 16.7028 20.8232 17.0659 21.2106C17.429 21.5919 18.004 21.5979 18.4277 21.1864C18.7363 20.8898 19.0026 20.5448 19.3658 20.1393L19.3779 20.1333ZM24.1531 33.1699C23.7053 33.5391 23.3845 33.763 23.1061 34.0354C22.5977 34.5377 22.5614 35.0643 22.9729 35.4758C23.3724 35.8753 23.9231 35.8269 24.4255 35.3487C24.716 35.0703 25.0005 34.7919 25.3333 34.4712C25.6844 34.8464 25.9628 35.1732 26.2775 35.4698C26.689 35.8571 27.2398 35.8632 27.5969 35.5121C27.9963 35.1248 28.0084 34.6043 27.5727 34.1564C27.264 33.8357 26.9009 33.5573 26.4288 33.1396C26.7193 32.9339 26.913 32.8249 27.0764 32.6857C27.2398 32.5465 27.3911 32.3892 27.5364 32.2258C27.96 31.7597 27.9721 31.2574 27.5908 30.864C27.2216 30.4887 26.6588 30.4887 26.2291 30.9124C25.9204 31.215 25.6662 31.56 25.3212 31.9594C24.9218 31.5358 24.6434 31.209 24.3347 30.9124C23.8989 30.4948 23.3421 30.4827 22.9669 30.8579C22.5795 31.2453 22.5795 31.7718 23.0153 32.2136C23.3179 32.5163 23.6689 32.7705 24.141 33.1639L24.1531 33.1699Z" fill="#124ABB"/>
<path d="M-7.72461 5.55399V3.30859H46.0318V5.55399H-7.72461Z" fill="#124ABB"/>
<path d="M4.80273 50.5026V40.3711H7.07839V50.5026H4.80273Z" fill="#124ABB"/>
<path d="M31.2461 40.3555H33.5036V50.5112H31.2461V40.3555Z" fill="#124ABB"/>
<path d="M31.4221 15.1726C31.9486 14.2708 32.4267 13.4356 32.9594 12.5156C33.492 13.4356 33.9761 14.2708 34.4966 15.1726H31.416H31.4221Z" fill="#124ABB"/>
</g>
</g>
<defs>
<clipPath id="clip0_1050_991">
<rect width="38.4371" height="51.3883" fill="white"/>
</clipPath>
<clipPath id="clip1_1050_991">
<rect width="53.7564" height="51.39" fill="white" transform="translate(-7.72461 3.30859)"/>
</clipPath>
</defs>
</svg>
