<svg width="88" height="70" viewBox="0 0 88 70" fill="none" xmlns="http://www.w3.org/2000/svg">
<g clip-path="url(#clip0_387_903)">
<path d="M33.8632 20.4102C44.6355 20.4102 55.4052 20.4102 66.1775 20.4102C67.6435 20.4102 67.7777 20.5442 67.7777 22.0384C67.7777 37.4531 67.7777 52.8678 67.7777 68.2826C67.7777 69.8279 67.6045 69.9986 66.0433 69.9986C44.5915 69.9986 23.1398 69.9986 1.69048 69.9986C0.195149 69.9986 0 69.806 0 68.3362C0 52.9215 0 37.5068 0 22.092C0 20.5223 0.11465 20.4126 1.73195 20.4126C12.4432 20.4126 23.152 20.4126 33.8632 20.4126V20.4102ZM19.6076 48.6656C26.228 48.6802 31.6727 43.2592 31.7093 36.6195C31.7483 29.9798 26.3744 24.5783 19.6881 24.5295C12.992 24.4832 7.53763 29.8945 7.54251 36.5829C7.54739 43.2154 12.975 48.651 19.6076 48.6632V48.6656ZM33.7583 59.8074C25.1449 59.8074 16.534 59.8074 7.92061 59.8074C7.6474 59.8074 7.37175 59.7903 7.09854 59.8171C6.39357 59.8854 5.97156 60.2998 5.92521 60.9896C5.87642 61.6843 6.25209 62.1498 6.93999 62.2985C7.23271 62.3619 7.54495 62.3497 7.84743 62.3497C25.1328 62.3497 42.4181 62.3521 59.7034 62.3497C60.0644 62.3497 60.5279 62.418 60.7645 62.2278C61.1475 61.9207 61.6622 61.3918 61.611 61.0261C61.5524 60.5874 60.9963 60.1755 60.5816 59.844C60.4132 59.7099 60.0522 59.8098 59.7766 59.8098C51.1022 59.8098 42.4303 59.8098 33.7559 59.8098L33.7583 59.8074ZM33.7315 55.4711C35.5269 55.4711 37.3222 55.4711 39.1176 55.4711C46.1161 55.4711 53.1147 55.4711 60.1108 55.4687C61.0865 55.4687 61.6915 54.9714 61.6842 54.2158C61.6768 53.4772 61.1207 53.0092 60.1839 52.9629C60.0327 52.9556 59.879 52.9605 59.7278 52.9605C42.4449 52.9605 25.1645 52.9605 7.88158 52.9629C7.54739 52.9629 7.20832 52.9678 6.88388 53.0312C6.21306 53.1628 5.89594 53.643 5.92521 54.2816C5.95448 54.9178 6.31307 55.3663 6.98877 55.4492C7.31809 55.4906 7.65716 55.4711 7.99135 55.4711C16.5706 55.4711 25.1523 55.4711 33.7315 55.4711ZM48.6482 34.9815C52.3292 34.9815 56.0102 34.9815 59.6912 34.9791C60.0229 34.9791 60.3645 34.9791 60.6865 34.9084C61.3378 34.7646 61.6964 34.2941 61.6671 33.6604C61.6378 32.9876 61.2304 32.5416 60.5255 32.4489C60.2864 32.4173 60.04 32.4343 59.7961 32.4343C52.3731 32.4343 44.9526 32.4343 37.5296 32.4343C37.2564 32.4343 36.8954 32.3368 36.727 32.4709C36.3123 32.8024 35.7562 33.2143 35.6976 33.6531C35.6488 34.0187 36.1684 34.533 36.5441 34.8548C36.7514 35.0327 37.1832 34.9766 37.5125 34.9766C41.2228 34.9839 44.9355 34.9815 48.6458 34.9815H48.6482ZM48.7019 46.1184C44.9306 46.1184 41.1594 46.1184 37.3857 46.1184C36.2636 46.1184 35.6269 46.5815 35.6269 47.381C35.6269 48.1952 36.2538 48.651 37.3857 48.6632C37.4467 48.6632 37.5076 48.6632 37.5686 48.6632C44.9599 48.6632 52.3512 48.6632 59.7424 48.6583C60.1035 48.6583 60.5694 48.7144 60.7987 48.5218C61.1743 48.2074 61.6403 47.6906 61.611 47.2933C61.5793 46.8862 61.0328 46.4767 60.6377 46.1623C60.4669 46.0258 60.1083 46.116 59.8351 46.116C56.1248 46.116 52.4121 46.116 48.7019 46.116V46.1184ZM48.6336 28.1029C52.3438 28.1029 56.0517 28.1029 59.7619 28.1029C61.0572 28.1029 61.7037 27.6739 61.6842 26.8305C61.6646 25.9774 61.0597 25.5923 59.7156 25.5923C53.9685 25.5923 48.2213 25.5923 42.4742 25.5923C40.7398 25.5923 39.0054 25.5557 37.2759 25.6166C36.8075 25.6337 36.2294 25.8263 35.9245 26.148C35.6928 26.3918 35.6245 27.1133 35.8172 27.3643C36.1001 27.7324 36.6783 28.0639 37.1369 28.0712C40.9667 28.1248 44.7989 28.1029 48.6311 28.1029H48.6336ZM48.6263 41.787C52.3365 41.787 56.0444 41.787 59.7546 41.787C61.0572 41.787 61.6988 41.3653 61.6866 40.5244C61.6744 39.6712 61.0597 39.2764 59.7253 39.2764C53.9172 39.2764 48.1091 39.2764 42.3034 39.2764C40.63 39.2764 38.9566 39.2398 37.2881 39.3007C36.8197 39.3178 36.2416 39.5079 35.9342 39.8272C35.7001 40.071 35.6269 40.7901 35.8196 41.0436C36.1001 41.4116 36.6783 41.748 37.1344 41.7553C40.9642 41.8114 44.7965 41.787 48.6287 41.787H48.6263Z" fill="#124ABB"/>
<path d="M70.3152 59.7952V58.5472C70.3152 46.3256 70.2761 34.104 70.3469 21.8848C70.3615 19.3644 68.6613 17.8191 66.2902 17.8239C47.9755 17.8654 29.6607 17.8459 11.3436 17.8459C10.9557 17.8459 10.5679 17.8459 10.0873 17.8459C10.0873 15.5473 10.0483 13.3365 10.1312 11.1306C10.1434 10.8137 10.702 10.4627 11.0704 10.2311C11.268 10.1068 11.6046 10.2043 11.8778 10.2043C33.2954 10.2043 54.7154 10.2043 76.133 10.2043C77.7381 10.2043 77.9235 10.3847 77.9235 11.9618C77.9235 27.3131 77.9235 42.6669 77.9235 58.0182C77.9235 59.6051 77.7333 59.7927 76.1501 59.7952C74.2401 59.7952 72.3325 59.7952 70.3127 59.7952H70.3152Z" fill="#124ABB"/>
<path d="M20.2276 7.66826C20.2276 5.35752 20.2252 3.20033 20.2276 1.04315C20.2276 0.367962 20.6277 0.0608379 21.2595 0.012088C21.5327 -0.00984947 21.8059 0.0047755 22.0816 0.0047755C43.4382 0.0047755 64.7948 0.0047755 86.1514 0.0047755C87.8809 0.0047755 88.0005 0.12665 88.0005 1.87677C88.0005 17.2281 88.0005 32.5795 88.0005 47.9333C88.0005 49.4518 87.8565 49.5956 86.3392 49.5956C84.4 49.5956 82.4631 49.5956 80.4311 49.5956C80.4311 49.1008 80.4311 48.7108 80.4311 48.3233C80.4311 36.1626 80.4311 24.0044 80.4336 11.8437C80.4336 10.8589 80.3799 9.90101 79.7408 9.07714C78.948 8.05582 77.8795 7.6707 76.6257 7.6707C72.6398 7.67557 68.6539 7.6707 64.6704 7.6707C50.2489 7.6707 35.8298 7.6707 21.4083 7.6707C21.0497 7.6707 20.6936 7.6707 20.2276 7.6707V7.66826Z" fill="#124ABB"/>
<path d="M18.3802 27.2379C18.3802 29.2342 18.3802 31.233 18.3802 33.2317C18.3802 34.2335 18.3728 35.2353 18.3826 36.2371C18.3972 37.4413 18.7607 37.8264 19.9682 37.8337C22.6417 37.8508 25.3177 37.8386 27.9912 37.8386C28.3157 37.8386 28.6401 37.8386 28.9621 37.8386C29.0133 42.0311 24.3615 46.1041 19.6584 46.1114C14.3625 46.1187 10.018 41.7581 10.0668 36.4785C10.1083 31.796 14.243 27.1526 18.3802 27.2355V27.2379Z" fill="#124ABB"/>
<path d="M20.9219 35.2693V27.2305C24.6273 27.228 28.984 31.5741 28.9742 35.2693H20.9219Z" fill="#124ABB"/>
</g>
<defs>
<clipPath id="clip0_387_903">
<rect width="88" height="70" fill="white"/>
</clipPath>
</defs>
</svg>
