<svg width="35" height="40" viewBox="0 0 35 40" fill="none" xmlns="http://www.w3.org/2000/svg">
<g clip-path="url(#clip0_325_7404)">
<path d="M15.7958 0C16.4538 0.408594 16.556 0.664844 16.3516 1.42578C15.0851 6.14062 13.8265 10.8578 12.5341 15.5648C12.4139 16.0031 12.5577 16.2141 12.8219 16.4922C13.1119 16.7984 13.3431 16.9156 13.7809 16.7086C14.4987 16.3687 15.2848 16.282 16.0812 16.4117C16.6637 16.507 17.1833 16.7352 17.6031 17.157C18.8428 18.4008 19.3467 19.8422 18.809 21.5703C18.6589 22.0531 18.5166 22.543 18.4246 23.0391C18.2509 23.9781 18.4576 24.8227 19.1738 25.5008C19.2768 25.5984 19.4128 25.6617 19.4843 25.7086C16.7729 28.4039 14.1363 31.025 11.4548 33.6906C10.7182 32.5398 9.33146 32.2609 8.26468 31.4352C7.93372 32.6617 7.61691 33.8398 7.29853 35.0164C7.25765 35.1664 7.21991 35.3195 7.16096 35.4625C6.96442 35.9375 6.48174 36.1609 6.00535 36.0078C5.54861 35.8609 5.26874 35.3711 5.39531 34.8898C5.77894 33.4336 6.16965 31.9789 6.569 30.5273C6.63504 30.2875 6.59494 30.1422 6.40627 29.9578C4.45196 28.0531 2.4945 26.1516 0.577132 24.2109C-0.513228 23.1078 0.0213393 21.2367 1.51027 20.7789C1.64627 20.7375 1.78541 20.707 1.9222 20.6711C1.64784 19.0789 2.16118 18.2766 3.78925 17.8023C3.67605 17.1875 3.70592 16.5789 4.0754 16.0297C4.44724 15.4766 4.97552 15.1758 5.63823 15.075C5.63823 14.7078 5.58791 14.343 5.64845 13.9961C5.78916 13.1859 6.28206 12.632 7.06819 12.3797C7.8724 12.1219 8.59721 12.3172 9.20646 12.8906C9.70094 13.3562 10.1734 13.8438 10.6569 14.3211C10.7103 14.3742 10.7716 14.4195 10.8762 14.5086C11.1081 13.6625 11.3314 12.8578 11.5483 12.0516C12.5514 8.32891 13.5553 4.60625 14.5506 0.88125C14.6583 0.477344 14.8564 0.171094 15.2463 0H15.7966L15.7958 0Z" fill="#124ABB"/>
<path d="M15.8742 39.9977C15.4222 39.6774 14.9324 39.3977 14.5276 39.0266C13.7674 38.3305 13.0449 37.5922 12.3311 36.8485C12.0922 36.5993 11.8697 36.3055 11.7353 35.9915C11.5041 35.4485 11.5875 34.9391 12.0379 34.4938C14.7674 31.7954 17.4874 29.0876 20.2121 26.3844C20.7097 25.8907 21.2215 25.7969 21.8535 26.1133C22.1059 26.2399 22.3464 26.4149 22.5492 26.6118C23.4022 27.4391 24.2496 28.2719 25.0743 29.1258C25.3133 29.3735 25.5153 29.679 25.6544 29.993C25.8856 30.5149 25.7865 31.0047 25.3659 31.4212C22.6121 34.1508 19.863 36.8844 17.1069 39.6118C16.9544 39.7626 16.7578 39.8688 16.5817 39.9962H15.8742V39.9977Z" fill="#124ABB"/>
<path d="M17.4835 0.734375C18.0566 0.911719 18.706 1.0625 19.3144 1.31094C21.3088 2.12266 23.2859 2.97422 25.2741 3.80078C27.171 4.58906 29.1017 5.28516 31.1614 5.49844C32.0937 5.59453 33.0402 5.55781 33.9804 5.57578C34.1628 5.57891 34.3593 5.50938 34.526 5.55547C34.7029 5.60469 34.9419 5.72266 34.989 5.86484C35.037 6.01016 34.9379 6.28203 34.8098 6.39141C34.1557 6.95156 33.4718 7.47812 32.7981 8.01562C31.7478 8.85391 30.6976 9.69141 29.63 10.5437C30.2817 11.8953 30.9247 13.2281 31.5678 14.5609C31.7824 15.0062 32.0041 15.4484 32.2101 15.8969C32.4019 16.3148 32.2612 16.5883 31.8044 16.6477C29.8556 16.9008 27.9241 16.7469 26.0555 16.1836C24.447 15.6992 22.8638 15.1125 21.3065 14.482C19.0707 13.5766 16.9191 12.4625 14.5049 11.843C15.4946 8.15078 16.4812 4.47422 17.4843 0.734375H17.4835Z" fill="#124ABB"/>
</g>
<defs>
<clipPath id="clip0_325_7404">
<rect width="35" height="40" fill="white"/>
</clipPath>
</defs>
</svg>
