<svg width="39" height="40" viewBox="0 0 39 40" fill="none" xmlns="http://www.w3.org/2000/svg">
<g clip-path="url(#clip0_320_7108)">
<path d="M23.8916 23.1128H15.1088V22.6774C15.1088 20.6775 15.1023 18.6775 15.1153 16.6776C15.1175 16.3415 15.0319 16.1015 14.7872 15.8593C13.0818 14.1681 11.3947 12.4595 9.70121 10.7574C9.19553 10.249 9.04285 9.64015 9.25617 8.9615C9.47273 8.27303 9.97625 7.88569 10.6747 7.78531C11.2648 7.70021 11.7564 7.9337 12.1711 8.35267C13.4618 9.65324 14.7493 10.9549 16.053 12.2413C16.1873 12.3744 16.419 12.4748 16.6064 12.4769C18.5414 12.4944 20.4753 12.4933 22.4103 12.4769C22.5868 12.4759 22.8055 12.3842 22.9311 12.2598C24.1385 11.0684 25.3361 9.86818 26.5218 8.6549C26.9668 8.19992 27.4205 7.7864 28.1276 7.75258V7.28342C28.1276 5.18855 28.1276 3.09259 28.1276 0.997719C28.1276 0.875518 28.1211 0.751135 28.1373 0.631116C28.185 0.271061 28.4514 0.0135664 28.7751 0.000473479C29.113 -0.0126195 29.4465 0.247057 29.4432 0.626752C29.44 0.982444 29.6176 1.12319 29.8774 1.27049C30.5834 1.67091 31.2818 2.08334 31.9803 2.49904C32.3701 2.73144 32.3712 2.90274 31.9824 3.13405C31.2385 3.57594 30.4925 4.01673 29.7388 4.44116C29.5353 4.55572 29.4616 4.68883 29.4638 4.92123C29.4746 5.99595 29.4649 7.07066 29.4735 8.14537C29.4746 8.28721 29.5104 8.44214 29.5753 8.56762C30.0149 9.42302 29.9153 10.1377 29.231 10.8272C27.5396 12.5326 25.8482 14.2369 24.1482 15.9335C23.9587 16.1222 23.8873 16.311 23.8883 16.575C23.8981 18.6023 23.8938 20.6295 23.8938 22.6567C23.8938 22.8018 23.8938 22.948 23.8938 23.115L23.8916 23.1128Z" fill="#124ABB"/>
<path d="M31.966 40.0019C29.8274 40.0019 27.6888 40.0019 25.5514 40.0019C24.9092 40.0019 24.7825 39.8404 24.9255 39.2097C25.6802 35.8623 28.5443 33.5536 31.9422 33.5547C35.3271 33.5558 38.2041 35.8809 38.9545 39.2217C39.0877 39.812 38.9404 40.0008 38.3406 40.0008C36.2161 40.0008 34.0905 40.0008 31.966 40.0008V40.0019Z" fill="#124ABB"/>
<path d="M7.04054 40.0011C4.91604 40.0011 2.79155 40.0011 0.665966 40.0011C0.0628345 40.0011 -0.0865949 39.8134 0.0433437 39.2275C0.787242 35.8582 3.71844 33.5255 7.17481 33.555C10.5294 33.5833 13.4281 35.9935 14.1081 39.3213C14.2077 39.8068 14.0496 40 13.5364 40.0011C11.3707 40.0032 9.20618 40.0011 7.04054 40.0021V40.0011Z" fill="#124ABB"/>
<path d="M15.4528 39.9799C15.4181 38.6172 14.9482 37.4159 14.2671 36.2899C14.1371 36.0749 14.1404 35.9549 14.3125 35.7694C17.051 32.8159 21.9605 32.817 24.6914 35.7694C24.8636 35.956 24.869 36.0771 24.7347 36.2888C24.1543 37.2031 23.7818 38.2047 23.5956 39.2729C23.5566 39.4966 23.5653 39.7279 23.5501 39.9788H15.4528V39.9799Z" fill="#124ABB"/>
<path d="M19.4864 32.7308C17.4961 32.7265 15.8437 31.0506 15.86 29.0517C15.8751 27.0671 17.5221 25.4195 19.495 25.4141C21.4809 25.4086 23.1452 27.0823 23.142 29.0801C23.1387 31.0855 21.4863 32.7352 19.4864 32.7308Z" fill="#124ABB"/>
<path d="M31.9151 32.7308C29.9433 32.7254 28.3049 31.0768 28.293 29.0877C28.2811 27.0965 29.9476 25.4152 31.9346 25.4141C33.9248 25.4141 35.5772 27.0812 35.5728 29.0844C35.5674 31.092 33.9183 32.7363 31.9162 32.7297L31.9151 32.7308Z" fill="#124ABB"/>
<path d="M7.05884 32.7309C5.06429 32.7276 3.42165 31.0648 3.42923 29.0572C3.43789 27.0736 5.08053 25.4228 7.0556 25.4141C9.04041 25.4054 10.709 27.0769 10.709 29.0747C10.709 31.0779 9.05557 32.733 7.05776 32.7309H7.05884Z" fill="#124ABB"/>
<path d="M19.4788 5.10947C21.0933 5.09638 22.4111 6.39585 22.4197 8.01065C22.4284 9.64945 21.116 10.9871 19.5005 10.9882C17.9206 10.9893 16.5942 9.67345 16.5812 8.09248C16.5671 6.4395 17.8459 5.12257 19.4799 5.10947H19.4788Z" fill="#124ABB"/>
</g>
<defs>
<clipPath id="clip0_320_7108">
<rect width="39" height="40" fill="white"/>
</clipPath>
</defs>
</svg>
