<svg width="32" height="32" viewBox="0 0 32 32" fill="none" xmlns="http://www.w3.org/2000/svg">
<g clip-path="url(#clip0_314_6792)">
<path d="M22.8959 0H9.10408C4.07603 0 0 4.07603 0 9.10408V22.8959C0 27.924 4.07603 32 9.10408 32H22.8959C27.924 32 32 27.924 32 22.8959V9.10408C32 4.07603 27.924 0 22.8959 0Z" fill="#337FFF"/>
<path d="M19.9151 17.0411L20.371 14.1442H17.5625V12.2613C17.5625 11.4692 17.9545 10.6952 19.2084 10.6952H20.5033V8.22833C19.7492 8.10809 18.9872 8.04304 18.2236 8.03369C15.912 8.03369 14.4028 9.42328 14.4028 11.9354V14.1442H11.8405V17.0411H14.4028V24.048H17.5625V17.0411H19.9151Z" fill="white"/>
</g>
<defs>
<clipPath id="clip0_314_6792">
<rect width="32" height="32" fill="white"/>
</clipPath>
</defs>
</svg>
