<svg width="41" height="40" viewBox="0 0 41 40" fill="none" xmlns="http://www.w3.org/2000/svg">
<g clip-path="url(#clip0_325_7420)">
<path d="M31.0521 29.362C31.9498 30.3456 32.8029 31.2814 33.6457 32.2059C34.3193 31.7163 34.6234 31.7323 35.1426 32.2332C36.6601 33.6961 38.1765 35.1602 39.6917 36.6265C40.2578 37.1741 40.2612 37.543 39.7169 38.1065C39.232 38.6086 38.7483 39.1107 38.2577 39.607C37.7465 40.1239 37.3474 40.1319 36.8248 39.6298C35.3153 38.1794 33.8092 36.7244 32.3032 35.2706C31.7165 34.7037 31.6856 34.4851 32.0173 33.9181C31.1596 32.9812 30.326 32.0704 29.4774 31.1437C27.1377 33.0017 24.5681 33.6847 21.7127 33.0779C19.5513 32.618 17.7914 31.4772 16.4752 29.7081C13.7992 26.1094 14.2121 21.1707 17.4266 18.0673C20.5897 15.0128 25.5951 14.7429 29.068 17.4047C32.5387 20.0641 33.8447 25.2259 31.0521 29.3643V29.362ZM23.627 31.2666C27.4247 31.2689 30.5158 28.2269 30.5261 24.4745C30.5364 20.6573 27.4693 17.5948 23.6327 17.5914C19.8247 17.588 16.7336 20.6482 16.729 24.4256C16.7245 28.1985 19.8155 31.2644 23.6258 31.2666H23.627Z" fill="#124ABB"/>
<path d="M13.4827 26.1179H12.9772C9.03536 26.1179 5.09237 26.1179 1.15052 26.1179C0.164775 26.1179 -0.159995 25.7024 0.0721469 24.7438C1.08991 20.528 4.71614 17.3859 9.07653 16.9214C11.3362 16.68 13.4346 17.1468 15.4404 18.2602C13.7091 20.6089 13.0767 23.2148 13.4827 26.119V26.1179Z" fill="#124ABB"/>
<path d="M10.1902 15.9998C7.27299 15.9963 4.88638 13.6204 4.90811 10.7423C4.93098 7.87225 7.31415 5.51449 10.1936 5.51563C13.096 5.51563 15.4906 7.91096 15.4677 10.7879C15.4449 13.6818 13.0948 16.002 10.1902 15.9986V15.9998Z" fill="#124ABB"/>
<path d="M41 11.5267C41 13.5566 41 15.5876 41 17.6175C41 18.4121 40.7942 18.6102 39.9788 18.6114C39.5363 18.6114 39.0926 18.6193 38.65 18.6091C38.1045 18.5954 37.8301 18.3279 37.8301 17.7883C37.8255 13.6135 37.8255 9.43875 37.8301 5.26514C37.8301 4.71184 38.0851 4.46821 38.65 4.4591C39.1646 4.45113 39.6792 4.45113 40.1938 4.4591C40.7656 4.46821 40.9989 4.6959 41 5.26514C41.0046 7.35194 41.0023 9.43989 41.0023 11.5267H41Z" fill="#124ABB"/>
<path d="M37.5408 1.56417C37.0548 1.45943 36.8009 1.21921 36.8272 0.782041C36.8512 0.388132 37.168 0.178654 37.6963 0.141085C38.1938 0.105793 38.6912 0.060254 39.1887 0.00788452C39.8165 -0.0581465 40.1778 0.294778 40.1024 0.908411C40.0349 1.45715 39.9686 2.00589 39.908 2.55463C39.8657 2.9383 39.6781 3.20811 39.2836 3.25593C38.9085 3.30147 38.6683 3.08857 38.5334 2.75045C38.5185 2.71402 38.4877 2.68328 38.5163 2.72313C37.1417 4.05058 35.7408 5.36778 34.3869 6.73053C33.934 7.18591 33.5269 7.30659 32.9105 7.09142C31.3393 6.54382 29.744 6.06339 28.1625 5.54197C27.9166 5.46114 27.7474 5.49415 27.545 5.6524C25.9177 6.92407 24.2812 8.18321 22.6482 9.44691C22.5247 9.54254 22.4047 9.64386 22.2754 9.73266C21.9221 9.97401 21.5115 9.92961 21.2817 9.6302C21.0473 9.32509 21.0999 8.91638 21.4338 8.64998C22.0353 8.17068 22.6482 7.70619 23.2566 7.236C24.5408 6.24212 25.8296 5.25394 27.1058 4.25209C27.4157 4.00959 27.7142 3.94584 28.095 4.07221C29.7292 4.61526 31.3702 5.13212 33.0054 5.67289C33.2673 5.75941 33.4343 5.72981 33.6355 5.52375C34.8397 4.29193 36.0622 3.07833 37.2766 1.85675C37.3544 1.77934 37.4242 1.69395 37.5408 1.56417Z" fill="#124ABB"/>
<path d="M31.9795 14.2395C31.9795 13.0623 31.9772 11.8851 31.9795 10.708C31.9818 10.1319 32.2311 9.88144 32.8109 9.87348C33.3243 9.86664 33.8389 9.86323 34.3524 9.87461C34.8704 9.886 35.1437 10.1581 35.1449 10.6727C35.1506 13.0555 35.1506 15.4383 35.1449 17.8211C35.1437 18.3311 34.867 18.601 34.3444 18.6135C33.8161 18.626 33.2877 18.6271 32.7606 18.6135C32.2368 18.5998 31.9829 18.3357 31.9807 17.8131C31.9761 16.6223 31.9795 15.4303 31.9795 14.2395Z" fill="#124ABB"/>
<path d="M29.282 15.7536C28.2528 15.3461 27.2636 14.9613 26.2825 14.5582C26.1967 14.523 26.1029 14.3772 26.1018 14.2827C26.0915 12.624 26.0858 10.9652 26.1018 9.3065C26.1063 8.83062 26.3922 8.58813 26.8691 8.58244C27.3974 8.57561 27.9246 8.57788 28.4529 8.58244C29.0167 8.58699 29.2546 8.81582 29.2786 9.3805C29.2889 9.62072 29.2809 9.86207 29.2809 10.1034C29.2809 11.8476 29.2809 13.5917 29.2809 15.3358V15.7559L29.282 15.7536Z" fill="#124ABB"/>
<path d="M20.2376 14.7011C20.2376 14.2092 20.2296 13.7003 20.2399 13.1915C20.249 12.7588 20.4789 12.4879 20.9134 12.4663C21.5241 12.4378 22.1382 12.4378 22.7488 12.4697C23.1708 12.4913 23.3881 12.752 23.4007 13.1653C23.411 13.5034 23.403 13.8415 23.403 14.1432C22.3349 14.3311 21.3057 14.5132 20.2364 14.7011H20.2376Z" fill="#124ABB"/>
<path d="M22.6505 24.9822C23.7437 23.9257 24.7901 22.9216 25.8273 21.9083C26.4665 21.2833 27.0577 21.1934 27.5323 21.6715C28.0046 22.1474 27.9291 22.7053 27.3036 23.3348C26.08 24.5667 24.8575 25.7996 23.6316 27.028C22.9889 27.6724 22.4721 27.6724 21.8317 27.0371C21.1341 26.3461 20.432 25.6596 19.7458 24.9571C19.3959 24.5985 19.3433 24.0851 19.5743 23.7048C19.8076 23.32 20.2753 23.1106 20.719 23.2529C20.9385 23.3235 21.1478 23.476 21.3171 23.6377C21.7802 24.0783 22.2193 24.5439 22.6505 24.9822Z" fill="#124ABB"/>
</g>
<defs>
<clipPath id="clip0_325_7420">
<rect width="41" height="40" fill="white"/>
</clipPath>
</defs>
</svg>
