<svg width="39" height="40" viewBox="0 0 39 40" fill="none" xmlns="http://www.w3.org/2000/svg">
<g clip-path="url(#clip0_325_7436)">
<path d="M21.6442 19.7377C18.2223 23.6287 17.332 27.909 19.408 32.6725C20.3347 34.7974 21.8782 36.4151 23.8596 37.5938C25.8243 38.7631 27.9565 39.2557 30.2488 39.1346V39.9987H0.0271123C0.0198317 39.9103 0.00631061 39.8229 0.00631061 39.7345C0.00631061 37.5675 -0.0103307 35.4005 0.011511 33.2335C0.073916 26.9302 4.27793 21.1048 10.1908 19.0915C10.4685 18.9968 10.6963 19.0168 10.9667 19.1304C13.7541 20.2966 16.5426 20.2881 19.3363 19.1304C19.5401 19.0462 19.8199 19.0325 20.0279 19.0999C20.5677 19.2746 21.0867 19.5125 21.6442 19.7377Z" fill="#124ABB"/>
<path d="M6.08447 9.10698C6.08551 4.06778 10.1356 -0.00105226 15.1488 2.04131e-07C20.137 0.00105267 24.1819 4.09935 24.1788 9.14908C24.1757 14.1736 20.1204 18.2813 15.1654 18.2771C10.1065 18.274 6.08447 14.2104 6.08447 9.10593V9.10698Z" fill="#124ABB"/>
<path d="M20.0435 27.8219C20.0581 22.5258 24.2777 18.276 29.5197 18.2813C34.7679 18.2855 39.0104 22.5774 39 27.8734C38.9896 33.1568 34.7076 37.4488 29.4698 37.4277C24.2485 37.4067 20.03 33.1073 20.0435 27.8219ZM29.5093 31.114C30.3268 31.7128 31.1329 32.3054 31.9431 32.8947C32.4101 33.2347 32.7491 33.2557 33.1205 32.9821C33.4751 32.7211 33.5656 32.3517 33.395 31.816C33.1205 30.9561 32.8459 30.0973 32.5609 29.2416C32.4891 29.0269 32.513 28.8996 32.7159 28.7585C33.4522 28.2428 34.1709 27.7008 34.8948 27.1683C35.3535 26.8304 35.4877 26.5042 35.3514 26.0653C35.2183 25.6348 34.9115 25.4349 34.3519 25.4317C33.4554 25.4264 32.5578 25.4201 31.6612 25.437C31.4043 25.4422 31.2961 25.3443 31.2244 25.1107C30.955 24.2361 30.6731 23.3657 30.3882 22.4953C30.228 22.0059 29.9108 21.7523 29.4947 21.7565C29.0724 21.7607 28.7812 22.0038 28.6148 22.5101C28.3413 23.3426 28.0594 24.1719 27.8119 25.0128C27.7193 25.3254 27.5914 25.4506 27.2502 25.4391C26.3932 25.4107 25.5351 25.4275 24.6771 25.4307C24.1206 25.4328 23.7961 25.6348 23.663 26.0484C23.5267 26.4736 23.6671 26.8262 24.1165 27.1577C24.8196 27.6756 25.5185 28.1997 26.2341 28.6996C26.4743 28.868 26.5419 29.0185 26.44 29.309C26.1498 30.1352 25.8877 30.9719 25.6287 31.8086C25.5684 32.0033 25.5133 32.2254 25.5476 32.419C25.6703 33.1052 26.4057 33.3715 26.9996 32.9474C27.8368 32.3506 28.6606 31.7349 29.5093 31.114Z" fill="#124ABB"/>
</g>
<defs>
<clipPath id="clip0_325_7436">
<rect width="39" height="40" fill="white"/>
</clipPath>
</defs>
</svg>
