<svg width="32" height="32" viewBox="0 0 32 32" fill="none" xmlns="http://www.w3.org/2000/svg">
<rect width="32" height="32" rx="9.10408" fill="url(#paint0_linear_314_6793)"/>
<path d="M13.337 16.0437C13.337 14.5697 14.5312 13.3745 16.0048 13.3745C17.4784 13.3745 18.6733 14.5697 18.6733 16.0437C18.6733 17.5177 17.4784 18.713 16.0048 18.713C14.5312 18.713 13.337 17.5177 13.337 16.0437ZM11.8944 16.0437C11.8944 18.3145 13.7346 20.1553 16.0048 20.1553C18.275 20.1553 20.1152 18.3145 20.1152 16.0437C20.1152 13.7729 18.275 11.9322 16.0048 11.9322C13.7346 11.9322 11.8944 13.7729 11.8944 16.0437ZM19.3173 11.7692C19.3172 11.9592 19.3735 12.145 19.479 12.303C19.5845 12.4611 19.7344 12.5843 19.9099 12.6571C20.0854 12.7299 20.2786 12.749 20.4649 12.712C20.6513 12.675 20.8225 12.5836 20.9568 12.4492C21.0912 12.3149 21.1828 12.1437 21.2199 11.9574C21.2571 11.771 21.2381 11.5778 21.1655 11.4022C21.0929 11.2266 20.9698 11.0765 20.8119 10.9708C20.654 10.8652 20.4683 10.8088 20.2783 10.8087H20.2779C20.0232 10.8088 19.779 10.91 19.5989 11.0901C19.4188 11.2702 19.3175 11.5144 19.3173 11.7692ZM12.7709 22.5613C11.9904 22.5258 11.5662 22.3957 11.2843 22.2859C10.9106 22.1403 10.644 21.967 10.3636 21.687C10.0832 21.4069 9.90969 21.1404 9.76483 20.7666C9.65494 20.4847 9.52495 20.0603 9.48947 19.2796C9.45066 18.4356 9.44291 18.1821 9.44291 16.0438C9.44291 13.9055 9.4513 13.6527 9.48947 12.808C9.52501 12.0273 9.65597 11.6037 9.76483 11.321C9.91033 10.9472 10.0836 10.6804 10.3636 10.4C10.6436 10.1196 10.91 9.94596 11.2843 9.80107C11.5661 9.69115 11.9904 9.56111 12.7709 9.52562C13.6146 9.48681 13.8681 9.47905 16.0048 9.47905C18.1415 9.47905 18.3952 9.48745 19.2397 9.52562C20.0201 9.56118 20.4436 9.69217 20.7262 9.80107C21.0999 9.94596 21.3666 10.1199 21.647 10.4C21.9273 10.6801 22.1002 10.9472 22.2457 11.321C22.3556 11.6029 22.4856 12.0273 22.5211 12.808C22.5599 13.6527 22.5676 13.9055 22.5676 16.0438C22.5676 18.1821 22.5599 18.4349 22.5211 19.2796C22.4855 20.0603 22.3549 20.4846 22.2457 20.7666C22.1002 21.1404 21.9269 21.4072 21.647 21.687C21.367 21.9668 21.0999 22.1403 20.7262 22.2859C20.4445 22.3958 20.0201 22.5258 19.2397 22.5613C18.3959 22.6001 18.1425 22.6079 16.0048 22.6079C13.8671 22.6079 13.6144 22.6001 12.7709 22.5613ZM12.7046 8.08511C11.8524 8.12393 11.2701 8.25909 10.7616 8.45703C10.2349 8.66143 9.7891 8.93566 9.34359 9.3806C8.89807 9.82554 8.62463 10.2722 8.42028 10.799C8.22241 11.308 8.08728 11.8902 8.04848 12.7426C8.00903 13.5963 8 13.8693 8 16.0437C8 18.2182 8.00903 18.4912 8.04848 19.3449C8.08728 20.1974 8.22241 20.7795 8.42028 21.2885C8.62463 21.8149 8.89814 22.2621 9.34359 22.7069C9.78904 23.1516 10.2349 23.4255 10.7616 23.6304C11.2711 23.8284 11.8524 23.9635 12.7046 24.0024C13.5585 24.0412 13.831 24.0508 16.0048 24.0508C18.1786 24.0508 18.4515 24.0418 19.305 24.0024C20.1572 23.9635 20.7392 23.8284 21.248 23.6304C21.7743 23.4255 22.2205 23.1518 22.666 22.7069C23.1115 22.2619 23.3844 21.8149 23.5893 21.2885C23.7872 20.7795 23.923 20.1973 23.9611 19.3449C23.9999 18.4905 24.009 18.2182 24.009 16.0437C24.009 13.8693 23.9999 13.5963 23.9611 12.7426C23.9223 11.8901 23.7872 11.3077 23.5893 10.799C23.3844 10.2725 23.1108 9.82624 22.666 9.3806C22.2212 8.93495 21.7743 8.66143 21.2486 8.45703C20.7392 8.25909 20.1572 8.12329 19.3057 8.08511C18.4522 8.04629 18.1793 8.03662 16.0054 8.03662C13.8316 8.03662 13.5585 8.04565 12.7046 8.08511Z" fill="white"/>
<defs>
<linearGradient id="paint0_linear_314_6793" x1="31.385" y1="32" x2="-0.615039" y2="-8.6135e-07" gradientUnits="userSpaceOnUse">
<stop stop-color="#FBE18A"/>
<stop offset="0.21" stop-color="#FCBB45"/>
<stop offset="0.38" stop-color="#F75274"/>
<stop offset="0.52" stop-color="#D53692"/>
<stop offset="0.74" stop-color="#8F39CE"/>
<stop offset="1" stop-color="#5B4FE9"/>
</linearGradient>
</defs>
</svg>
