<svg width="41" height="40" viewBox="0 0 41 40" fill="none" xmlns="http://www.w3.org/2000/svg">
<g clip-path="url(#clip0_325_7383)">
<path d="M4.23561 27.52C4.64579 27.1278 5.04705 26.7891 5.40372 26.397C5.53748 26.2544 5.63556 26.0226 5.63556 25.8265C5.66231 24.9085 5.67123 23.9905 5.63556 23.0725C5.59098 21.6109 5.85849 20.2205 6.37567 18.8479C7.51703 15.8087 8.56923 12.7428 9.64818 9.68573C9.8176 9.19553 10.0851 8.81229 10.6112 8.69642C11.4048 8.50926 12.1806 9.15988 12.1182 9.97984C11.9042 12.9121 11.6812 15.8533 11.4494 18.7855C11.4494 18.8212 11.4226 18.8658 11.4316 18.8568C11.0481 18.9905 10.6825 19.0797 10.3526 19.249C9.89785 19.4807 9.58576 19.864 9.46984 20.3542C9.11316 21.8248 8.79215 23.2954 8.44439 24.8016C8.66732 24.8551 8.86349 24.8996 9.08641 24.9531C9.38959 23.5806 9.68385 22.2437 9.9781 20.9068C10.2189 19.8194 11.173 19.2936 12.0557 19.7659C12.5194 20.0155 12.7869 20.4077 12.7959 20.9424C12.7959 22.6982 12.8226 24.4451 12.7869 26.192C12.7602 27.2437 12.4035 28.2151 11.7347 29.0351C10.9233 30.0422 10.0494 30.987 9.16666 32.003C7.51703 30.5057 5.89415 29.044 4.21777 27.52H4.23561Z" fill="#124ABB"/>
<path d="M36.7375 27.5459C35.0789 29.0522 33.465 30.5138 31.7618 32.0557C30.7542 30.808 29.7377 29.6226 28.8193 28.357C28.3199 27.6707 28.1772 26.7973 28.1772 25.9327C28.1772 24.3106 28.1772 22.6796 28.1772 21.0575C28.1772 20.2999 28.6588 19.7206 29.3632 19.6137C30.0766 19.5067 30.7364 19.9345 30.9326 20.6743C31.1109 21.3695 31.2625 22.0736 31.4141 22.7777C31.5746 23.4818 31.7262 24.1859 31.8867 24.9345C32.1007 24.89 32.2879 24.8543 32.5287 24.8097C32.3147 23.8472 32.1185 22.9203 31.9045 21.9933C31.8153 21.5834 31.6994 21.1823 31.6281 20.7812C31.4319 19.7028 30.7988 19.0878 29.7199 18.9363C29.6664 18.9363 29.6129 18.9096 29.5415 18.8917C29.4524 17.6707 29.3543 16.4497 29.2651 15.2375C29.1403 13.5352 29.0154 11.8329 28.8728 10.1306C28.8193 9.44432 29.1759 8.84717 29.8001 8.69566C30.4243 8.53523 31.0307 8.87391 31.2714 9.54236C32.3504 12.5727 33.3847 15.6208 34.5261 18.6244C35.1324 20.2197 35.4089 21.8151 35.3464 23.5085C35.3197 24.2572 35.3554 25.0058 35.3375 25.7634C35.3286 26.0753 35.4267 26.2892 35.6496 26.4853C36.0152 26.8151 36.363 27.1805 36.7464 27.5459H36.7375Z" fill="#124ABB"/>
<path d="M19.8223 15.3148C19.7331 15.3326 19.6974 15.3415 19.6529 15.3504C18.8682 15.4485 18.2262 15.4039 18.0121 14.4057C17.9141 13.969 17.5217 13.5768 17.2096 13.2025C16.0326 11.7943 15.8097 9.94045 16.6389 8.33617C17.4504 6.76755 19.1268 5.8228 20.9191 6.0278C22.6311 6.22387 23.8527 7.16862 24.5037 8.76398C25.1546 10.3593 24.8693 11.8478 23.7814 13.1668C23.282 13.764 22.854 14.379 22.6489 15.1276C22.6222 15.2167 22.4706 15.3326 22.3725 15.3415C21.9891 15.3683 21.5967 15.3504 21.1598 15.3504C21.1598 14.5661 21.1598 13.7996 21.1687 13.0421C21.1687 12.944 21.2847 12.8282 21.3649 12.7479C21.6502 12.4449 21.9534 12.1597 22.2566 11.8478C21.9356 11.5447 21.6235 11.2595 21.249 10.9119C21.0439 11.1615 20.7942 11.4556 20.491 11.8121C20.1879 11.4645 19.9293 11.1704 19.6707 10.8763C19.3318 11.2239 19.0376 11.518 18.672 11.9012C18.9752 12.1686 19.3051 12.4271 19.5815 12.7301C19.7153 12.8727 19.8044 13.1044 19.8134 13.3005C19.8401 13.969 19.8223 14.6285 19.8223 15.3237V15.3148Z" fill="#124ABB"/>
<path d="M2.5592 27.0859C2.77321 27.2018 2.96046 27.2642 3.10313 27.389C5.2432 29.3141 7.37434 31.2392 9.50548 33.1822C9.88891 33.5298 9.90675 33.8328 9.57682 34.2339C8.73863 35.2767 7.90044 36.3105 7.05333 37.3355C6.69665 37.7722 6.26864 37.7722 5.89413 37.3355C4.00374 35.0806 2.11336 32.8168 0.231886 30.553C-0.0802058 30.1786 -0.0802058 29.8934 0.24972 29.5102C0.82932 28.8239 1.41784 28.1287 2.02419 27.4603C2.15794 27.3088 2.37195 27.2196 2.56812 27.0859H2.5592Z" fill="#124ABB"/>
<path d="M38.4411 27.087C38.6283 27.2118 38.8334 27.292 38.9582 27.4346C39.5824 28.1298 40.1888 28.8339 40.7862 29.5469C41.0983 29.9124 41.0626 30.1797 40.697 30.6164C39.2792 32.3277 37.8525 34.03 36.4258 35.7412C35.9889 36.2671 35.5609 36.7929 35.115 37.3099C34.7049 37.7822 34.3036 37.7822 33.9023 37.292C33.0641 36.276 32.2349 35.251 31.4056 34.2172C31.0935 33.8339 31.1113 33.522 31.4769 33.1922C33.617 31.2492 35.7571 29.3063 37.906 27.3722C38.0398 27.2475 38.236 27.194 38.4411 27.0781V27.087Z" fill="#124ABB"/>
<path d="M19.8579 20.6953H21.133V40.0001H19.8579V20.6953Z" fill="#124ABB"/>
<path d="M21.9715 38.658C21.4186 36.4209 23.0593 33.9254 25.3956 33.4708C25.7612 33.3995 26.1357 33.3906 26.5102 33.3906C26.6172 33.3906 26.7955 33.5332 26.8045 33.6224C27.2146 36.6972 24.5931 38.9878 21.9982 38.6937C21.9893 38.6937 21.9804 38.6758 21.9626 38.6669L21.9715 38.658Z" fill="#124ABB"/>
<path d="M19.1537 33.2474C19.1537 34.0941 19.1359 34.1119 18.2888 34.0228C16.1487 33.7999 14.5615 31.7857 14.8201 29.6466C14.8469 29.3971 14.9628 29.3704 15.1768 29.3614C17.3258 29.2901 19.1627 31.0727 19.1627 33.2474H19.1537Z" fill="#124ABB"/>
<path d="M21.9178 29.3201C21.3739 27.2345 23.3535 25.0777 25.4668 25.3896C26.0018 27.1543 24.3254 29.6142 21.9178 29.3201Z" fill="#124ABB"/>
<path d="M18.5117 16.0312H22.4619C22.5778 16.9225 22.4619 17.7247 21.6861 18.2862C21.0262 18.7674 20.295 18.8477 19.5817 18.4466C18.6543 17.9296 18.4047 17.074 18.5206 16.0312H18.5117Z" fill="#124ABB"/>
<path d="M16.113 22.0535C17.9588 21.8663 19.4747 23.533 19.0913 25.2977C17.406 25.6809 15.7563 23.8984 16.113 22.0535Z" fill="#124ABB"/>
<path d="M14.9981 1.674C15.0783 1.7453 15.3102 1.85226 15.4082 2.03051C15.7738 2.68113 16.1038 3.3585 16.4158 4.02694C16.5942 4.40128 16.4337 4.7667 16.077 4.92712C15.7471 5.07864 15.3904 4.96277 15.2031 4.60627C14.8643 3.95564 14.5344 3.30502 14.2223 2.63657C13.9904 2.13746 14.3204 1.63835 14.9891 1.66509L14.9981 1.674Z" fill="#124ABB"/>
<path d="M25.2886 5.00561C24.6733 4.98778 24.3523 4.52432 24.5574 4.0876C24.8784 3.3835 25.2351 2.68832 25.5918 2.00204C25.7701 1.67227 26.1268 1.57424 26.4478 1.72575C26.7688 1.87727 26.9471 2.22486 26.7956 2.56354C26.4656 3.27655 26.1179 3.98957 25.7255 4.67584C25.6274 4.85409 25.3688 4.93431 25.2886 4.9967V5.00561Z" fill="#124ABB"/>
<path d="M21.16 1.6923C21.16 2.01316 21.16 2.33402 21.16 2.65487C21.1422 3.07377 20.8747 3.34115 20.4823 3.34115C20.1078 3.34115 19.8403 3.07377 19.8314 2.6727C19.8225 2.00425 19.8225 1.3358 19.8314 0.667349C19.8314 0.275192 20.1167 0.0078125 20.4823 0.0078125C20.8568 0.0078125 21.1333 0.26628 21.1511 0.658436C21.1689 1.00603 21.1511 1.35362 21.1511 1.70122L21.16 1.6923Z" fill="#124ABB"/>
</g>
<defs>
<clipPath id="clip0_325_7383">
<rect width="41" height="40" fill="white"/>
</clipPath>
</defs>
</svg>
