<svg width="32" height="32" viewBox="0 0 32 32" fill="none" xmlns="http://www.w3.org/2000/svg">
<g clip-path="url(#clip0_314_6794)">
<path d="M24.8877 0H7.11229C3.18428 0 0 3.18428 0 7.11229V24.8877C0 28.8157 3.18428 32 7.11229 32H24.8877C28.8157 32 32 28.8157 32 24.8877V7.11229C32 3.18428 28.8157 0 24.8877 0Z" fill="#006699"/>
<path d="M12.3191 22.4853V13.8412H9.4485V22.4853H12.3191ZM10.8844 12.6613C11.8852 12.6613 12.5083 11.9975 12.5083 11.168C12.4896 10.3196 11.8852 9.67432 10.9035 9.67432C9.92097 9.67432 9.2793 10.3196 9.2793 11.1679C9.2793 11.9974 9.90216 12.6612 10.8656 12.6612L10.8844 12.6613ZM13.908 22.4853H16.7784V17.6587C16.7784 17.4007 16.7972 17.142 16.873 16.9577C17.0805 16.4413 17.5528 15.9068 18.3459 15.9068C19.3844 15.9068 19.8001 16.6994 19.8001 17.8616V22.4853H22.6704V17.5292C22.6704 14.8741 21.2545 13.6386 19.3658 13.6386C17.8174 13.6386 17.1373 14.5048 16.7596 15.0947H16.7787V13.8416H13.9081C13.9457 14.6525 13.908 22.4853 13.908 22.4853Z" fill="white"/>
</g>
<defs>
<clipPath id="clip0_314_6794">
<rect width="32" height="32" fill="white"/>
</clipPath>
</defs>
</svg>
