<svg width="32" height="32" viewBox="0 0 32 32" fill="none" xmlns="http://www.w3.org/2000/svg">
<path d="M27.8435 12.1416C27.861 12.8566 27.8621 13.6687 27.8621 14.5947V17.248C27.8621 21.0005 27.8618 22.8772 26.696 24.043C25.5302 25.2086 23.6535 25.208 19.9011 25.208H11.9412C8.18888 25.208 6.31206 25.2084 5.14624 24.043C3.98047 22.8772 3.98022 21.0005 3.98022 17.248V14.5947C3.98022 13.6688 3.98029 12.8566 3.9978 12.1416L14.6326 18.0498C15.4339 18.4949 16.4084 18.4949 17.2097 18.0498L27.8435 12.1416ZM19.9011 6.63379C23.6537 6.63379 25.5303 6.63401 26.696 7.7998C27.1024 8.20616 27.3635 8.69975 27.5359 9.32812C27.4273 9.35572 27.3201 9.39712 27.2175 9.4541L15.9207 15.7305L4.62476 9.4541C4.52157 9.39678 4.41374 9.35574 4.30444 9.32812C4.47688 8.69948 4.73977 8.20628 5.14624 7.7998C6.31203 6.63401 8.18853 6.63379 11.9412 6.63379H19.9011Z" fill="#8BD0FF"/>
</svg>
