<svg width="32" height="33" viewBox="0 0 32 33" fill="none" xmlns="http://www.w3.org/2000/svg">
<path d="M15.9209 6.15088C21.0501 6.15088 25.2079 10.3088 25.208 15.438C25.208 22.0933 18.4169 26.098 16.4492 27.1187C16.1137 27.2927 15.7281 27.2927 15.3926 27.1187C13.4246 26.0978 6.63379 22.093 6.63379 15.438C6.63388 10.3089 10.7918 6.15097 15.9209 6.15088ZM15.9209 11.4575C13.7227 11.4576 11.9405 13.2398 11.9404 15.438C11.9404 17.6362 13.7227 19.4184 15.9209 19.4185C18.1191 19.4185 19.9014 17.6362 19.9014 15.438C19.9013 13.2398 18.1191 11.4575 15.9209 11.4575Z" fill="#8BD0FF"/>
</svg>
