<svg width="86" height="61" viewBox="0 0 86 61" fill="none" xmlns="http://www.w3.org/2000/svg">
<path d="M27.2059 59.9412C25.3824 60.6471 23.2941 60.9412 20.9412 60.8235C18.5882 60.7059 16.4118 60.1176 14.4118 59.0588C12.4706 58 10.8824 56.6471 9.64706 55C3.70588 47.0588 5 36.1765 13.5294 22.3529C17.3529 16.2353 21 11.5588 24.4706 8.32353C30.3529 2.91176 34.0588 0.23529 35.5882 0.294114C39 0.352937 41.1176 1.41176 41.9412 3.47058C41.1765 4.17647 40.2647 5.17647 39.2059 6.47058L35.9412 10.8823C29.4706 19.7647 25.9118 26.9412 25.2647 32.4118C30.9706 33.3529 34.6765 36.4706 36.3824 41.7647C37.6176 45.4118 37.3235 49.0588 35.5 52.7059C33.7941 56.1765 31.0294 58.5882 27.2059 59.9412ZM71.2353 59.9412C69.4118 60.6471 67.3235 60.9412 64.9706 60.8235C62.6176 60.7059 60.4412 60.1176 58.4412 59.0588C56.5 58 54.9118 56.6471 53.6765 55C47.7353 47.0588 49.0294 36.1765 57.5588 22.3529C61.3824 16.2353 65.0294 11.5588 68.5 8.32353C74.3824 2.91176 78.0882 0.23529 79.6176 0.294114C83.0294 0.352937 85.1471 1.41176 85.9706 3.47058C85.2059 4.17647 84.2941 5.17647 83.2353 6.47058L79.9706 10.8823C73.5 19.7647 69.9412 26.9412 69.2941 32.4118C75 33.3529 78.7059 36.4706 80.4118 41.7647C81.6471 45.4118 81.3529 49.0588 79.5294 52.7059C77.8235 56.1765 75.0588 58.5882 71.2353 59.9412Z" fill="#124ABB"/>
</svg>
