<svg width="32" height="32" viewBox="0 0 32 32" fill="none" xmlns="http://www.w3.org/2000/svg">
<g clip-path="url(#clip0_238_6590)">
<path d="M13.824 23.6515C16.2824 21.1908 18.6929 18.7781 21.1224 16.3475C22.0482 17.2849 22.965 18.2123 23.8818 19.1397C23.9108 19.1197 23.9398 19.0996 23.9688 19.0796V11.2208H16.1175C17.0553 12.1442 17.9881 13.0636 18.8979 13.9589C17.1473 15.7105 15.4796 17.377 13.801 19.0566C12.3383 17.5894 10.8436 16.0901 9.33297 14.5748C6.66355 17.2458 4.05012 19.8598 1.4287 22.4817C-1.05576 17.5573 -0.821811 8.71605 6.36762 3.22581C13.3751 -2.12421 23.5529 -0.66202 28.8377 6.44264C34.1515 13.5874 32.6029 23.7506 25.4324 28.9364C18.205 34.1622 8.20321 32.5107 3.08733 25.4431C5.17488 23.36 7.25742 21.2809 9.36396 19.1777C10.8066 20.6249 12.2953 22.1182 13.824 23.6515Z" fill="#124ABB"/>
</g>
<defs>
<clipPath id="clip0_238_6590">
<rect width="32" height="32" fill="white"/>
</clipPath>
</defs>
</svg>
