<svg width="33" height="32" viewBox="0 0 33 32" fill="none" xmlns="http://www.w3.org/2000/svg">
<g clip-path="url(#clip0_238_6569)">
<path d="M0.00357085 32C0.00357085 31.2219 -0.00618407 30.4686 0.00711809 29.7162C0.0142126 29.3271 0.360956 29.0917 0.725435 29.2303C0.971081 29.3236 1.20609 29.4559 1.42779 29.5989C2.31194 30.1719 3.19875 30.187 4.0696 29.5972C5.03622 28.9425 5.97979 28.9443 6.94109 29.6034C7.95117 30.2962 8.98519 30.0902 9.91368 29.3706C9.99438 29.3085 10.021 29.1388 10.0228 29.018C10.0582 27.1455 10.0857 25.2729 10.1132 23.3995C10.1593 20.2301 10.1966 17.0606 10.2569 13.8921C10.2657 13.4204 10.1097 13.0606 9.85958 12.6707C9.50309 12.1146 9.08363 11.8401 8.42118 11.9645C8.27219 11.9929 8.09306 12.0062 7.96181 11.9485C7.82347 11.8872 7.63812 11.7353 7.63546 11.6189C7.6328 11.4946 7.81371 11.2627 7.92456 11.2565C8.5879 11.2219 9.25389 11.2298 9.91811 11.2458C10.0299 11.2485 10.1389 11.3569 10.2746 11.4297C10.2817 11.2867 10.2915 11.157 10.2932 11.0273C10.3243 8.7666 10.3571 6.50589 10.381 4.24517C10.3837 3.97602 10.4307 3.77881 10.7686 3.78503C10.7686 2.73862 10.7686 1.70997 10.7686 0.680435C10.7686 0.558739 10.7331 0.418388 10.7819 0.318899C10.8457 0.188319 10.9761 0 11.0763 0C11.212 0 11.3698 0.137686 11.4736 0.255829C11.5312 0.321563 11.502 0.468132 11.502 0.578281C11.5037 1.64246 11.5117 2.70664 11.4966 3.76993C11.4931 4.02398 11.5773 4.13769 11.8123 4.22296C14.0932 5.0473 16.124 6.27493 17.8356 8.00711C19.8868 10.0831 21.1833 12.5818 21.945 15.3755C22.6385 17.9178 22.8354 20.5134 22.7689 23.1392C22.7201 25.0704 22.478 26.9785 22.1694 28.8803C22.1588 28.9434 22.1605 29.0091 22.1614 28.9931C22.643 29.2294 23.097 29.4222 23.5209 29.6664C24.3465 30.1426 25.1597 30.1577 25.9676 29.6549C26.3942 29.3902 26.8145 29.1388 27.3369 29.1104C27.9301 29.0784 28.4471 29.2605 28.9225 29.5989C29.4457 29.972 30.031 30.1133 30.6544 29.972C30.9604 29.9027 31.2486 29.7473 31.5359 29.6131C31.7851 29.4968 32.013 29.3289 32.2684 29.2312C32.6311 29.0908 32.9832 29.3245 32.9912 29.7126C33.0071 30.4659 32.9956 31.2192 32.9956 32H0.00357085ZM18.6505 29.9747C18.7037 29.8068 18.7401 29.7038 18.7703 29.5989C19.2491 27.9458 19.5356 26.2598 19.6509 24.5428C19.7919 22.4464 19.7156 20.3598 19.3955 18.282C19.1321 16.573 18.7162 14.9038 18.1335 13.2747C17.997 12.8927 18.3827 12.3695 18.7907 12.3606C19.0673 12.3544 19.352 12.3926 19.6189 12.342C19.7493 12.3171 19.9169 12.1475 19.9417 12.0187C19.9604 11.9245 19.7786 11.6918 19.6801 11.6891C18.8829 11.6607 18.0839 11.6598 17.2866 11.6873C17.182 11.6909 17.0046 11.9005 17.0055 12.0133C17.0073 12.1288 17.1749 12.2576 17.2937 12.3491C17.3558 12.3962 17.4693 12.3766 17.6059 12.3926C17.5012 12.5312 17.3992 12.6174 17.3629 12.7249C17.3088 12.8892 17.2299 13.0944 17.2822 13.2383C18.1442 15.6136 18.663 18.0591 18.8456 20.5792C18.9982 22.6871 18.9432 24.787 18.5769 26.8701C18.4146 27.7921 18.1929 28.7026 17.9899 29.6585C18.1788 29.7499 18.3925 29.853 18.6479 29.9765L18.6505 29.9747ZM14.6563 10.4792C13.9017 8.76038 12.9528 7.21563 11.6758 5.85654V10.4792H14.6563ZM15.5964 19.3373C15.5689 19.0655 15.5405 18.8363 15.5236 18.6063C15.5086 18.3966 15.3986 18.3256 15.1973 18.3265C14.1473 18.3309 13.0973 18.3309 12.0482 18.3265C11.8186 18.3256 11.7237 18.4339 11.7325 18.6489C11.7423 18.8763 11.7609 19.1037 11.776 19.3373H15.5964ZM11.9072 23.1979C11.9072 23.4146 11.9046 23.5914 11.9072 23.7682C11.9143 24.1634 11.956 24.2079 12.348 24.2088C13.155 24.2114 13.9611 24.2203 14.7681 24.207C15.7312 24.191 15.6372 24.4175 15.6904 23.268C15.6904 23.2503 15.6726 23.2316 15.6558 23.1988H11.9063L11.9072 23.1979ZM15.2239 16.0906H11.6988C11.6988 16.294 11.6979 16.4788 11.6988 16.6644C11.7024 17.0704 11.7219 17.0917 12.1351 17.0926C12.9421 17.0944 13.7491 17.0926 14.5561 17.0926C15.4598 17.0926 15.4926 17.2321 15.223 16.0897L15.2239 16.0906ZM15.5139 26.4561C15.5352 26.2021 15.5565 25.972 15.5742 25.742C15.5902 25.5314 15.4864 25.4408 15.2771 25.4417C14.2688 25.4444 13.2605 25.4435 12.2522 25.4417C12.0606 25.4417 11.964 25.527 11.9666 25.7224C11.9693 25.9622 11.9666 26.203 11.9666 26.4561H15.513H15.5139ZM12.0447 28.2505C13.0982 28.2505 14.1056 28.2532 15.1122 28.2452C15.1884 28.2452 15.3206 28.1741 15.3303 28.119C15.3818 27.833 15.4022 27.5408 15.4341 27.2458H12.0447V28.2505ZM11.8203 20.8625H15.7072C15.6815 20.5952 15.6602 20.3678 15.638 20.1412H11.7742C11.7911 20.4033 11.8052 20.6316 11.8203 20.8625ZM15.6886 21.6691H11.87V22.4268H15.6886V21.6691ZM11.9995 29.002C12.0828 29.1868 12.1076 29.3653 12.2105 29.4506C12.7985 29.9356 13.4804 30.0982 14.2324 29.9747C14.8949 29.8654 15.1884 29.5758 15.2044 29.002H11.9995ZM11.7068 15.3213H15.1095C15.0687 15.1348 15.012 14.9758 15.0022 14.8132C14.9862 14.5592 14.8514 14.5192 14.6306 14.5272C14.2218 14.5423 13.8121 14.5316 13.4033 14.5316C12.8428 14.5316 12.2824 14.5316 11.7068 14.5316V15.3205V15.3213ZM14.2794 12.2265C14.1606 11.9023 14.071 11.6314 13.9602 11.3684C13.9327 11.3036 13.8396 11.2254 13.7757 11.2245C13.0823 11.2139 12.3888 11.2183 11.6882 11.2183V12.2265H14.2786H14.2794ZM14.7335 13.7784C14.6918 13.6034 14.651 13.479 14.6342 13.3502C14.5969 13.0722 14.4612 12.9745 14.1695 12.9851C13.4955 13.0091 12.8198 12.9931 12.1449 12.9931H11.7104V13.7784H14.7326H14.7335Z" fill="#124ABB"/>
</g>
<defs>
<clipPath id="clip0_238_6569">
<rect width="33" height="32" fill="white"/>
</clipPath>
</defs>
</svg>
