<svg width="37" height="32" viewBox="0 0 37 32" fill="none" xmlns="http://www.w3.org/2000/svg">
<g clip-path="url(#clip0_238_6558)">
<path d="M18.9685 0C19.4472 0.169268 19.9486 0.293123 20.4017 0.516062C21.9337 1.26745 22.9541 2.5349 23.8189 3.96852C24.3513 4.85202 24.5057 5.76339 24.203 6.73565C23.9672 7.49013 23.6738 8.22707 23.4061 8.97226C23.3494 8.97226 23.2928 8.97226 23.2362 8.97226C22.9963 8.23636 22.7512 7.50252 22.5175 6.76455C22.3816 6.33725 22.2725 5.90169 22.1345 5.47542C22.0326 5.16166 21.8472 5.08941 21.5126 5.21946C20.6683 5.54767 19.8241 5.90479 18.9479 6.11018C17.8307 6.37234 16.7857 6.11121 15.9105 5.31441C15.5955 5.02748 15.4101 5.01613 15.2063 5.38253C14.8778 5.97394 14.607 6.59837 14.3414 7.22178C14.1314 7.71307 13.9656 8.22397 13.7504 8.80712C13.3221 8.04025 13.0564 7.30435 12.8855 6.53129C12.7012 5.6963 12.799 4.91291 13.2243 4.15224C14.0696 2.64327 15.1146 1.33144 16.691 0.54393C17.1656 0.306541 17.6938 0.178558 18.1983 0C18.4557 0 18.7121 0 18.9695 0H18.9685Z" fill="#124ABB"/>
<path d="M15.5769 14.8864C14.0861 14.6604 12.8155 14.9019 11.7375 15.8101C10.7769 16.6204 10.0624 17.5988 9.7545 18.8559C9.10482 21.5116 8.42425 24.159 7.75706 26.8105C7.73544 26.8952 7.72514 26.9839 7.70558 27.0944H8.60546C8.81859 26.2656 9.03789 25.4254 9.25102 24.5842C9.74318 22.6438 10.1859 20.689 10.7388 18.7661C11.127 17.4151 12.0423 16.4686 13.4302 15.901C13.4302 16.5326 13.4467 17.1044 13.424 17.6752C13.4096 18.0426 13.5393 18.2779 13.8657 18.4503C14.2611 18.6588 14.7903 18.8208 14.9777 19.1614C15.1754 19.5186 15.094 20.0697 15.0364 20.5228C14.9149 21.4755 15.2176 22.1876 15.963 22.8048C16.6529 23.3756 17.2562 24.0558 17.874 24.7102C18.0048 24.8495 18.0923 25.0807 18.1015 25.2747C18.1304 25.8744 18.1118 26.4772 18.1118 27.0944H19.023C19.023 26.472 19.0045 25.8692 19.0333 25.2685C19.0426 25.0755 19.1322 24.8423 19.265 24.706C20.0784 23.8648 20.9072 23.0381 21.7484 22.2248C22.0017 21.9802 22.1047 21.718 22.0944 21.3712C22.0758 20.7282 22.0974 20.0842 22.0851 19.4401C22.081 19.2192 22.151 19.0882 22.3507 18.985C22.6802 18.8136 22.9881 18.5989 23.3165 18.4266C23.6017 18.2769 23.717 18.0602 23.7098 17.7412C23.6975 17.1674 23.7067 16.5935 23.7067 16.0207C23.7469 15.9908 23.7881 15.9608 23.8282 15.9309C24.2534 16.2457 24.7188 16.5192 25.0946 16.8846C25.7309 17.5008 26.15 18.2552 26.3652 19.1336C26.9953 21.7015 27.6522 24.2622 28.3008 26.825C28.3225 26.9117 28.3575 26.9963 28.3914 27.0985H29.3129C29.1461 26.4255 28.9876 25.7712 28.8218 25.1178C28.2607 22.9039 27.6985 20.689 27.1353 18.4761C26.5793 16.2932 24.2462 14.6593 21.9379 14.8358C21.839 14.843 21.7402 14.8492 21.6269 14.8565C21.5641 14.521 21.595 14.2558 21.8308 13.9926C22.5762 13.1596 23.0694 12.1709 23.5162 11.1553C23.5677 11.0386 23.7026 10.8838 23.8076 10.8766C25.2666 10.7744 26.6751 10.953 27.9693 11.7002C29.7361 12.722 30.6061 14.3425 30.983 16.2787C31.47 18.7785 31.1734 21.2505 30.6319 23.7007C30.4023 24.7391 30.0759 25.7557 29.7948 26.7827C29.768 26.8797 29.7443 26.9788 29.7093 27.1171C29.873 27.1171 30.01 27.1171 30.1469 27.1171C31.958 27.1171 33.7691 27.115 35.5802 27.1171C36.4697 27.1181 36.9918 27.6404 36.9959 28.528C36.999 29.236 37.0021 29.9441 36.9959 30.6521C36.9876 31.4499 36.4646 31.9763 35.6708 32.0001C35.5812 32.0031 35.4906 32.0001 35.401 32.0001C24.1371 32.0001 12.8732 32 1.60927 31.998C1.39202 31.998 1.16654 32.0042 0.958558 31.9546C0.407718 31.8225 0.0174962 31.3199 0.00925929 30.7409C-0.0020664 29.9688 -0.0020664 29.1958 0.00720007 28.4237C0.0164665 27.6579 0.554952 27.1212 1.32819 27.1181C3.17736 27.1109 5.02757 27.115 6.87675 27.115C7.01471 27.115 7.15371 27.115 7.29477 27.115C7.01162 26.087 6.7151 25.092 6.46387 24.0857C5.96039 22.0679 5.68343 20.0181 5.80184 17.9353C5.90891 16.0517 6.32899 14.2589 7.66337 12.8273C8.85977 11.5423 10.3723 10.921 12.1175 10.8632C12.4891 10.8508 12.8629 10.8714 13.2346 10.858C13.4415 10.8508 13.561 10.9106 13.6382 11.116C14.0531 12.206 14.6348 13.1958 15.3731 14.102C15.5121 14.2733 15.5007 14.5675 15.579 14.8874L15.5769 14.8864Z" fill="#124ABB"/>
<path d="M15.8879 6.40222C17.6815 7.33526 19.4524 7.33423 21.1636 6.44144C21.7453 7.72747 22.3229 8.99698 22.8913 10.2696C22.9273 10.3511 22.9304 10.4719 22.8995 10.5565C22.3703 11.9881 21.6321 13.2875 20.4357 14.2691C19.1322 15.3384 17.8987 15.3157 16.622 14.2102C15.4132 13.1637 14.6534 11.8209 14.1643 10.316C14.1211 10.1839 14.1818 9.99298 14.2477 9.85571C14.7306 8.86384 15.23 7.87919 15.718 6.88938C15.7849 6.75314 15.8199 6.60039 15.8869 6.40222H15.8879Z" fill="#124ABB"/>
<path d="M14.3486 15.7296C14.9808 15.7554 15.543 15.6728 15.96 16.32C16.5633 17.2572 17.281 18.12 17.9451 19.019C18.0182 19.1181 18.1047 19.2409 18.1057 19.3544C18.117 20.7519 18.1129 22.1494 18.1129 23.6409C17.6743 23.2032 17.3314 22.7852 16.9144 22.4622C16.135 21.8584 15.8055 21.1163 15.959 20.1337C16.0156 19.7694 15.9548 19.3885 15.9723 19.0169C15.9857 18.7207 15.8642 18.5329 15.613 18.3956C15.2979 18.2232 15.0025 18.0137 14.6792 17.862C14.4032 17.7319 14.3291 17.5493 14.3435 17.2582C14.3682 16.771 14.3497 16.2818 14.3497 15.7306L14.3486 15.7296Z" fill="#124ABB"/>
<path d="M22.8099 15.7761C22.8099 16.3437 22.8212 16.8959 22.8006 17.4481C22.7965 17.5596 22.6987 17.7051 22.6009 17.7691C22.2467 18.0003 21.8791 18.2119 21.5075 18.4142C21.2768 18.5391 21.1831 18.7083 21.1872 18.9726C21.1996 19.7054 21.1955 20.4392 21.1872 21.1731C21.1852 21.3052 21.1697 21.4775 21.0884 21.5622C20.4398 22.2361 19.7726 22.8936 19.0518 23.6151C19.0395 23.4241 19.0261 23.3065 19.0261 23.1878C19.024 21.9915 19.0137 20.7943 19.0354 19.598C19.0395 19.3741 19.1239 19.1171 19.2536 18.9354C19.8817 18.0581 20.5386 17.2014 21.1831 16.3355C21.6187 15.7523 22.0181 15.6068 22.8099 15.7771V15.7761Z" fill="#124ABB"/>
<path d="M20.69 15.1939C20.655 15.3374 20.6602 15.5097 20.5798 15.6191C19.9281 16.5099 19.2599 17.3892 18.5958 18.2738C17.8977 17.6225 16.4491 15.5077 16.4758 15.1113C17.8555 16.0495 19.2372 16.0753 20.6159 15.1309C20.6406 15.1516 20.6653 15.1733 20.69 15.1939Z" fill="#124ABB"/>
</g>
<defs>
<clipPath id="clip0_238_6558">
<rect width="37" height="32" fill="white"/>
</clipPath>
</defs>
</svg>
