<svg width="29" height="32" viewBox="0 0 29 32" fill="none" xmlns="http://www.w3.org/2000/svg">
<g clip-path="url(#clip0_238_6553)">
<path d="M1.68005 32.0001C1.68256 31.2817 1.68674 30.5626 1.68674 29.8442C1.68757 28.3301 2.4779 27.2526 3.98588 27.0601C5.11958 26.9159 6.30425 26.9359 7.43795 27.0901C8.83314 27.2801 9.61512 28.3684 9.61679 29.7817C9.61679 30.5209 9.62013 31.2609 9.62264 32.0001H1.68005Z" fill="#124ABB"/>
<path d="M19.3782 32C19.3798 31.2817 19.3832 30.5625 19.384 29.8442C19.3849 28.3317 20.1777 27.25 21.6823 27.0592C22.816 26.9159 24.0007 26.9359 25.1344 27.0892C26.5279 27.2784 27.3124 28.37 27.3132 29.7809C27.3132 30.52 27.3174 31.26 27.3199 31.9992H19.3782V32Z" fill="#124ABB"/>
<path d="M10.56 32C10.56 31.0734 10.4957 30.1409 10.5792 29.2225C10.6787 28.1284 11.4297 27.5059 12.4105 27.1459C12.6503 27.0575 12.9177 26.9992 13.1716 27.0009C14.2218 27.0067 15.2861 26.9409 16.3162 27.0942C17.353 27.2484 18.0966 27.9125 18.3907 28.9775C18.4124 29.0575 18.4349 29.14 18.4349 29.2217C18.4391 30.1484 18.4383 31.0742 18.4391 32.0009H10.5592L10.56 32Z" fill="#124ABB"/>
<path d="M15.1884 0C15.5301 0.08 15.8759 0.145 16.2126 0.240833C18.9988 1.03417 20.917 3.66167 20.7725 6.48083C20.6171 9.50833 18.5502 11.905 15.6286 12.4442C12.0797 13.0992 8.67105 10.5992 8.25834 7.03833C7.86151 3.61333 10.2459 0.521667 13.6395 0.0591667C13.6988 0.0508333 13.7547 0.02 13.8116 0C14.2702 0 14.7289 0 15.1875 0H15.1884ZM14.5016 11.6692C17.4725 11.6675 19.8852 9.25583 19.8869 6.28583C19.8878 3.2925 17.4741 0.869167 14.4958 0.874167C11.5116 0.879167 9.10716 3.29917 9.11217 6.29083C9.11718 9.26333 11.5283 11.67 14.5016 11.6692Z" fill="#124ABB"/>
<path d="M22.5922 20.5183C20.0257 21.2342 19.2111 24.3217 21.1894 26.185C20.2437 26.4725 19.4759 26.9942 18.9371 27.8267C18.4308 27.2194 17.6845 26.6669 16.6981 26.1692C18.6572 24.2992 17.785 21.2083 15.2452 20.5158C15.3864 20.3325 15.5009 20.1517 15.6454 20C16.1968 19.4233 16.8911 19.1175 17.6764 19.095C18.6121 19.0683 19.5553 19.0575 20.4852 19.1425C21.3849 19.2242 22.0992 19.695 22.593 20.5183H22.5922Z" fill="#124ABB"/>
<path d="M10.0805 27.8392C9.51653 27.0042 8.76463 26.4608 7.8072 26.1875C9.78136 24.32 8.97516 21.2317 6.42371 20.5208C6.61836 20.1075 6.93583 19.82 7.30176 19.58C7.7646 19.2775 8.2809 19.0983 8.82896 19.0917C9.76549 19.08 10.7079 19.0583 11.6377 19.1417C12.54 19.2225 13.2476 19.7033 13.7456 20.5158C12.489 20.8908 11.6444 21.6658 11.3353 22.9208C11.0262 24.1742 11.398 25.2592 12.3453 26.1792C11.3904 26.4792 10.6268 26.9892 10.0796 27.8383L10.0805 27.8392Z" fill="#124ABB"/>
<path d="M5.64589 9.62329C5.23569 9.67413 4.82548 9.71996 4.41695 9.77579C4.08193 9.82163 3.85803 9.70579 3.80707 9.44663C3.75026 9.15746 3.91067 8.94496 4.25821 8.89996C5.20728 8.77746 6.15802 8.66079 7.10959 8.55829C7.56491 8.50913 7.76876 8.78329 7.61754 9.21829C7.30676 10.1108 6.99096 11.0016 6.67265 11.8916C6.55653 12.2166 6.34516 12.3425 6.087 12.2575C5.81381 12.1675 5.72191 11.9316 5.83804 11.5916C5.97171 11.2008 6.11207 10.8125 6.19144 10.38C5.70855 10.8716 5.20227 11.3425 4.74695 11.8591C2.64079 14.2475 1.40934 17.035 1.05177 20.1933C0.939822 21.1833 0.940658 22.1858 0.895544 23.1833C0.880506 23.5058 0.740986 23.6925 0.479491 23.7066C0.205465 23.7216 0.0133126 23.5316 0.00579354 23.205C-0.086941 19.0941 0.880506 15.3033 3.46705 12.0283C4.07107 11.2633 4.78956 10.5875 5.46042 9.87579C5.52809 9.80413 5.63002 9.76496 5.71607 9.71079C5.69267 9.68163 5.66928 9.65246 5.64589 9.62329Z" fill="#124ABB"/>
<path d="M22.735 10.3783C22.8837 10.8025 23.014 11.1733 23.1427 11.5442C23.2738 11.9225 23.2062 12.1483 22.9338 12.2525C22.6598 12.3567 22.4509 12.2233 22.3181 11.8525C22.0065 10.9825 21.6948 10.1117 21.3891 9.24001C21.2287 8.78418 21.4283 8.51001 21.9012 8.56084C22.8528 8.66334 23.8027 8.78001 24.7526 8.90334C25.0884 8.94668 25.2396 9.14418 25.1987 9.42501C25.1594 9.69168 24.9322 9.82584 24.608 9.78168C24.1903 9.72501 23.7718 9.67584 23.3507 9.62251C23.801 10.0917 24.2455 10.54 24.6724 11.0042C26.913 13.4408 28.2924 16.2975 28.7493 19.5725C28.9098 20.7225 28.9198 21.8942 28.9975 23.0558C29 23.0975 28.9975 23.1392 28.9966 23.1808C28.9808 23.5142 28.8137 23.7067 28.543 23.7058C28.2715 23.705 28.1127 23.5108 28.1069 23.1733C28.096 22.5592 28.1077 21.9433 28.0693 21.3308C27.7953 16.9958 26.0893 13.3425 22.8394 10.4325C22.8244 10.4192 22.8026 10.4133 22.735 10.3783Z" fill="#124ABB"/>
<path d="M18.9236 13.4933C20.2319 13.4958 21.2562 14.52 21.2562 15.8258C21.2562 17.1191 20.2086 18.1716 18.922 18.1716C17.6471 18.1716 16.5727 17.0975 16.5752 15.8241C16.5777 14.535 17.6304 13.49 18.9236 13.4933Z" fill="#124ABB"/>
<path d="M23.3548 21.3767C24.6481 21.3767 25.6941 22.4267 25.6899 23.7225C25.6857 24.9917 24.6322 26.0459 23.3599 26.0534C22.0791 26.0609 21.0072 24.9942 21.0089 23.7125C21.0106 22.4167 22.0541 21.3775 23.3548 21.3767Z" fill="#124ABB"/>
<path d="M10.0863 13.4883C11.3829 13.4941 12.4381 14.5558 12.4214 15.8374C12.4047 17.1116 11.3479 18.1608 10.0813 18.1608C8.77552 18.1608 7.73455 17.1016 7.74458 15.7858C7.7546 14.5024 8.79306 13.4833 10.0863 13.4891V13.4883Z" fill="#124ABB"/>
<path d="M16.825 23.7191C16.8175 25.0008 15.7774 26.0416 14.5 26.0433C13.2126 26.045 12.1657 24.9866 12.1733 23.69C12.1808 22.3875 13.2176 21.37 14.5292 21.3775C15.8074 21.3841 16.8325 22.43 16.825 23.7191Z" fill="#124ABB"/>
<path d="M5.66099 21.3767C6.93672 21.3792 7.98854 22.4334 7.98353 23.7042C7.97852 24.98 6.9317 26.0217 5.65096 26.0242C4.37106 26.0275 3.3184 24.9842 3.31422 23.71C3.31004 22.42 4.36187 21.3742 5.66015 21.3767H5.66099Z" fill="#124ABB"/>
<path d="M18.9488 6.26169C18.9696 8.71586 16.9754 10.7159 14.4883 10.7342C12.0864 10.7517 10.0813 8.76169 10.0529 6.33169C10.0237 3.87919 11.9937 1.83586 14.4039 1.81752C16.9353 1.79836 18.927 3.74586 18.9488 6.26169ZM13.9586 5.30752C13.987 5.04836 14.1057 4.85252 14.3722 4.78586C14.6554 4.71419 14.8517 4.84002 14.9913 5.08336C15.1609 5.37836 15.3956 5.46919 15.6254 5.33586C15.8501 5.20586 15.9178 4.92586 15.7298 4.65336C15.5802 4.43669 15.3831 4.23752 15.1675 4.08836C15.0172 3.98419 14.9261 3.91336 14.9319 3.71419C14.942 3.36419 14.7791 3.18336 14.5042 3.18002C14.226 3.17752 14.0581 3.35836 14.0673 3.70336C14.0723 3.89752 14.0071 3.98836 13.8358 4.07752C13.2936 4.36086 13.033 4.92419 13.1224 5.54752C13.1976 6.07252 13.6211 6.52502 14.175 6.66002C14.3154 6.69419 14.4658 6.68502 14.6061 6.71669C14.881 6.78002 15.0648 7.03169 15.0389 7.28752C15.0113 7.55502 14.7824 7.77836 14.5159 7.77752C14.2619 7.77669 14.099 7.64336 13.9845 7.41336C13.8475 7.13669 13.6278 7.06169 13.3972 7.17752C13.1691 7.29086 13.0681 7.53586 13.2226 7.78502C13.3763 8.03336 13.5802 8.27002 13.8133 8.44252C13.9804 8.56586 14.0748 8.65586 14.0673 8.87252C14.0572 9.17919 14.2469 9.37669 14.5 9.37586C14.7523 9.37502 14.9428 9.17752 14.9303 8.86919C14.9211 8.64586 15.0138 8.55252 15.1951 8.44836C15.7407 8.13502 15.962 7.63669 15.8743 7.02336C15.7933 6.45919 15.4508 6.08502 14.9094 5.90919C14.7431 5.85502 14.561 5.85419 14.3881 5.81836C14.114 5.76252 13.9962 5.56919 13.957 5.30669L13.9586 5.30752Z" fill="#124ABB"/>
</g>
<defs>
<clipPath id="clip0_238_6553">
<rect width="29" height="32" fill="white"/>
</clipPath>
</defs>
</svg>
