<svg width="32" height="32" viewBox="0 0 32 32" fill="none" xmlns="http://www.w3.org/2000/svg">
<g clip-path="url(#clip0_238_6548)">
<path d="M23.5816 12.5123C23.5816 12.6762 23.5816 12.7978 23.5816 12.9194C23.5816 15.1673 23.5816 17.4153 23.5816 19.6632C23.5816 20.4054 23.9346 20.7593 24.6806 20.7647C25.2241 20.7683 25.7676 20.7647 26.3695 20.7647C26.3285 21.2763 26.2993 21.7527 26.2446 22.2264C26.2364 22.3003 26.1251 22.3804 26.043 22.4255C24.3595 23.3594 22.6742 24.2924 20.9834 25.2138C20.8877 25.266 20.7153 25.2732 20.6214 25.2228C18.0241 23.8322 15.2226 23 12.3772 22.2976C11.5209 22.0859 10.6436 21.9535 9.77081 21.8103C8.76856 21.6455 7.80279 21.8058 6.87076 22.1913C6.78868 22.2255 6.70113 22.2462 6.59626 22.2805C6.43575 21.487 6.43758 20.7044 6.55704 19.9235C6.92092 17.5486 7.88487 15.388 9.03942 13.3031C10.2934 11.038 11.7598 8.92063 13.5892 7.06084C13.8719 6.77354 14.1574 6.64656 14.5687 6.65466C15.8764 6.68078 17.186 6.66006 18.4938 6.66997C18.6388 6.67087 18.8312 6.7078 18.9197 6.80326C19.8116 7.75972 20.6861 8.7324 21.5817 9.71768C21.143 10.1761 20.7764 10.5706 20.3961 10.9515C20.0979 11.2496 19.9511 11.5829 20.1271 11.9854C20.3022 12.3871 20.6515 12.515 21.0719 12.5132C21.8899 12.5096 22.7089 12.5123 23.5789 12.5123H23.5816ZM12.2103 16.303C12.2076 18.6212 14.0799 20.4765 16.4245 20.4801C18.7437 20.4828 20.6333 18.6248 20.6396 16.3345C20.6469 14.0371 18.7491 12.1719 16.4054 12.1719C14.11 12.1719 12.2131 14.0398 12.2103 16.3039V16.303Z" fill="#124ABB"/>
<path d="M4.5343 24.0961C5.71621 23.6566 6.88444 23.1559 8.09553 22.7938C9.01206 22.52 9.97327 22.7092 10.8971 22.9109C13.6813 23.5188 16.4154 24.2916 19.0172 25.4669C19.4988 25.6848 19.963 25.9415 20.429 26.1766C20.1891 26.8917 19.7003 27.2384 18.927 27.2825C17.4213 27.3681 15.9676 27.0565 14.5203 26.707C14.1236 26.6116 13.7315 26.499 13.3384 26.3909C13.0475 26.3108 12.8405 26.4143 12.7384 26.6827C12.6399 26.9412 12.784 27.1961 13.084 27.2798C14.9435 27.7986 16.8121 28.2759 18.7683 28.2291C19.7295 28.2066 20.553 27.8958 21.0728 27.0385C21.1877 26.8493 21.3026 26.6386 21.3336 26.4251C21.3756 26.1324 21.5297 25.9892 21.7741 25.855C23.6619 24.8229 25.5415 23.7755 27.4256 22.738C28.0275 22.4066 28.4999 22.4282 28.9103 22.7866C29.5423 23.3387 29.503 24.2312 28.7917 24.7635C28.2491 25.1697 27.6764 25.538 27.11 25.9127C25.411 27.0358 23.7321 28.1904 21.9994 29.2612C20.6004 30.1267 19.0911 30.7814 17.4496 31.0813C16.2084 31.3083 14.9991 31.2291 13.7917 30.8247C12.5806 30.4194 11.3476 30.0718 10.1101 29.7556C9.38049 29.5692 8.62356 29.5854 7.87848 29.7556C7.72436 29.7908 7.58574 29.8241 7.47995 29.6277C6.51692 27.8346 5.54294 26.0478 4.57352 24.2573C4.55892 24.2294 4.55801 24.1943 4.53613 24.0952L4.5343 24.0961Z" fill="#124ABB"/>
<path d="M21.1157 11.5685C21.4595 11.21 21.745 10.9101 22.0322 10.6129C23.2488 9.35202 24.4645 8.09025 25.6847 6.83208C26.2638 6.23497 26.8784 6.23497 27.4521 6.82938C28.882 8.3091 30.3093 9.79153 31.7365 11.2731C31.8122 11.3514 31.8806 11.4352 32 11.5694C31.203 11.5694 30.4689 11.5694 29.7347 11.5694C29.5751 11.5694 29.4164 11.5694 29.2568 11.5694C28.7708 11.5721 28.6221 11.7117 28.6212 12.1854C28.6185 13.3994 28.6203 14.6135 28.6203 15.8266C28.6203 17.0514 28.6148 18.2772 28.6249 19.502C28.6267 19.7479 28.5847 19.8614 28.2929 19.8569C27.1329 19.8398 25.9719 19.8497 24.811 19.8488C24.7335 19.8488 24.6551 19.8416 24.5292 19.8353V19.4282C24.5292 17.0568 24.5292 14.6855 24.5292 12.3142C24.5292 11.69 24.4052 11.5703 23.7695 11.5703C22.9169 11.5703 22.0633 11.5703 21.1157 11.5703V11.5685Z" fill="#124ABB"/>
<path d="M16.4245 3.96272C15.7195 3.96272 15.0146 3.95641 14.3096 3.96722C14.1081 3.96992 13.9813 3.91678 13.8682 3.74026C13.3128 2.87026 12.9854 1.92821 12.8815 0.906005C12.8541 0.634018 12.8869 0.433179 13.1706 0.269266C13.7615 -0.0738713 13.7478 -0.0954863 14.3288 0.285477C14.8346 0.617506 15.3407 0.618107 15.8472 0.287278C16.2351 0.0333027 16.6187 0.030901 16.9981 0.280073C17.5106 0.616305 18.0259 0.613904 18.5439 0.272868C19.1038 -0.0954863 19.0947 -0.0810763 19.6702 0.265663C19.9182 0.415166 19.9912 0.585384 19.9875 0.862775C19.972 1.92371 19.7559 2.91619 19.0236 3.73396C18.9141 3.85644 18.7062 3.94831 18.5402 3.95461C17.8362 3.97893 17.1303 3.96452 16.4254 3.96452L16.4245 3.96272Z" fill="#124ABB"/>
<path d="M5.29302 31.547C5.22553 31.4605 5.13343 31.3704 5.07415 31.2624C4.14212 29.5539 3.21465 27.8436 2.28535 26.1342C2.11938 25.828 1.95978 25.5173 1.78651 25.2147C1.67798 25.0255 1.72085 24.9031 1.90962 24.8049C2.31271 24.5978 2.71398 24.3879 3.1116 24.1709C3.30311 24.0664 3.41984 24.1096 3.52198 24.2987C4.63002 26.3468 5.74444 28.3912 6.84519 30.4428C6.88896 30.5238 6.85248 30.7328 6.78591 30.7715C6.34817 31.0309 5.89218 31.2597 5.44076 31.4974C5.41158 31.5127 5.37692 31.519 5.2912 31.5461L5.29302 31.547Z" fill="#124ABB"/>
<path d="M4.13122 31.5083C3.87314 31.6433 3.65518 31.7613 3.43448 31.8739C2.99856 32.0964 2.77787 32.0342 2.54623 31.6109C2.00087 30.6166 1.46007 29.6196 0.917454 28.6236C0.648424 28.13 0.375746 27.6401 0.112187 27.1438C-0.0930052 26.7575 -0.0191359 26.5215 0.366626 26.309C0.584586 26.1892 0.807106 26.0775 1.02871 25.964C1.04604 25.955 1.07066 25.9613 1.119 25.9586C2.11578 27.7932 3.11621 29.6377 4.13214 31.5083H4.13122Z" fill="#124ABB"/>
<path d="M16.4527 4.89943C17.6356 4.89943 18.8184 4.89943 20.0021 4.89943C20.1042 4.89943 20.2392 4.8661 20.3021 4.91744C20.4371 5.02732 20.6104 5.17502 20.625 5.32092C20.6368 5.4416 20.4645 5.61002 20.3341 5.70548C20.2483 5.76763 20.0933 5.74691 19.9693 5.74781C17.6146 5.74961 15.2599 5.74961 12.9052 5.74871C12.4218 5.74871 12.1875 5.59921 12.2021 5.30381C12.2148 5.02461 12.4328 4.89853 12.9043 4.89853C14.0871 4.89853 15.2699 4.89853 16.4536 4.89853L16.4527 4.89943Z" fill="#124ABB"/>
<path d="M12.2103 16.3031C12.2131 14.0398 14.1109 12.171 16.4054 12.171C18.75 12.171 20.6469 14.0362 20.6396 16.3337C20.6323 18.6249 18.7437 20.482 16.4245 20.4793C14.079 20.4766 12.2067 18.6213 12.2103 16.3022V16.3031ZM15.9467 19.0157C15.9467 19.1139 15.9284 19.2733 15.9503 19.4264C15.9904 19.6993 16.1792 19.8506 16.4464 19.8362C16.6926 19.8236 16.8687 19.6786 16.8933 19.4111C16.9006 19.3328 16.9051 19.2535 16.8969 19.1761C16.8787 18.9977 16.9298 18.9005 17.1213 18.8293C17.7806 18.5853 18.1573 18.098 18.1755 17.4027C18.1937 16.712 17.8089 16.2328 17.1915 15.959C16.886 15.823 16.5422 15.7726 16.2175 15.678C15.954 15.6015 15.7159 15.4871 15.7314 15.162C15.7469 14.8477 15.9768 14.7225 16.2476 14.6675C16.6097 14.5937 16.9106 14.7036 17.1687 14.9747C17.383 15.1989 17.6675 15.2016 17.8645 15.017C18.0588 14.8342 18.0715 14.5433 17.86 14.3244C17.7049 14.165 17.5317 13.9876 17.331 13.9137C16.9972 13.7912 16.855 13.6201 16.8851 13.2581C16.9079 12.9798 16.6926 12.8249 16.4264 12.8204C16.1573 12.8159 15.9831 12.9726 15.9448 13.2473C15.9357 13.3139 15.9339 13.3833 15.9421 13.449C15.9695 13.6534 15.9011 13.7615 15.6886 13.8471C15.1843 14.0497 14.8496 14.4199 14.7784 14.972C14.6717 15.7987 15.1943 16.4508 16.0689 16.6264C16.3434 16.6813 16.6197 16.7606 16.8732 16.875C17.1012 16.9785 17.2781 17.1992 17.1806 17.4469C17.1039 17.6423 16.9288 17.8548 16.7419 17.9413C16.2795 18.1539 15.8509 17.9692 15.5718 17.5198C15.4332 17.2965 15.2362 17.1776 14.969 17.2956C14.7046 17.4126 14.5842 17.6234 14.7018 17.8963C14.7894 18.098 14.8924 18.3205 15.0548 18.4574C15.3074 18.6699 15.6165 18.8158 15.9439 19.0166L15.9467 19.0157Z" fill="white"/>
<path d="M15.9475 19.0158C15.6201 18.8149 15.311 18.6681 15.0584 18.4565C14.896 18.3205 14.793 18.0971 14.7054 17.8954C14.5878 17.6225 14.7073 17.4117 14.9726 17.2947C15.2398 17.1767 15.4368 17.2956 15.5755 17.5189C15.8545 17.9674 16.2831 18.1521 16.7455 17.9404C16.9325 17.8548 17.1076 17.6414 17.1842 17.446C17.2808 17.1983 17.1048 16.9776 16.8768 16.8741C16.6233 16.7597 16.347 16.6804 16.0725 16.6255C15.1979 16.449 14.6753 15.7978 14.782 14.9711C14.8532 14.419 15.1879 14.0488 15.6922 13.8462C15.9047 13.7606 15.9722 13.6525 15.9457 13.4481C15.9366 13.3824 15.9393 13.313 15.9484 13.2464C15.9867 12.9717 16.16 12.8141 16.43 12.8195C16.6963 12.824 16.9115 12.9789 16.8887 13.2572C16.8586 13.6192 16.9999 13.7903 17.3346 13.9128C17.5353 13.9867 17.7085 14.1641 17.8636 14.3235C18.0752 14.5424 18.0633 14.8333 17.8681 15.0161C17.6712 15.2007 17.3866 15.198 17.1723 14.9738C16.9142 14.7027 16.6133 14.5937 16.2512 14.6666C15.9804 14.7216 15.7505 14.8468 15.735 15.1611C15.7195 15.4871 15.9576 15.6006 16.2211 15.6771C16.5458 15.7717 16.8896 15.8221 17.1951 15.9581C17.8125 16.2328 18.1964 16.7111 18.1791 17.4018C18.1609 18.0971 17.7842 18.5844 17.1249 18.8284C16.9334 18.8996 16.8814 18.9977 16.9005 19.1752C16.9087 19.2526 16.9042 19.3328 16.8969 19.4102C16.8714 19.6777 16.6963 19.8227 16.45 19.8353C16.1828 19.8497 15.994 19.6984 15.9539 19.4255C15.9311 19.2724 15.9503 19.113 15.9503 19.0149L15.9475 19.0158Z" fill="#124ABB"/>
</g>
<defs>
<clipPath id="clip0_238_6548">
<rect width="32" height="32" fill="white"/>
</clipPath>
</defs>
</svg>
