<svg width="24" height="32" viewBox="0 0 24 32" fill="none" xmlns="http://www.w3.org/2000/svg">
<g clip-path="url(#clip0_238_6608)">
<path d="M15.7634 0C16.248 0.219912 16.4247 0.626868 16.5185 1.12617C16.8022 2.63582 17.1141 4.13999 17.4181 5.64651C17.5658 6.37903 17.1828 6.89555 16.4356 6.89789C13.4772 6.90807 10.5189 6.90807 7.5597 6.89789C6.8203 6.89555 6.43184 6.41424 6.57096 5.68407C6.87814 4.07347 7.20641 2.46599 7.52374 0.856954C7.60737 0.430434 7.86843 0.162 8.25767 0L15.7634 0Z" fill="#124ABB"/>
<path d="M4.9929 4.00771C4.89676 4.49841 4.81157 4.94606 4.72168 5.39293C4.37465 7.12718 5.65883 8.74405 7.42604 8.75344C10.4376 8.76909 13.4499 8.76831 16.4622 8.755C18.3568 8.7464 19.6347 7.12718 19.2455 5.26927C19.1603 4.86388 19.0837 4.45771 18.9946 4.01084C19.9896 4.03041 20.9674 3.86841 21.8826 4.29023C23.32 4.9531 23.9984 6.10745 23.9992 7.67188C24.0016 14.4923 24.0008 21.3135 23.9984 28.1339C23.9984 28.4141 23.9836 28.6958 23.957 28.9752C23.8038 30.5929 22.3211 31.9882 20.6961 31.9914C14.9013 32.0023 9.10649 32.0023 3.31244 31.9914C1.54914 31.9882 0.0109401 30.4285 0.0070321 28.6536C-0.00312878 24.4048 0.00312407 20.156 0.00312407 15.908C0.00312407 13.1071 0.000779249 10.3053 0.00390567 7.5044C0.00625049 5.55493 1.50146 4.03902 3.45001 4.00771C3.94867 3.99989 4.44812 4.00615 4.99368 4.00615L4.9929 4.00771ZM14.5004 17.8755C15.6259 17.8755 16.7514 17.8739 17.8777 17.8763C18.1927 17.8763 18.4819 17.8113 18.6991 17.5703C18.9586 17.2831 19.0345 16.9465 18.8828 16.5865C18.7156 16.1898 18.3904 16.0043 17.9683 16.0004C17.218 15.9933 16.4677 15.998 15.7173 15.998C14.1854 15.998 12.6526 15.9988 11.1207 15.998C10.7041 15.998 10.3602 16.1326 10.1609 16.5185C9.83104 17.1579 10.2945 17.8653 11.0605 17.8732C12.2071 17.8841 13.3537 17.8763 14.5004 17.8763V17.8755ZM14.48 22.8818V22.8834C15.6157 22.8834 16.7514 22.885 17.8878 22.8818C18.0215 22.8818 18.1614 22.8779 18.288 22.8419C18.7312 22.7151 19.0126 22.2761 18.9485 21.8371C18.8773 21.3534 18.5092 21.0341 17.9566 21.0318C15.654 21.0239 13.3506 21.0263 11.048 21.0333C10.8862 21.0333 10.7119 21.0701 10.5665 21.1382C10.1882 21.3143 9.99049 21.7533 10.0788 22.1579C10.1695 22.5743 10.5314 22.8771 10.9792 22.8795C12.1462 22.8865 13.3131 22.8818 14.4808 22.8818H14.48ZM14.5121 26.0545V26.053C13.3866 26.053 12.2611 26.0522 11.1355 26.0545C11.0011 26.0545 10.862 26.0545 10.7338 26.0905C10.2875 26.2134 10.0218 26.6211 10.0671 27.0891C10.1077 27.5117 10.4407 27.8537 10.8909 27.8882C11.2747 27.9171 11.6608 27.9085 12.0461 27.9093C13.9634 27.9109 15.8807 27.9156 17.798 27.9038C18.0395 27.9023 18.3029 27.8576 18.5155 27.752C18.8719 27.5751 19.0243 27.1361 18.925 26.7612C18.8125 26.3378 18.4842 26.0616 18.0442 26.0584C16.8671 26.0506 15.6892 26.0561 14.5113 26.0561L14.5121 26.0545ZM9.50902 10.9917C8.33192 10.9917 7.15482 10.987 5.97772 10.994C5.43138 10.9972 5.04292 11.39 5.04136 11.9128C5.03979 12.4724 5.42669 12.8418 6.06448 12.8441C8.34599 12.8512 10.6275 12.8488 12.909 12.8441C13.0614 12.8441 13.224 12.8183 13.3655 12.7627C13.7742 12.6015 13.9892 12.182 13.9079 11.7516C13.8227 11.3024 13.4788 10.9987 13.0106 10.9964C11.8437 10.9893 10.6775 10.994 9.51058 10.9933L9.50902 10.9917ZM6.88751 16.952C6.89376 16.4339 6.48342 16.0074 5.97225 16.0012C5.46655 15.9949 5.04136 16.4222 5.04214 16.9372C5.04214 17.4412 5.43998 17.8544 5.94177 17.8708C6.4459 17.888 6.88204 17.4646 6.88829 16.952H6.88751ZM6.88751 21.9599C6.88829 21.4395 6.47873 21.0325 5.95662 21.0364C5.44388 21.0396 5.04917 21.4301 5.04058 21.9427C5.03198 22.4655 5.43451 22.8787 5.95506 22.8818C6.47717 22.885 6.88595 22.4804 6.88751 21.9607V21.9599ZM6.88751 26.9733C6.88517 26.4544 6.47404 26.0506 5.95193 26.0553C5.43216 26.06 5.0312 26.4756 5.04136 26.9983C5.05152 27.5102 5.44779 27.8991 5.96053 27.9007C6.48264 27.9023 6.88986 27.4945 6.88751 26.9733Z" fill="#124ABB"/>
</g>
<defs>
<clipPath id="clip0_238_6608">
<rect width="24" height="32" fill="white"/>
</clipPath>
</defs>
</svg>
