<svg width="32" height="32" viewBox="0 0 32 32" fill="none" xmlns="http://www.w3.org/2000/svg">
<g clip-path="url(#clip0_238_6615)">
<path d="M2.6145 2.55518H6.33559C6.33559 2.94032 6.33387 3.31613 6.33559 3.69279C6.33818 4.19161 6.50524 4.36043 7.01161 4.36128C10.4597 4.36298 13.9078 4.36298 17.3559 4.36128C17.8519 4.36128 18.0061 4.20264 18.0078 3.71315C18.0087 3.34328 18.0078 2.9734 18.0078 2.57469H21.7728V2.9505C21.7728 7.99809 21.7745 13.0457 21.7668 18.0933C21.7668 18.2935 21.7143 18.5166 21.617 18.6905C19.6328 22.2213 17.6358 25.7452 15.6517 29.276C15.5466 29.4626 15.4148 29.4524 15.2555 29.4524C12.9459 29.4524 10.6362 29.4524 8.32747 29.4524C6.54399 29.4524 4.76138 29.4524 2.97791 29.4524C2.86252 29.4524 2.74626 29.4524 2.61536 29.4524V2.55518H2.6145ZM6.18489 23.4098C5.69144 23.4098 5.19713 23.4064 4.70369 23.4106C4.27569 23.4149 4.11723 23.5625 4.11465 23.9832C4.10776 24.9452 4.10862 25.9081 4.11465 26.8701C4.11723 27.3062 4.27999 27.4707 4.71746 27.4733C5.69403 27.4792 6.67145 27.4801 7.64801 27.4733C8.06739 27.4699 8.2379 27.3045 8.24135 26.8896C8.2491 25.9166 8.24996 24.9436 8.24135 23.9714C8.2379 23.571 8.06998 23.4157 7.66781 23.4115C7.17437 23.4055 6.68006 23.4098 6.18661 23.4098H6.18489ZM6.15303 16.0912C6.668 16.0912 7.18384 16.098 7.69882 16.0886C8.05017 16.0827 8.23101 15.9275 8.23532 15.5898C8.24824 14.5752 8.24738 13.5598 8.23618 12.5452C8.23188 12.2007 8.06137 12.0362 7.71087 12.0328C6.69125 12.0226 5.67164 12.0226 4.65202 12.0328C4.28516 12.0362 4.11982 12.2033 4.11637 12.5655C4.10776 13.5598 4.10776 14.5532 4.11637 15.5474C4.11982 15.9292 4.2843 16.0836 4.67268 16.0895C5.16613 16.0971 5.66044 16.0912 6.15389 16.0912H6.15303ZM4.11207 8.33996C4.11207 8.83709 4.10604 9.33421 4.11379 9.83133C4.11982 10.2385 4.29722 10.4116 4.70455 10.4133C5.68111 10.4175 6.65853 10.4167 7.63509 10.4133C8.04587 10.4116 8.23532 10.2394 8.23877 9.84067C8.24738 8.86763 8.24652 7.89459 8.23877 6.9224C8.23532 6.5135 8.05534 6.34723 7.6437 6.34638C6.66714 6.34383 5.68972 6.34383 4.71316 6.34638C4.28516 6.34723 4.11723 6.5135 4.11207 6.9453C4.10604 7.41019 4.11034 7.87593 4.11121 8.34081L4.11207 8.33996ZM6.16078 21.7835C6.65508 21.7835 7.14853 21.7861 7.64284 21.7835C8.04414 21.781 8.23446 21.6223 8.23791 21.2406C8.24824 20.2463 8.24824 19.2521 8.23791 18.2578C8.23446 17.8922 8.04156 17.7183 7.67126 17.7166C6.67317 17.7124 5.67422 17.7124 4.67613 17.7166C4.30324 17.7183 4.11982 17.8914 4.11637 18.2612C4.10776 19.2555 4.10776 20.2497 4.11637 21.244C4.11982 21.6121 4.30497 21.7793 4.67957 21.7827C5.17302 21.7869 5.66733 21.7835 6.16164 21.7835H6.16078ZM15.0032 7.94888C16.4836 7.94888 17.9648 7.94888 19.4451 7.94888C19.5527 7.94888 19.6604 7.95228 19.7672 7.94549C20.0445 7.92767 20.2417 7.74189 20.2555 7.49248C20.2692 7.23798 20.0634 7.01487 19.7835 6.98433C19.7413 6.97924 19.6974 6.98178 19.6552 6.98178C16.5326 6.98178 13.4109 6.98178 10.2883 6.98178C10.2453 6.98178 10.2022 6.97924 10.16 6.98517C9.89651 7.01911 9.70016 7.23289 9.70447 7.47721C9.70877 7.73001 9.90081 7.92343 10.1755 7.94549C10.2711 7.95312 10.3684 7.94973 10.4649 7.94973C11.9779 7.94973 13.491 7.94973 15.0032 7.94973V7.94888ZM14.9817 19.3242C16.1081 19.3242 17.2345 19.3242 18.3609 19.3242C18.8328 19.3242 19.3056 19.3301 19.7766 19.3166C20.0505 19.3089 20.258 19.1011 20.252 18.8559C20.246 18.5904 20.0927 18.425 19.8335 18.3647C19.7413 18.3435 19.6414 18.3512 19.545 18.3512C16.4982 18.3512 13.4514 18.3503 10.4037 18.352C10.2875 18.352 10.1652 18.3545 10.055 18.3876C9.80781 18.4614 9.68294 18.6447 9.71136 18.8932C9.73977 19.1376 9.88617 19.2987 10.1523 19.3174C10.2591 19.325 10.3667 19.325 10.4735 19.325C11.9754 19.325 13.4772 19.325 14.98 19.325L14.9817 19.3242ZM14.9696 12.6783C14.2066 12.6783 13.4445 12.6783 12.6815 12.6783C11.8755 12.6783 11.0703 12.6749 10.2642 12.6809C9.9189 12.6834 9.70188 12.8794 9.70361 13.161C9.70533 13.4401 9.93009 13.637 10.2668 13.6514C10.3529 13.6548 10.439 13.6514 10.5243 13.6514C12.7478 13.6514 14.9722 13.6514 17.1957 13.6514C18.0018 13.6514 18.807 13.6565 19.613 13.6471C19.7568 13.6454 19.9506 13.6285 20.0307 13.5394C20.1444 13.4147 20.2425 13.2077 20.2236 13.0508C20.19 12.7725 19.9549 12.6758 19.6742 12.6766C18.106 12.68 16.5369 12.6783 14.9688 12.6783H14.9696ZM13.3937 25.0216C14.446 25.0216 15.4984 25.0241 16.5516 25.0199C16.8917 25.0182 17.1045 24.8197 17.1036 24.5313C17.1036 24.2522 16.8995 24.0579 16.5766 24.057C14.4607 24.0537 12.3448 24.0494 10.2289 24.0672C10.0705 24.0689 9.85259 24.1962 9.76905 24.3302C9.56496 24.6543 9.83795 25.0182 10.2677 25.0208C11.3097 25.0267 12.3517 25.0224 13.3928 25.0224L13.3937 25.0216ZM13.4264 9.77619C14.4038 9.77619 15.3804 9.77619 16.3578 9.77619C16.8711 9.77619 17.1045 9.6201 17.1036 9.28077C17.1027 8.94313 16.8797 8.79891 16.3509 8.79891C14.3858 8.79891 12.4214 8.79891 10.4563 8.79891C10.3495 8.79891 10.241 8.80061 10.135 8.81249C9.86895 8.84218 9.7303 9.01269 9.71222 9.25616C9.69499 9.48776 9.81642 9.66676 10.0515 9.73547C10.1617 9.76771 10.2832 9.7745 10.3994 9.77535C11.4087 9.77789 12.418 9.77704 13.4273 9.77704L13.4264 9.77619ZM13.3963 15.4456C14.4486 15.4456 15.501 15.449 16.5542 15.4439C16.921 15.4422 17.1466 15.2072 17.101 14.8967C17.0605 14.6253 16.8478 14.4768 16.4784 14.4768C14.4271 14.4751 12.3758 14.4751 10.3245 14.4768C9.93957 14.4768 9.70188 14.6728 9.70447 14.9722C9.70791 15.2742 9.93095 15.4448 10.3357 15.4456C11.3562 15.4473 12.3767 15.4456 13.3963 15.4456ZM13.4187 20.1776C12.3767 20.1776 11.3355 20.1666 10.2944 20.1886C10.1187 20.192 9.88273 20.2938 9.78456 20.4279C9.54429 20.757 9.83364 21.1456 10.3021 21.1456C12.3637 21.149 14.4254 21.1481 16.4879 21.1456C16.8814 21.1456 17.1053 20.9615 17.1045 20.6535C17.1027 20.3481 16.8857 20.1776 16.4801 20.1768C15.4596 20.1742 14.44 20.1768 13.4195 20.1768L13.4187 20.1776ZM11.8479 26.8243C12.3517 26.8243 12.8563 26.8286 13.3601 26.8226C13.7554 26.8184 13.9474 26.6589 13.9517 26.3501C13.956 26.0337 13.7433 25.8504 13.3472 25.8487C12.3396 25.8445 11.3312 25.8453 10.3236 25.8487C9.94215 25.8504 9.70188 26.0506 9.70533 26.3475C9.70963 26.6368 9.93095 26.8192 10.3038 26.8235C10.8188 26.8294 11.3329 26.8252 11.8479 26.8252V26.8243Z" fill="#124ABB"/>
<path d="M24.1574 32C22.1164 32 20.0754 32.0017 18.0353 32C16.6652 31.9983 15.9289 30.781 16.5946 29.5992C18.6356 25.9794 20.6852 22.3647 22.7287 18.7465C23.0456 18.1858 23.4977 17.8464 24.1694 17.8456C24.8403 17.8447 25.295 18.1807 25.6119 18.7423C27.6571 22.3604 29.7084 25.9752 31.7511 29.5942C32.4177 30.7742 31.6796 31.9983 30.3112 32C28.26 32.0017 26.2078 32 24.1565 32H24.1574ZM26.2078 22.2942C26.1837 22.1475 26.1682 21.9676 26.1234 21.7954C25.8659 20.8105 24.8179 20.1514 23.831 20.3482C22.7209 20.5696 22.0303 21.4909 22.1732 22.5521C22.2266 22.95 22.268 23.3487 22.3188 23.7466C22.4419 24.7103 22.5444 25.6766 22.6986 26.6352C22.8208 27.3961 23.4986 27.8839 24.2719 27.8347C25.0263 27.7864 25.6058 27.2171 25.6816 26.4748C25.7436 25.8768 25.8315 25.2804 25.9064 24.684C26.0054 23.8984 26.1045 23.1129 26.2078 22.2934V22.2942ZM25.6842 29.8767C25.6825 29.0504 25.0099 28.3844 24.1763 28.3827C23.3565 28.381 22.6581 29.0614 22.6495 29.8716C22.6409 30.6961 23.3384 31.3774 24.1875 31.374C25.0246 31.3706 25.6859 30.7089 25.6842 29.8767Z" fill="#124ABB"/>
<path d="M6.32696 1.08263e-05V1.58131C6.20726 1.58131 6.09445 1.58131 5.98164 1.58131C4.73553 1.58131 3.48943 1.58131 2.24418 1.58131C1.76624 1.58131 1.61209 1.73231 1.61209 2.20822C1.61123 11.4025 1.61123 20.5967 1.61209 29.7918C1.61209 30.2779 1.76538 30.4204 2.27605 30.4204C6.49747 30.4204 10.718 30.4204 14.9395 30.4204H15.2452C15.4338 30.9735 15.6051 31.4749 15.7843 32C15.724 32 15.6232 32 15.5216 32C11.0858 32 6.6499 32 2.21404 32C0.894739 32 0.00515657 31.144 0.00429541 29.8402C-0.000871575 20.6128 -0.000871575 11.3872 0.00343425 2.16072C0.00429541 0.852586 0.88785 0.00170749 2.20888 1.08263e-05C3.46531 -0.000837507 4.72175 1.08263e-05 5.97905 1.08263e-05C6.08411 1.08263e-05 6.19004 1.08263e-05 6.32696 1.08263e-05Z" fill="#124ABB"/>
<path d="M24.3727 16.8369C24.0626 16.8768 23.7931 16.8895 23.5365 16.9514C23.2816 17.0133 23.0387 17.1253 22.7657 17.2254V16.8377C22.7657 12.0243 22.7657 7.2117 22.7657 2.39825C22.7657 1.68735 22.6564 1.5813 21.9235 1.5813C20.6361 1.5813 19.3478 1.5813 18.0345 1.5813V0.0144308C18.1456 0.00934084 18.2498 0.000857501 18.354 0.000857501C19.6319 9.16736e-06 20.9099 -0.000839166 22.1879 0.000857501C23.4521 0.00255417 24.3623 0.884821 24.3709 2.13187C24.3795 3.3908 24.3727 4.64973 24.3727 5.90865C24.3727 9.42076 24.3727 12.9329 24.3727 16.4441C24.3727 16.5697 24.3727 16.6952 24.3727 16.836V16.8369Z" fill="#124ABB"/>
<path d="M17.0123 0.0253906V3.37376C16.8832 3.3797 16.7686 3.38988 16.6541 3.38988C13.6684 3.38988 10.6828 3.38649 7.69711 3.39667C7.40604 3.39752 7.31217 3.32711 7.31734 3.02934C7.33628 2.03679 7.32423 1.04339 7.32423 0.026239H17.0115L17.0123 0.0253906Z" fill="#124ABB"/>
<path d="M5.12994 24.3955H7.21913V26.462H5.12994V24.3955Z" fill="#124ABB"/>
<path d="M5.12305 13.0211H7.22601V15.0944H5.12305V13.0211Z" fill="#124ABB"/>
<path d="M23.1498 22.3985C23.1188 21.9616 23.2979 21.6469 23.6605 21.4348C24.0282 21.2193 24.4002 21.2355 24.749 21.4721C25.1046 21.7139 25.2554 22.0507 25.1977 22.4842C25.028 23.7592 24.867 25.036 24.7059 26.3127C24.662 26.6631 24.5001 26.848 24.2056 26.8625C23.8921 26.8777 23.6889 26.7047 23.6415 26.3407C23.4719 25.0224 23.3117 23.7033 23.1498 22.3994V22.3985Z" fill="#124ABB"/>
<path d="M24.7016 29.8707C24.7085 30.1523 24.464 30.4043 24.1798 30.4068C23.8913 30.4102 23.6476 30.1676 23.6493 29.88C23.6502 29.6051 23.8775 29.371 24.1539 29.3583C24.4338 29.3455 24.6948 29.5899 24.7025 29.8707H24.7016Z" fill="#124ABB"/>
</g>
<defs>
<clipPath id="clip0_238_6615">
<rect width="32" height="32" fill="white"/>
</clipPath>
</defs>
</svg>
