<svg width="33" height="32" viewBox="0 0 33 32" fill="none" xmlns="http://www.w3.org/2000/svg">
<g clip-path="url(#clip0_238_6596)">
<path d="M22.7088 31.9954C19.5433 31.9954 16.3777 31.9954 13.2122 31.9954C12.5562 31.9954 12.3786 31.7822 12.4955 31.1407C13.2846 26.8162 16.8017 23.3775 21.1079 22.7223C26.6988 21.8713 31.8195 25.4922 32.962 31.1032C33.0942 31.752 32.8958 31.999 32.2399 31.999C29.0635 31.999 25.8861 31.999 22.7097 31.999V31.9945L22.7088 31.9954Z" fill="#124ABB"/>
<path d="M11.8704 12.3147C8.50551 12.2964 5.77937 9.51924 5.79296 6.12352C5.80655 2.73236 8.56984 -0.0246635 11.932 4.26907e-05C15.3168 0.0247489 18.0094 2.79733 17.9895 6.2379C17.9705 9.57964 15.1981 12.333 11.8704 12.3147Z" fill="#124ABB"/>
<path d="M28.0025 16.9119C28.0116 19.8373 25.646 22.2393 22.7487 22.2466C19.8404 22.2539 17.4631 19.8794 17.4549 16.9586C17.4468 13.9947 19.7815 11.6046 22.7024 11.5873C25.6116 11.5699 27.9926 13.9618 28.0016 16.9119H28.0025Z" fill="#124ABB"/>
<path d="M6.17167 14.0989C6.45434 14.6059 6.71436 15.0716 6.97348 15.5374C7.40473 16.3133 7.84686 17.0847 8.26362 17.8689C8.5028 18.3191 8.79906 18.6861 9.34175 18.8398C9.20495 19.5197 9.0926 20.1922 8.93043 20.8529C8.79181 21.4184 8.90053 21.8759 9.31185 22.2895C9.68512 22.6656 10.0222 23.0773 10.419 23.5221C10.245 23.5312 10.1381 23.5413 10.0312 23.5413C6.94539 23.5413 3.85866 23.5422 0.772841 23.5413C0.128678 23.5413 -0.0896675 23.3034 0.032642 22.6766C0.771935 18.8855 2.83217 16.058 6.17167 14.098V14.0989Z" fill="#124ABB"/>
<path d="M16.6332 13.6168C16.5344 13.7989 16.4601 13.9371 16.384 14.0753C15.7652 15.1907 15.1474 16.307 14.5277 17.4216C14.2731 17.8791 14.0738 17.9001 13.7422 17.5057C13.1351 16.7829 12.5308 16.0572 11.8966 15.2977C11.6402 15.5997 11.392 15.8889 11.1474 16.1808C10.7596 16.6429 10.3782 17.1105 9.98771 17.5698C9.73675 17.8644 9.50028 17.8544 9.31637 17.5259C8.60969 16.264 7.91298 14.9976 7.21355 13.7312C7.20358 13.7129 7.20539 13.6873 7.18909 13.5848C7.7499 13.4064 8.32068 13.2151 8.89961 13.0522C8.9884 13.0275 9.12882 13.1154 9.22033 13.1858C10.1082 13.8712 10.9906 14.5648 11.8948 15.2712C12.7148 14.6289 13.541 14.0121 14.3292 13.3496C14.6663 13.066 14.968 12.9955 15.3675 13.1657C15.7689 13.3368 16.1893 13.4603 16.6341 13.6159L16.6332 13.6168Z" fill="#124ABB"/>
<path d="M16.3052 16.4515C16.2989 18.7721 17.1496 20.6571 18.9308 22.0781C18.1933 22.4551 17.4531 22.7882 16.7618 23.2055C16.3541 23.4516 15.9646 23.5715 15.4953 23.5514C14.8112 23.5221 14.1254 23.544 13.3499 23.544C13.7485 23.0948 14.0747 22.6903 14.4398 22.327C14.8801 21.8887 15.0015 21.4074 14.8411 20.8017C14.6735 20.1657 14.5748 19.5114 14.4416 18.8416C15.016 18.6879 15.315 18.2752 15.5614 17.7948C15.7951 17.34 16.0561 16.899 16.3052 16.4525V16.4515Z" fill="#124ABB"/>
<path d="M11.8921 17.0043C12.3596 17.5441 12.848 18.0401 13.2475 18.6001C13.4169 18.8371 13.407 19.2077 13.4713 19.5197C13.5854 20.0669 13.7014 20.6132 13.7993 21.1631C13.8174 21.2665 13.7829 21.4148 13.7159 21.4916C13.2176 22.0681 12.7057 22.6336 12.1956 23.1991C11.9963 23.4206 11.787 23.4206 11.5877 23.1991C11.0776 22.6327 10.5667 22.0672 10.0684 21.4907C10.0013 21.4139 9.96689 21.2647 9.98682 21.1622C10.1381 20.3552 10.3057 19.5518 10.4688 18.7474C10.4797 18.6925 10.4897 18.6285 10.5232 18.5891C10.9725 18.0648 11.4255 17.5441 11.893 17.0052L11.8921 17.0043Z" fill="#124ABB"/>
</g>
<defs>
<clipPath id="clip0_238_6596">
<rect width="33" height="32" fill="white"/>
</clipPath>
</defs>
</svg>
