<svg width="40" height="40" viewBox="0 0 40 40" fill="none" xmlns="http://www.w3.org/2000/svg">
<circle cx="20" cy="20" r="20" fill="#1573FB"/>
<g clip-path="url(#clip0_480_14853)">
<path d="M25.1497 31.2023C24.5867 31.339 24.069 31.4816 23.5447 31.5882C21.508 32.0006 19.4486 32.0819 17.382 31.9273C15.7197 31.8034 14.0814 31.5362 12.5251 30.8965C11.8901 30.6353 11.2985 30.3068 10.7855 29.8417C10.0893 29.2106 9.94004 28.4123 10.018 27.5228C10.1939 25.5057 10.9108 23.7159 12.2292 22.1753C12.8828 21.411 13.641 20.7679 14.5284 20.2509C16.0908 22.6291 17.6458 24.9973 19.2188 27.3915C20.7931 24.9946 22.3488 22.6264 23.9025 20.2608C24.5407 20.5707 25.702 21.5322 26.1031 22.0807C24.5294 23.0895 23.558 24.4942 23.3515 26.3733C23.1449 28.2517 23.7839 29.835 25.149 31.203L25.1497 31.2023Z" fill="#FAFAFA"/>
<path d="M24.0051 27.0057C24.0031 24.2304 26.2243 21.9981 28.9899 21.9961C31.7761 21.9941 34.0013 24.2197 34 27.0057C33.9987 29.7698 31.7641 31.9934 28.9899 31.9914C26.2356 31.9894 24.0071 29.7604 24.0051 27.0064V27.0057ZM30.0445 28.2278C29.9626 28.3944 29.9073 28.583 29.7927 28.7229C29.5668 28.9995 29.2464 29.0841 28.8959 29.0648C28.5841 29.0474 28.3589 28.8695 28.1371 28.6729C27.9545 28.511 27.7666 28.519 27.6274 28.6689C27.4895 28.8175 27.5088 29.0368 27.6934 29.194C27.8573 29.3333 28.0212 29.5026 28.2164 29.5692C28.5308 29.6765 28.7194 29.8124 28.6981 30.1809C28.6881 30.3561 28.846 30.4528 29.0285 30.4461C29.2231 30.4388 29.3323 30.3282 29.3543 30.1356C29.3616 30.0696 29.3616 30.0016 29.3543 29.9363C29.3396 29.7944 29.3776 29.7244 29.5355 29.6751C30.2897 29.4379 30.7701 28.7616 30.6861 28.0919C30.5868 27.3003 29.9586 26.7399 29.1218 26.6779C28.9179 26.6626 28.7047 26.6286 28.5175 26.5506C28.205 26.4207 28.0085 26.1768 28.0058 25.8203C28.0032 25.4631 28.203 25.2306 28.5055 25.0773C28.9379 24.8594 29.5249 24.9807 29.902 25.3578C30.0698 25.5258 30.2624 25.5537 30.4096 25.4311C30.5735 25.2952 30.5928 25.0826 30.4123 24.9054C30.2491 24.7455 30.0612 24.5789 29.8526 24.5036C29.5082 24.3796 29.239 24.2464 29.315 23.8146C29.3177 23.7992 29.3137 23.7739 29.3037 23.7673C29.1897 23.69 29.0685 23.5494 28.9599 23.558C28.8506 23.5667 28.7367 23.712 28.6574 23.8212C28.6174 23.8759 28.6408 23.9838 28.6494 24.0658C28.6661 24.2257 28.6288 24.3083 28.4482 24.363C27.7433 24.5789 27.2783 25.2086 27.3096 25.8596C27.3436 26.5499 27.8339 27.1243 28.5575 27.2969C28.7907 27.3522 29.0358 27.3529 29.271 27.4002C29.6941 27.4855 29.9939 27.828 30.0432 28.2285L30.0445 28.2278Z" fill="#FAFAFA"/>
<path d="M19.2248 16.5153C16.8903 16.5233 14.9655 14.6182 14.9595 12.2927C14.9528 9.92511 16.837 8.00735 19.1755 8.00002C21.5633 7.99269 23.486 9.89179 23.484 12.256C23.482 14.6029 21.5773 16.5073 19.2248 16.5153Z" fill="#FAFAFA"/>
<path d="M19.2194 26.1314C18.7218 25.3738 18.2407 24.6574 17.783 23.9265C17.7204 23.8265 17.7557 23.6526 17.7737 23.516C17.8623 22.8323 17.9609 22.15 18.0542 21.4676C18.0755 21.3104 18.0155 21.1858 17.9509 21.0358C17.7544 20.5834 17.5825 20.1096 17.4845 19.6278C17.4159 19.2886 17.7664 18.9688 18.1461 18.9615C18.861 18.9475 19.5772 18.9448 20.2921 18.9615C20.7451 18.9728 21.0503 19.3739 20.9397 19.8044C20.8451 20.1736 20.7771 20.578 20.5712 20.8812C20.3427 21.2184 20.3954 21.5196 20.4447 21.8581C20.5326 22.4665 20.6125 23.0755 20.6885 23.6852C20.6992 23.7699 20.6945 23.8771 20.6505 23.9451C20.1875 24.6641 19.7151 25.3778 19.2194 26.1314Z" fill="#FAFAFA"/>
</g>
<defs>
<clipPath id="clip0_480_14853">
<rect width="24" height="24" fill="white" transform="translate(10 8)"/>
</clipPath>
</defs>
</svg>
