<svg width="142" height="142" viewBox="0 0 142 142" fill="none" xmlns="http://www.w3.org/2000/svg">
<circle cx="71" cy="71" r="71" fill="#1573FB"/>
<g clip-path="url(#clip0_480_15043)">
<path d="M103.566 59.1343V49.3033C103.195 49.3033 102.861 49.3033 102.528 49.3033C97.0216 49.3033 91.5147 49.3033 86.0078 49.3033C85.7537 49.3033 85.4761 49.3617 85.2453 49.2858C84.8685 49.1602 84.3543 49.0346 84.2082 48.7484C84.0651 48.4709 84.1966 47.9189 84.4011 47.6181C85.5112 45.9708 86.6476 44.344 87.8425 42.7581C88.2982 42.1535 88.2836 41.7534 87.8279 41.1488C86.6447 39.5921 85.5258 37.9828 84.4361 36.3589C84.2199 36.0347 84.0709 35.4448 84.2258 35.1556C84.3835 34.8577 84.9532 34.6328 85.3447 34.6328C91.614 34.6007 97.8863 34.6095 104.162 34.6153C105.164 34.6153 105.45 34.9483 105.45 36.061C105.45 43.3831 105.45 50.7082 105.45 58.0303V59.1343C106.849 59.1343 108.173 59.1314 109.499 59.1343C110.597 59.1401 110.898 59.441 110.898 60.5567C110.898 78.0982 110.898 95.6397 110.898 113.181C110.898 114.294 110.594 114.601 109.496 114.604C106.174 114.607 102.853 114.607 99.534 114.604C98.4092 114.604 98.1551 114.338 98.1551 113.187C98.1551 95.6456 98.1551 78.104 98.1551 60.5625C98.1551 59.3738 98.3976 59.1343 99.6041 59.1314C100.904 59.1285 102.204 59.1314 103.566 59.1314V59.1343Z" fill="#FAFAFA"/>
<path d="M63.738 59.9141C63.7584 59.8381 63.7438 59.8644 63.7467 59.8907C63.7467 60.9684 63.4078 62.2302 63.8577 63.0684C64.2784 63.857 65.5288 64.2075 66.4286 64.7273C67.4335 65.3085 68.4531 65.8664 69.4727 66.4213C71.1788 67.3472 72.026 68.7987 72.0465 70.7118C72.0757 73.2937 72.0757 75.8784 72.0465 78.4603C72.0231 80.4785 70.6062 81.9213 68.7219 81.9271C66.8317 81.933 65.4382 80.5048 65.409 78.4778C65.3827 76.521 65.3798 74.5612 65.4148 72.6044C65.4265 71.9823 65.2191 71.626 64.664 71.3339C63.0923 70.5103 61.5527 69.6253 59.9255 68.7257C59.0783 72.0144 58.2574 75.1862 57.4423 78.3581C57.0333 79.9469 56.6389 81.5387 56.227 83.1275C55.7011 85.1662 53.9395 86.2906 52.0698 85.7941C50.2439 85.3093 49.274 83.5218 49.7882 81.4978C51.1671 76.0683 52.5723 70.6446 53.9425 65.2151C54.1061 64.5638 54.1937 63.8803 54.2025 63.2086C54.2346 61.0239 54.2141 58.8393 54.2141 56.5465C52.9083 57.1891 51.6375 57.5951 51.4388 59.3708C51.2314 61.2167 50.6968 63.0275 50.2761 64.8471C49.8875 66.5235 48.5583 67.5341 46.8902 67.4698C45.3009 67.4085 43.9074 66.1818 43.735 64.5492C43.6678 63.9242 43.849 63.2612 43.9892 62.6303C44.5384 60.1448 45.1315 57.6681 45.6807 55.1797C45.9436 53.9939 46.5893 53.1352 47.641 52.5452C49.7678 51.3536 51.8887 50.1532 54.0009 48.9382C54.5881 48.6023 55.1198 48.1642 55.7128 47.843C56.227 47.5655 56.7791 47.2647 57.343 47.1975C58.2924 47.0807 59.2653 47.1011 60.2293 47.1303C61.4388 47.1683 62.3707 47.7875 63.1449 48.6812C64.6699 50.4394 66.2036 52.1889 67.7111 53.9588C68.05 54.359 68.3947 54.5342 68.9352 54.5342C71.1204 54.5342 73.3085 54.5254 75.4879 54.6481C77.7023 54.7737 78.979 56.5758 78.5291 58.7458C78.2136 60.2587 76.8493 61.3102 75.1344 61.2663C72.213 61.1933 69.2857 61.1437 66.376 60.9246C65.4879 60.8575 64.6348 60.2733 63.7292 59.9082L63.738 59.9141Z" fill="#FAFAFA"/>
<path d="M94.0622 91.8983C94.0622 98.9926 94.0622 106.087 94.0622 113.181C94.0622 114.364 93.8168 114.607 92.6073 114.607C89.3149 114.607 86.0224 114.609 82.7329 114.607C81.6199 114.607 81.319 114.306 81.316 113.202C81.316 98.9839 81.316 84.769 81.316 70.5512C81.316 69.4092 81.5702 69.1551 82.7125 69.1522C86.0312 69.1493 89.3528 69.1522 92.6716 69.1522C93.8547 69.1522 94.0592 69.3595 94.0592 70.5307C94.0592 77.6542 94.0592 84.7748 94.0592 91.8983H94.0622Z" fill="#FAFAFA"/>
<path d="M77.2758 99.3285C77.2758 103.893 77.2758 108.458 77.2758 113.024C77.2758 114.387 77.0567 114.604 75.7012 114.606C72.4671 114.606 69.2361 114.606 66.0021 114.606C64.8014 114.606 64.5326 114.352 64.5326 113.178C64.5297 103.934 64.5297 94.6905 64.5326 85.4466C64.5326 84.3075 64.8072 84.0359 65.9349 84.0359C69.2536 84.03 72.5694 84.03 75.8881 84.0359C77.0041 84.0359 77.2729 84.3133 77.2729 85.4641C77.2787 90.0875 77.2729 94.708 77.2729 99.3314L77.2758 99.3285Z" fill="#FAFAFA"/>
<path d="M47.7432 101.274C47.7432 97.2987 47.7432 93.3266 47.7432 89.3515C47.7432 88.192 47.9915 87.9292 49.1133 87.9263C52.435 87.9204 55.7566 87.9204 59.0753 87.9263C60.1825 87.9263 60.4864 88.2329 60.4864 89.3399C60.4864 97.287 60.4864 105.234 60.4864 113.181C60.4864 114.297 60.1855 114.604 59.087 114.604C55.7654 114.609 52.4437 114.607 49.125 114.604C47.9973 114.604 47.7432 114.341 47.7432 113.19C47.7432 109.215 47.7432 105.243 47.7432 101.268V101.274Z" fill="#FAFAFA"/>
<path d="M43.6503 104.898C43.6503 107.705 43.6503 110.515 43.6503 113.321C43.6503 114.3 43.3611 114.601 42.397 114.603C38.9936 114.612 35.5901 114.612 32.1867 114.603C31.2372 114.603 30.9071 114.271 30.9071 113.321C30.9012 107.705 30.9012 102.091 30.9071 96.4749C30.9071 95.5052 31.208 95.219 32.1867 95.219C35.5901 95.2161 38.9936 95.2161 42.397 95.219C43.3932 95.219 43.6503 95.476 43.6503 96.4749C43.6561 99.2816 43.6503 102.091 43.6503 104.898Z" fill="#FAFAFA"/>
<path d="M55.2074 40.3106C55.26 37.0423 57.7519 34.5919 60.9626 34.6532C64.2492 34.7146 66.6827 37.2322 66.6301 40.5092C66.5805 43.5875 63.8986 46.1461 60.8077 46.0643C57.6439 45.9825 55.1577 43.4298 55.2074 40.3106Z" fill="#FAFAFA"/>
</g>
<defs>
<clipPath id="clip0_480_15043">
<rect width="80" height="80" fill="white" transform="translate(30.9012 34.6094)"/>
</clipPath>
</defs>
</svg>
