<svg width="40" height="40" viewBox="0 0 40 40" fill="none" xmlns="http://www.w3.org/2000/svg">
<circle cx="20" cy="20" r="20" fill="#1573FB"/>
<g clip-path="url(#clip0_480_14803)">
<path d="M25.9084 31.998H23.9101C23.9101 31.8915 23.9101 31.8022 23.9101 31.7123C23.9114 29.5936 23.9128 27.4755 23.9141 25.3568C23.9141 24.9059 23.9845 24.8193 24.4314 24.7107C25.3542 24.4856 26.2756 24.2551 27.2004 24.038C27.3766 23.9967 27.4443 23.9314 27.4423 23.7416C27.4316 22.8711 27.4376 21.9999 27.4376 21.0954H21.1988V19.8292C21.8025 19.7419 22.403 19.654 23.0027 19.5681C24.2994 19.3823 25.5961 19.1984 26.8915 19.0079C26.9873 18.9939 27.0811 18.9453 27.1689 18.8994C27.9087 18.5164 28.6499 18.1347 29.3843 17.7418C29.5579 17.6492 29.718 17.6252 29.909 17.6685C30.482 17.7984 30.9296 18.2886 30.9846 18.8694C30.994 18.9686 30.9993 19.0685 30.9993 19.1678C31 21.0287 31.002 22.8897 30.9993 24.7507C30.998 25.6212 30.551 26.258 29.7904 26.4631C29.5994 26.5144 29.395 26.5344 29.1967 26.5357C28.2773 26.543 27.3572 26.5384 26.4378 26.539C26.0116 26.539 25.901 26.6456 25.9017 27.0632C25.903 28.6085 25.9064 30.1537 25.9084 31.699C25.9084 31.7896 25.9084 31.8808 25.9084 31.9974V31.998Z" fill="#FAFAFA"/>
<path d="M11.224 32V26.2219H20.9434V32H11.224Z" fill="#FAFAFA"/>
<path d="M20.087 21.0747H18.2991C18.2991 20.6744 18.3052 20.2874 18.2971 19.9004C18.2911 19.6127 18.0746 19.4422 17.8153 19.5174C17.6109 19.5767 17.5325 19.7346 17.5325 19.9371C17.5325 20.31 17.5325 20.683 17.5325 21.0727H14.6503C14.6503 20.7896 14.6503 20.5112 14.6503 20.2334C14.6503 20.1089 14.6543 19.9837 14.6423 19.8605C14.6208 19.6393 14.4989 19.5108 14.2683 19.5068C14.0345 19.5028 13.9078 19.6427 13.8844 19.8538C13.8602 20.0756 13.8736 20.3014 13.8716 20.5252C13.8703 20.699 13.8716 20.8729 13.8716 21.068H12.1065C12.1065 20.9728 12.1065 20.8775 12.1065 20.7823C12.1065 20.2428 12.1206 19.7026 12.1038 19.1631C12.069 18.0395 12.9964 17.115 14.1584 17.0863C15.4444 17.055 16.7324 17.0617 18.0184 17.0843C19.2112 17.1056 20.0803 18.0168 20.085 19.2044C20.0877 19.8185 20.085 20.4319 20.085 21.0747H20.087Z" fill="#FAFAFA"/>
<path d="M25.1538 13.3658C24.7906 13.1187 24.4609 12.9115 24.1513 12.6777C23.953 12.5285 23.7492 12.4792 23.504 12.4819C22.417 12.4926 21.3301 12.4912 20.2438 12.4852C18.9471 12.4779 17.9828 11.5867 17.9286 10.3552C17.8736 9.12232 18.7541 8.10658 20.0408 8.03598C21.0902 7.9787 22.1483 7.99268 23.1971 8.05529C24.2478 8.11857 25.1156 9.04572 25.1471 10.0921C25.1793 11.1624 25.1545 12.2348 25.1545 13.3658H25.1538ZM21.497 9.17227C20.9783 9.17227 20.4603 9.16961 19.9416 9.1736C19.632 9.17627 19.4839 9.30082 19.4806 9.54459C19.4772 9.79303 19.6427 9.93757 19.9523 9.9389C20.9642 9.94223 21.9761 9.94156 22.9873 9.9389C23.2976 9.93823 23.4631 9.79437 23.4611 9.54659C23.4591 9.29616 23.307 9.1756 22.9766 9.1736C22.4834 9.17094 21.9902 9.17294 21.4963 9.1736L21.497 9.17227ZM20.6962 10.5836C20.4214 10.5836 20.146 10.579 19.8712 10.585C19.632 10.5903 19.4873 10.7295 19.4806 10.9446C19.4739 11.1711 19.6233 11.3343 19.8672 11.3376C20.4167 11.3449 20.9669 11.3443 21.5171 11.3376C21.763 11.335 21.9131 11.1738 21.9077 10.948C21.9031 10.7328 21.7576 10.5896 21.5204 10.5843C21.2457 10.5783 20.9709 10.583 20.6955 10.583L20.6962 10.5836Z" fill="#FAFAFA"/>
<path d="M24.1935 21.8699V23.2906H8V21.8699H24.1935Z" fill="#FAFAFA"/>
<path d="M8.80683 24.0753H23.4423C23.3592 24.1346 23.3157 24.1739 23.2654 24.2005C22.5477 24.5895 21.8307 24.9792 21.109 25.3608C21.0111 25.4121 20.8892 25.4407 20.7786 25.4407C17.6612 25.4447 14.5444 25.4441 11.427 25.4427C11.3453 25.4427 11.2508 25.4481 11.1831 25.4121C10.3823 24.9878 9.58619 24.5555 8.78807 24.1259C8.7941 24.1093 8.8008 24.092 8.80683 24.0753Z" fill="#FAFAFA"/>
<path d="M25.4567 15.4239C25.4547 14.2616 26.3822 13.3338 27.5468 13.3331C28.7109 13.3331 29.6517 14.2603 29.6571 15.4126C29.6624 16.5528 28.7082 17.5066 27.5576 17.5113C26.4036 17.516 25.4587 16.5768 25.4567 15.4232V15.4239Z" fill="#FAFAFA"/>
<path d="M16.0857 16.2878C14.9237 16.2831 13.9748 15.3353 13.9855 14.1903C13.9963 13.0474 14.9331 12.1236 16.0864 12.1189C17.2638 12.1143 18.1946 13.0487 18.1872 14.2296C18.1799 15.3773 17.245 16.2931 16.0857 16.2884V16.2878Z" fill="#FAFAFA"/>
</g>
<defs>
<clipPath id="clip0_480_14803">
<rect width="23" height="24" fill="white" transform="translate(8 8)"/>
</clipPath>
</defs>
</svg>
