<svg width="40" height="40" viewBox="0 0 40 40" fill="none" xmlns="http://www.w3.org/2000/svg">
<circle cx="20" cy="20" r="20" fill="#1573FB"/>
<g clip-path="url(#clip0_480_14848)">
<path d="M23.2903 21.9529C21.2899 25.2465 23.4617 29.2756 27.3237 29.4802V31.9625H23.6998C23.6944 31.8454 23.6845 31.7284 23.6845 31.6104C23.6836 30.6409 23.6845 29.6705 23.6827 28.701C23.6827 28.3579 23.5501 28.1935 23.2876 28.1917C23.0216 28.1899 22.8818 28.3498 22.88 28.6939C22.8745 29.6527 22.8781 30.6114 22.8781 31.5693C22.8781 31.6909 22.8781 31.8124 22.8781 31.9732C22.7501 31.9804 22.6427 31.9902 22.5363 31.9902C19.8648 31.9911 17.1942 31.9857 14.5227 31.9982C14.208 32 14.152 31.8919 14.1566 31.6131C14.1719 30.632 14.1611 29.6518 14.1629 28.6706C14.1629 28.4526 14.1142 28.2667 13.8752 28.2006C13.592 28.122 13.3827 28.3132 13.3809 28.6608C13.3764 29.6303 13.3791 30.6007 13.3791 31.5702C13.3791 31.6909 13.3791 31.8124 13.3791 31.9562C13.2691 31.9696 13.1834 31.9893 13.0977 31.9893C12.0605 31.9911 11.0242 31.9911 9.98696 31.9902C9.84085 31.9902 9.68753 32.0152 9.68933 31.7847C9.70466 30.2915 9.65415 28.7948 9.73984 27.3062C9.8652 25.1179 11.0359 23.5389 12.9038 22.4336C14.1015 21.7241 15.4183 21.3488 16.7929 21.1934C18.5282 20.9968 20.2572 21.0522 21.9528 21.5142C22.3938 21.6339 22.8222 21.7965 23.2912 21.9511L23.2903 21.9529Z" fill="#FAFAFA"/>
<path d="M23.0694 15.6891C23.0666 18.1607 21.0301 20.1685 18.5255 20.1676C16.01 20.1676 13.9699 18.1374 13.9843 15.6516C13.9987 13.1702 16.0335 11.1632 18.53 11.1686C21.0481 11.174 23.0712 13.1889 23.0694 15.69V15.6891Z" fill="#FAFAFA"/>
<path d="M23.3228 24.579C23.3282 22.3085 25.1771 20.5008 27.4888 20.5071C29.7292 20.5134 31.588 22.3693 31.5844 24.5942C31.5808 26.846 29.7066 28.6724 27.4058 28.6661C25.1582 28.6599 23.3174 26.8174 23.3228 24.579ZM25.6209 24.5531C25.6209 24.9767 25.611 25.3993 25.6227 25.8229C25.6434 26.5475 26.3154 26.9675 26.9774 26.6556C27.8396 26.2491 28.6901 25.8184 29.5416 25.3886C29.8798 25.2179 30.0538 24.9356 30.0502 24.5513C30.0466 24.1814 29.8789 23.9062 29.5524 23.7409C28.6919 23.3066 27.8324 22.8705 26.9603 22.4604C26.3145 22.1575 25.6471 22.5775 25.6236 23.2834C25.6092 23.706 25.6209 24.1296 25.62 24.5531H25.6209Z" fill="#FAFAFA"/>
<path d="M8.11909 22.1235C5.84263 22.119 3.99279 20.2819 4.00001 18.0328C4.00722 15.8159 5.87601 13.9725 8.1227 13.9654C10.3982 13.9582 12.2544 15.8141 12.2454 18.0873C12.2364 20.3239 10.391 22.1289 8.11909 22.1235ZM8.19665 16.9561C8.97411 17.091 9.69204 17.2161 10.41 17.3412C10.759 17.402 10.9574 17.251 10.9638 16.9043C10.9719 16.4816 10.9592 16.0581 10.9683 15.6345C10.9737 15.3414 10.8519 15.1833 10.5507 15.1341C9.73083 14.9992 8.91278 14.8535 8.09474 14.7061C7.57162 14.6114 7.40837 14.7365 7.40657 15.2619C7.40386 16.3529 7.40657 17.4449 7.40477 18.5359C7.40477 18.6538 7.39394 18.7709 7.38763 18.9076C7.26948 18.8808 7.19462 18.8611 7.11795 18.8468C6.41355 18.7173 5.70013 19.1766 5.55312 19.853C5.40159 20.5517 5.83812 21.2675 6.51818 21.4346C7.24873 21.6142 7.98831 21.1862 8.15968 20.4651C8.20477 20.2739 8.19395 20.0674 8.19485 19.8673C8.19756 18.9112 8.19665 17.9551 8.19665 16.9561Z" fill="#FAFAFA"/>
<path d="M35 12.8136C34.991 15.463 32.7921 17.6281 30.1305 17.6093C27.4401 17.5897 25.2944 15.4237 25.3052 12.7395C25.3152 10.1285 27.5213 7.98754 30.1891 8.00005C32.8426 8.01256 35.009 10.1794 35 12.8136ZM30.2369 15.7561C31.1154 15.7561 31.9948 15.757 32.8733 15.7561C33.5389 15.7552 33.8104 15.4845 33.8122 14.817C33.8149 13.8475 33.8131 12.878 33.8122 11.9085C33.8122 11.1043 33.5732 10.8291 32.7732 10.8827C32.1598 10.9238 31.7558 10.7933 31.5709 10.1589C31.4672 9.80504 31.1542 9.65581 30.7745 9.66207C30.4029 9.66922 30.0304 9.66207 29.6588 9.66475C29.3395 9.66654 29.0383 9.78359 28.9571 10.0874C28.7542 10.8469 28.232 10.9309 27.5582 10.88C26.972 10.8353 26.6825 11.1436 26.678 11.7271C26.6698 12.7859 26.6689 13.8448 26.678 14.9028C26.6825 15.4818 26.9729 15.7525 27.5655 15.7552C28.4556 15.7588 29.3458 15.7561 30.236 15.7561H30.2369Z" fill="#FAFAFA"/>
<path d="M26.4029 24.5487C26.4029 24.1805 26.4038 23.8133 26.4029 23.4451C26.402 23.2092 26.4804 23.1002 26.7294 23.2244C27.5122 23.614 28.2978 23.9991 29.0807 24.3887C29.3035 24.4995 29.3125 24.6193 29.0825 24.7336C28.2888 25.1286 27.4942 25.5218 26.6996 25.9149C26.4886 26.0195 26.4056 25.9212 26.4047 25.7183C26.402 25.3288 26.4047 24.9383 26.4038 24.5487H26.4029Z" fill="#FAFAFA"/>
<path d="M8.17771 15.5291C8.84874 15.6416 9.45122 15.7158 10.033 15.8677C10.1349 15.8945 10.1502 16.2466 10.2197 16.4977C9.55404 16.3869 8.99034 16.3002 8.42935 16.1983C8.00183 16.1215 8.2688 15.8016 8.17771 15.5291Z" fill="#FAFAFA"/>
<path d="M6.85549 19.627C7.15853 19.6234 7.39393 19.8495 7.39664 20.1462C7.39844 20.4366 7.15583 20.6868 6.86901 20.6903C6.58761 20.6939 6.32786 20.441 6.32335 20.1587C6.31884 19.8665 6.55515 19.6306 6.85549 19.627Z" fill="#FAFAFA"/>
<path d="M33.0022 11.6743V14.9242H27.4951V11.6743C27.7747 11.6743 28.0624 11.6591 28.3474 11.6779C28.8372 11.7092 29.1943 11.5215 29.3431 11.0595C29.501 10.5708 29.7905 10.4198 30.31 10.4466C30.7114 10.4671 30.9567 10.544 31.0802 10.9389C31.2597 11.5108 31.6692 11.7431 32.2708 11.6797C32.5017 11.6547 32.738 11.6761 33.0013 11.6761L33.0022 11.6743ZM30.2532 14.6883C31.0234 14.6847 31.6421 14.0601 31.6304 13.2979C31.6187 12.5464 31.0054 11.9424 30.2514 11.9388C29.4811 11.9352 28.8606 12.5491 28.8615 13.3167C28.8615 14.086 29.4766 14.6918 30.2541 14.6883H30.2532Z" fill="#FAFAFA"/>
<path d="M30.2415 12.7439C30.5725 12.743 30.8475 13.0138 30.8385 13.331C30.8295 13.6392 30.5652 13.8894 30.2469 13.8903C29.9159 13.8921 29.6399 13.6196 29.6498 13.3033C29.6588 12.9959 29.9249 12.7457 30.2415 12.7448V12.7439Z" fill="#FAFAFA"/>
</g>
<defs>
<clipPath id="clip0_480_14848">
<rect width="31" height="24" fill="white" transform="translate(4 8)"/>
</clipPath>
</defs>
</svg>
