<svg width="142" height="142" viewBox="0 0 142 142" fill="none" xmlns="http://www.w3.org/2000/svg">
<circle cx="71" cy="71" r="71" fill="#1573FB"/>
<g clip-path="url(#clip0_480_15007)">
<path d="M26 59.1459C26.2943 57.8021 26.5198 56.437 26.8947 55.1144C29.3701 46.4042 37.1024 39.9802 46.1328 39.1205C53.1175 38.4545 59.1718 40.5659 64.1748 45.4359C69.3842 50.509 74.4916 55.6883 79.6179 60.8464C81.6163 62.8586 82.1787 65.3007 81.1867 67.9341C80.216 70.5084 78.2106 71.9183 75.448 72.1309C73.4426 72.2844 71.748 71.531 70.3359 70.1234C67.7822 67.5751 65.2285 65.0291 62.6819 62.476C62.4541 62.2469 62.2785 61.9659 62.0269 61.64C54.456 69.1905 47.0133 76.6135 39.535 84.072C39.3048 83.8689 39.1221 83.7272 38.9607 83.5642C36.2551 80.7962 33.4214 78.1392 30.8819 75.2272C28.1217 72.0624 26.6574 68.2411 26.1638 64.0655C26.1448 63.8978 26.057 63.7396 26 63.5742C26 62.0981 26 60.622 26 59.1459Z" fill="#FAFAFA"/>
<path d="M59.4352 108.268C55.3555 109.647 52.7401 109.123 50.7347 106.57C48.8835 104.213 48.9001 101.317 50.8676 98.3062C50.5116 98.4574 50.2695 98.5519 50.0322 98.6605C46.0758 100.47 41.5048 98.0937 40.8451 93.8118C40.5603 91.9578 40.997 90.1369 42.3189 88.8001C48.6984 82.3478 55.149 75.964 61.576 69.5589C61.678 69.4573 61.7943 69.3676 61.9462 69.2353C63.5553 70.8389 65.1312 72.4308 66.7308 73.999C73.2076 80.3545 84.0109 77.5345 86.4625 68.8078C87.6943 64.422 86.6121 60.5133 83.4698 57.2257C81.284 54.9419 79.008 52.7431 76.7628 50.5136C76.535 50.2869 76.243 50.1263 75.9582 49.9184C80.1733 45.7121 84.6185 42.323 90.4901 41.2838C101.853 39.274 112.949 46.0215 116.039 57.1147C118.467 65.8273 116.229 73.4227 109.747 79.7428C107.891 81.5519 105.94 83.2665 103.978 85.0756C102.048 83.1508 100.161 81.285 98.2935 79.4003C96.3284 77.4164 93.9765 76.5072 91.1759 76.6465C87.3241 76.8402 83.7403 80.0404 83.185 83.8546C83.1185 84.3152 83.0473 84.7781 82.9785 85.2221C77.2493 86.3061 75.4599 88.0916 74.2803 93.7882C73.1316 94.0976 71.9711 94.2629 70.9363 94.714C65.3448 97.149 63.8567 104.178 67.9934 108.663C69.555 110.354 71.2828 111.891 73.0153 113.577C72.2416 114.305 71.5676 114.945 70.8865 115.578C70.3026 116.121 69.7117 116.66 69.1207 117.196C66.5813 119.501 62.9311 119.602 60.3798 117.441C57.7905 115.25 57.2637 111.707 59.0958 108.816C59.1979 108.655 59.2952 108.49 59.4305 108.266L59.4352 108.268Z" fill="#FAFAFA"/>
<path d="M103.133 92.8363C102.9 94.4068 102.233 95.4956 100.911 96.1144C99.5846 96.7379 98.2366 96.6033 97.19 95.5995C94.482 93.0016 91.8215 90.3517 89.2133 87.6522C87.9317 86.3273 88.0717 84.2135 89.3533 82.924C90.6634 81.6061 92.8041 81.4809 94.1616 82.7893C96.8221 85.3518 99.4399 87.9592 101.998 90.6257C102.547 91.1972 102.76 92.09 103.128 92.8339L103.133 92.8363Z" fill="#FAFAFA"/>
<path d="M94.4393 101.533C94.1877 103.143 93.4923 104.241 92.1087 104.827C90.6894 105.429 89.3604 105.158 88.2639 104.088C86.0235 101.899 83.8187 99.6714 81.5997 97.4585C81.2437 97.1042 80.871 96.7617 80.5412 96.3862C79.2904 94.9668 79.3545 92.8885 80.6741 91.5824C81.9984 90.2716 84.1272 90.1677 85.4848 91.4808C88.1381 94.0504 90.7607 96.6555 93.3167 99.3219C93.865 99.8934 94.0738 100.786 94.4369 101.533H94.4393Z" fill="#FAFAFA"/>
<path d="M85.5275 110.321C85.4967 111.787 84.8203 112.874 83.4888 113.471C82.0886 114.102 80.7477 113.873 79.6298 112.819C78.296 111.563 77.0239 110.243 75.7257 108.951C74.5106 107.742 73.2883 106.539 72.0874 105.316C70.597 103.8 70.5614 101.658 71.9806 100.255C73.4118 98.8401 75.524 98.8873 77.05 100.396C79.4874 102.808 81.9058 105.238 84.3409 107.652C85.0861 108.391 85.5608 109.237 85.5275 110.318V110.321Z" fill="#FAFAFA"/>
</g>
<defs>
<clipPath id="clip0_480_15007">
<rect width="91" height="80" fill="white" transform="translate(26 39)"/>
</clipPath>
</defs>
</svg>
