<svg width="142" height="142" viewBox="0 0 142 142" fill="none" xmlns="http://www.w3.org/2000/svg">
<circle cx="71" cy="71" r="71" fill="#1573FB"/>
<g clip-path="url(#clip0_480_15019)">
<path d="M63.2207 80.853C63.3976 73.9743 66.4104 68.8051 71.6352 64.8097C72.9148 63.8319 74.2374 62.8929 75.4081 61.7966C77.248 60.0712 78.2734 58.0108 77.4272 55.3875C76.5379 52.6319 74.5301 51.2211 71.8054 50.7652C67.8806 50.1111 64.2892 50.9385 61.0654 53.3385C60.1284 54.0359 59.137 54.6923 58.0911 55.2074C54.1572 57.1402 50.4888 55.7385 48.7373 51.6997C47.2672 48.306 48.025 44.5271 50.7338 41.89C54.3138 38.4074 58.6424 36.4587 63.5042 35.5424C69.6184 34.3914 75.5351 35.0638 81.1547 37.6393C87.9222 40.7413 92.21 46.0746 93.6438 53.3977C94.912 59.8729 92.7431 65.4319 87.9335 69.8444C85.7669 71.8319 83.3349 73.539 80.955 75.2781C77.2139 78.0108 74.7116 81.5459 73.5296 86.0587C73.2437 87.1504 72.7537 88.2376 72.1366 89.1835C70.4487 91.7749 67.4495 91.8228 65.596 89.3407C64.3369 87.6541 63.8219 85.6598 63.4838 83.6245C63.3227 82.6558 63.2933 81.6644 63.2207 80.8553V80.853Z" fill="#FAFAFA"/>
<path d="M61.2991 106.129C61.3467 100.6 64.718 97.1857 69.8974 97.197C71.211 97.1993 72.5813 97.3612 73.8291 97.7577C77.1958 98.8244 79.1219 101.803 79.1991 105.746C79.283 109.94 76.9871 113.263 73.1417 114.512C69.2123 115.788 65.0901 114.503 62.8849 111.287C61.7528 109.635 61.2582 107.784 61.2968 106.129H61.2991Z" fill="#FAFAFA"/>
</g>
<defs>
<clipPath id="clip0_480_15019">
<rect width="46" height="80" fill="white" transform="translate(48 35)"/>
</clipPath>
</defs>
</svg>
