<svg width="142" height="142" viewBox="0 0 142 142" fill="none" xmlns="http://www.w3.org/2000/svg">
<circle cx="71" cy="71" r="71" fill="#1573FB"/>
<g clip-path="url(#clip0_480_14883)">
<path d="M28 103.647C28.1431 102.971 28.2549 102.289 28.4383 101.625C29.6549 97.1725 33.4635 94.0013 38.0794 93.762C40.5305 93.6346 43.0017 93.648 45.4528 93.7799C50.6076 94.0595 54.9462 98.5233 55.1743 103.669C55.2235 104.756 55.2414 105.847 55.1855 106.932C55.1699 107.238 54.9082 107.661 54.6398 107.807C49.8629 110.381 44.7483 111.295 39.3586 110.902C35.3152 110.604 31.5424 109.448 28 107.5C28 106.216 28 104.933 28 103.649V103.647Z" fill="#FAFAFA"/>
<path d="M113.877 107.498C109.387 110.011 104.551 111.127 99.4235 110.989C95.237 110.877 91.2584 109.915 87.5147 107.996C86.8885 107.674 86.5888 107.317 86.6537 106.59C86.7946 104.984 86.6559 103.322 87.0205 101.775C88.0984 97.2081 91.9852 94.0079 96.6772 93.7574C99.1014 93.6277 101.544 93.6389 103.968 93.7708C108.982 94.0459 113.144 98.0938 113.716 103.097C113.736 103.282 113.821 103.461 113.875 103.642V107.493L113.877 107.498Z" fill="#FAFAFA"/>
<path d="M71.2517 86.563C67.9821 86.563 64.7103 86.5675 61.4407 86.563C59.3497 86.5585 57.858 85.3218 57.7909 83.2308C57.7171 80.9541 56.7152 79.1829 55.2951 77.5481C53.3226 75.2782 51.5894 72.8763 50.8223 69.8974C48.1409 59.4938 53.7498 48.9067 63.9253 45.1943C75.1497 41.0995 87.6578 46.9745 91.2942 58.2123C93.1728 64.0157 92.8507 69.714 89.2882 74.9271C88.4562 76.1437 87.461 77.2507 86.5329 78.4024C85.4326 79.7688 84.8266 81.303 84.7282 83.072C84.6029 85.3307 83.2365 86.5607 80.9822 86.563C77.7395 86.5675 74.4967 86.563 71.2539 86.563H71.2517ZM71.1958 84.0694C74.4363 84.0694 77.6791 84.0716 80.9196 84.0694C81.9059 84.0694 82.1787 83.8256 82.2212 82.8662C82.3151 80.7685 83.0062 78.8899 84.2787 77.2283C84.8556 76.4746 85.4393 75.7255 86.0678 75.0165C89.8853 70.6981 90.592 65.6371 89.2725 60.2854C86.2981 48.2269 72.2044 42.618 61.4832 49.1281C53.6536 53.8827 51.0415 62.949 53.6335 70.4498C54.3983 72.6638 55.9123 74.3926 57.3861 76.1414C59.0433 78.1072 60.2353 80.2541 60.2688 82.9154C60.28 83.801 60.6356 84.0694 61.5547 84.0694C64.7684 84.0761 67.9821 84.0716 71.1958 84.0716V84.0694Z" fill="#FAFAFA"/>
<path d="M49.9703 82.9668C49.9636 87.5335 46.231 91.2481 41.6509 91.2481C37.0372 91.2481 33.2913 87.4865 33.3248 82.884C33.3584 78.2995 37.0864 74.587 41.6509 74.5938C46.2713 74.6027 49.9792 78.333 49.9725 82.9646L49.9703 82.9668Z" fill="#FAFAFA"/>
<path d="M108.555 82.893C108.581 87.4642 104.869 91.2258 100.305 91.2481C95.7088 91.2705 91.9293 87.576 91.9092 83.0406C91.8868 78.3486 95.5948 74.5893 100.237 74.5938C104.813 74.5982 108.526 78.3039 108.555 82.893Z" fill="#FAFAFA"/>
<path d="M42.134 63.9285C42.863 63.1659 43.5787 62.3921 44.3211 61.6452C44.9943 60.9676 45.7681 60.9184 46.2981 61.4797C46.8102 62.0187 46.7431 62.7388 46.0901 63.3963C44.6745 64.8231 43.2521 66.2432 41.8231 67.6566C41.0448 68.4259 40.4231 68.4349 39.6627 67.6834C38.2136 66.2521 36.7711 64.8097 35.3376 63.3627C34.7069 62.7254 34.6599 61.9628 35.1833 61.4439C35.7066 60.9295 36.4714 60.9787 37.1066 61.6116C37.8177 62.3183 38.5021 63.0541 39.3027 63.8883C39.4615 62.4324 39.5465 61.1442 39.7522 59.874C41.2595 50.5751 46.0432 43.3963 53.8906 38.2213C54.5996 37.7539 55.3286 37.8881 55.7356 38.4852C56.1829 39.1427 55.9884 39.8315 55.1497 40.3772C51.7348 42.6024 48.8767 45.3844 46.6269 48.7837C43.7956 53.0642 42.2793 57.7807 41.9304 62.8864C41.9103 63.1883 41.9282 63.4947 41.9282 63.7988C41.9953 63.8413 42.0646 63.8838 42.1317 63.9285H42.134Z" fill="#FAFAFA"/>
<path d="M103.165 63.9418C104.028 63.0428 104.708 62.3115 105.415 61.6071C106.054 60.9719 106.808 60.9294 107.331 61.4572C107.857 61.9872 107.808 62.7275 107.168 63.3738C105.735 64.8207 104.294 66.261 102.843 67.6923C102.107 68.4191 101.47 68.4258 100.743 67.7079C99.2714 66.2587 97.811 64.7984 96.3596 63.3291C95.7625 62.7253 95.7222 61.9828 96.212 61.4706C96.7197 60.9384 97.5158 60.9652 98.1375 61.5847C98.9046 62.3495 99.6382 63.1479 100.387 63.9329C100.475 63.8971 100.564 63.8591 100.651 63.8233C100.515 62.5217 100.459 61.209 100.233 59.9231C98.7704 51.6104 94.481 45.1294 87.4521 40.4486C86.8281 40.0326 86.3339 39.563 86.6425 38.7378C86.9556 37.9014 87.8367 37.7135 88.7291 38.2905C92.8776 40.9719 96.2366 44.4182 98.766 48.6606C101.427 53.1267 102.821 57.9752 103.109 63.1524C103.118 63.3179 103.134 63.4834 103.167 63.9418H103.165Z" fill="#FAFAFA"/>
<path d="M79.8461 88.8419C79.8461 90.1971 79.9289 91.4517 79.7992 92.684C79.7589 93.0754 79.1998 93.4824 78.7906 93.7418C78.5177 93.914 78.0861 93.8603 77.726 93.8603C73.4255 93.867 69.1227 93.867 64.8221 93.8626C63.0218 93.8626 62.6014 93.4354 62.6014 91.6396C62.6014 90.9418 62.6327 90.2441 62.5924 89.5486C62.5611 88.9917 62.7758 88.8284 63.3148 88.8352C65.3812 88.8575 67.4476 88.8441 69.514 88.8441C72.92 88.8441 76.3261 88.8441 79.8461 88.8441V88.8419Z" fill="#FAFAFA"/>
<path d="M67.1502 96.3384H75.3241C75.6194 97.4812 75.0781 98.8409 73.9421 99.6482C72.3878 100.753 70.7306 100.845 69.0533 99.9591C67.6422 99.2144 66.969 97.8882 67.1524 96.3384H67.1502Z" fill="#FAFAFA"/>
<path d="M72.4974 36.0029C72.4974 37.2016 72.513 38.4025 72.4929 39.6012C72.4772 40.4712 71.9964 40.999 71.2763 41.0124C70.5539 41.0258 70.0016 40.498 69.9904 39.6504C69.9635 37.224 69.9635 34.7975 69.9904 32.371C69.9993 31.5324 70.5539 30.9912 71.2674 30.9979C71.9785 31.0068 72.475 31.548 72.4907 32.4046C72.513 33.6033 72.4974 34.802 72.4974 36.0029Z" fill="#FAFAFA"/>
<path d="M65.7636 40.5962C65.4505 40.9809 65.2313 41.4997 64.878 41.616C64.4799 41.748 63.8426 41.6697 63.5183 41.417C62.7333 40.802 62.0691 40.0327 61.3579 39.3215C60.3516 38.3151 59.3385 37.3155 58.341 36.3001C57.6657 35.6136 57.6165 34.851 58.1845 34.3209C58.7235 33.8177 59.4525 33.8804 60.1078 34.5289C61.7739 36.1771 63.4355 37.8321 65.077 39.5049C65.3342 39.7665 65.4796 40.1355 65.7658 40.5962H65.7636Z" fill="#FAFAFA"/>
<path d="M78.0771 41.9159C77.7417 41.661 77.2273 41.4664 77.1088 41.1309C76.9657 40.7239 76.9768 40.0306 77.2363 39.7578C78.9963 37.8927 80.8257 36.0879 82.6684 34.301C83.1694 33.8157 83.7956 33.856 84.3301 34.339C84.8266 34.7885 84.8825 35.5467 84.3815 36.0588C82.6058 37.8748 80.8055 39.6639 78.9963 41.444C78.7928 41.6453 78.4663 41.7213 78.0771 41.9137V41.9159Z" fill="#FAFAFA"/>
<path d="M80.8592 68.5401C81.4138 69.4279 81.8522 70.1682 82.3308 70.8794C82.8138 71.6039 82.7244 72.2212 82.1116 72.8183C81.2305 73.6748 80.365 74.547 79.5017 75.4215C78.9225 76.0074 78.303 76.0633 77.6165 75.6294C76.8717 75.1598 76.1226 74.6946 75.2437 74.1467C75.0111 75.1374 74.8165 75.9627 74.6219 76.7856C74.3938 77.7518 74.0517 78.0291 73.052 78.0358C71.8779 78.0425 70.7038 78.0403 69.5297 78.0358C68.4473 78.0313 68.1588 77.8032 67.9038 76.7633C67.707 75.9604 67.5169 75.1576 67.2799 74.1758C66.5531 74.6164 65.9224 74.9898 65.3007 75.3767C64.0528 76.1595 63.7419 76.1304 62.7042 75.0972C61.9327 74.3279 61.1723 73.5496 60.3918 72.7915C59.8036 72.2189 59.7097 71.6218 60.1682 70.9241C60.6423 70.2017 61.0851 69.4615 61.6375 68.5736C60.8324 68.3679 60.1033 68.1644 59.3676 67.9967C57.9385 67.6701 57.7216 67.413 57.7193 65.9683C57.7193 64.935 57.7126 63.9041 57.7193 62.8709C57.7283 61.8086 58.028 61.4329 59.0724 61.1846C59.8797 60.9923 60.6893 60.8156 61.6621 60.5964C61.1365 59.7578 60.6781 59.0422 60.233 58.3176C59.6762 57.4141 59.7209 57.0071 60.4701 56.2534C61.3154 55.4013 62.1765 54.5649 63.0173 53.7061C63.5988 53.1135 64.216 53.0688 64.9026 53.4959C65.6473 53.9611 66.3965 54.424 67.2687 54.9675C67.5102 53.979 67.707 53.1538 67.9105 52.3285C68.1543 51.3468 68.4764 51.0873 69.4783 51.0829C70.7083 51.0762 71.9383 51.094 73.1683 51.0762C73.9712 51.065 74.4184 51.4675 74.5973 52.2078C74.8031 53.0665 74.9887 53.9298 75.2235 54.963C75.9817 54.5023 76.6369 54.1087 77.2855 53.7061C78.4529 52.9793 78.8062 53.0106 79.7589 53.9566C80.3337 54.5269 80.9062 55.0994 81.4787 55.6719C82.491 56.6828 82.6215 57.7823 81.8701 58.9706C81.5614 59.4604 81.2618 59.9546 80.8682 60.592C81.7605 60.7955 82.5298 60.9766 83.3014 61.1488C84.5068 61.4194 84.7796 61.7482 84.7863 62.9827C84.793 64.0427 84.7953 65.1028 84.7863 66.1628C84.7774 67.3861 84.5001 67.7037 83.279 67.9743C82.5231 68.142 81.7694 68.3254 80.8592 68.5379V68.5401ZM77.5203 64.5973C77.536 61.1063 74.7673 58.2952 71.292 58.2706C67.8479 58.2482 64.9943 61.0683 64.9652 64.528C64.9362 67.9363 67.7518 70.8145 71.1377 70.8391C74.6957 70.8659 77.5046 68.1174 77.5203 64.5973Z" fill="#FAFAFA"/>
</g>
<defs>
<clipPath id="clip0_480_14883">
<rect width="85.8772" height="80" fill="white" transform="translate(28 31)"/>
</clipPath>
</defs>
</svg>
