<svg width="40" height="40" viewBox="0 0 40 40" fill="none" xmlns="http://www.w3.org/2000/svg">
<circle cx="20" cy="20" r="20" fill="#1573FB"/>
<g clip-path="url(#clip0_480_14809)">
<path d="M17.6155 29.4878C17.7015 29.0691 17.7899 28.651 17.8725 28.2317C18.215 26.489 18.5592 24.7462 18.8913 23.0018C18.9154 22.8746 18.8839 22.7039 18.8145 22.5953C18.2718 21.7474 17.713 20.91 17.1376 20.0366H21.8503C21.7895 20.1342 21.7396 20.2172 21.6863 20.2985C21.1791 21.0709 20.6674 21.8403 20.1683 22.6179C20.1075 22.7131 20.0765 22.8618 20.0978 22.9727C20.5039 25.0842 20.9193 27.194 21.3346 29.3037C21.3466 29.3659 21.3748 29.4245 21.4132 29.5354C22.3626 26.331 23.2977 23.176 24.2362 20.0105C25.3928 20.018 26.4018 20.3804 27.2687 21.1167C28.3804 22.061 28.9696 23.2846 28.9857 24.7503C29.0115 27.104 28.9931 29.4582 28.9931 31.8124C28.9931 31.867 28.9874 31.9222 28.9834 32.0006H10.0011C10.0011 31.9001 10.0011 31.8008 10.0011 31.7015C10.0011 29.4321 9.99828 27.162 10.0023 24.8926C10.0063 22.5198 11.5397 20.5982 13.8293 20.1022C14.1247 20.0383 14.431 20.0267 14.7523 19.9884C15.6971 23.176 16.6322 26.3316 17.5673 29.4872C17.5834 29.4872 17.5994 29.4878 17.6155 29.4884V29.4878Z" fill="#FAFAFA"/>
<path d="M19.5063 8.00003C22.1337 8.00991 24.2511 10.1626 24.2425 12.8154C24.2339 15.4756 22.1056 17.6231 19.4891 17.6133C16.8628 17.6034 14.7431 15.4483 14.7523 12.7979C14.7609 10.1382 16.8892 7.99016 19.5063 8.00003Z" fill="#FAFAFA"/>
</g>
<defs>
<clipPath id="clip0_480_14809">
<rect width="19" height="24" fill="white" transform="translate(10 8)"/>
</clipPath>
</defs>
</svg>
