<svg width="142" height="142" viewBox="0 0 142 142" fill="none" xmlns="http://www.w3.org/2000/svg">
<circle cx="71" cy="71" r="71" fill="#1573FB"/>
<g clip-path="url(#clip0_480_15031)">
<path d="M31 108.032C31.5779 106.734 32.5668 106.175 33.9854 106.307C34.5738 106.361 35.1704 106.315 35.8464 106.315C35.8464 105.968 35.8464 105.691 35.8464 105.413C35.8464 100.336 35.8464 95.2584 35.8464 90.1809C35.8464 88.4905 36.7602 87.5702 38.4355 87.5681C41.4042 87.566 44.3709 87.5639 47.3396 87.5681C48.9669 87.5681 49.8974 88.503 49.8995 90.1329C49.9016 95.2104 49.8995 100.288 49.8995 105.365C49.8995 105.647 49.8995 105.931 49.8995 106.263H54.5915V105.334C54.5915 98.4347 54.5915 91.5353 54.5915 84.6339C54.5915 82.837 55.4761 81.9417 57.2578 81.9417C60.1994 81.9417 63.141 81.9397 66.0827 81.9417C67.71 81.9417 68.6425 82.8767 68.6425 84.5066C68.6446 91.4331 68.6425 98.3575 68.6425 105.284C68.6425 105.593 68.6425 105.902 68.6425 106.261H73.3345C73.3345 105.943 73.3345 105.639 73.3345 105.334C73.3345 95.5693 73.3345 85.8067 73.3345 76.042C73.3345 74.241 74.2191 73.3478 75.9987 73.3457C78.9403 73.3457 81.882 73.3436 84.8236 73.3457C86.4509 73.3457 87.3855 74.2807 87.3855 75.9085C87.3876 85.6982 87.3855 95.4879 87.3855 105.278V106.256H92.0776V105.334C92.0776 90.4146 92.0984 75.4952 92.0504 60.5759C92.0442 58.6809 93.2417 57.6375 94.8961 57.6938C97.7564 57.7898 100.623 57.7189 103.485 57.7209C105.221 57.7209 106.131 58.6267 106.131 60.3588C106.131 75.3304 106.131 90.3019 106.131 105.271V106.309C106.892 106.309 107.61 106.309 108.327 106.309C109.742 106.311 110.687 106.985 110.942 108.166C111.184 109.295 110.624 110.257 109.362 110.883C109.321 110.904 109.293 110.956 109.258 110.992H32.7191C31.9326 110.633 31.3526 110.067 31 109.274V108.024V108.032Z" fill="#FAFAFA"/>
<path d="M31 78.3481C31.6321 77.0563 32.6711 76.6347 34.0898 76.6243C42.535 76.5638 50.6339 74.7085 58.4448 71.599C71.8512 66.2627 83.3215 58.1405 92.862 47.3114C95.618 44.1831 98.0672 40.8232 100.249 37.0354C99.1667 37.3193 98.2362 37.5613 97.3057 37.8076C95.1986 38.3648 93.0957 38.9429 90.9823 39.473C89.9204 39.7401 88.8626 39.2037 88.3723 38.2417C87.9071 37.3297 88.1136 36.1381 88.9169 35.4682C89.2235 35.2115 89.6178 35.0111 90.0059 34.9068C94.7125 33.6233 99.4254 32.3545 104.14 31.0961C105.463 30.7434 106.696 31.4195 107.061 32.7531C108.369 37.5342 109.659 42.3216 110.921 47.1153C111.259 48.4029 110.468 49.6404 109.229 49.943C108.031 50.2352 106.673 49.4297 106.327 48.1712C105.63 45.644 104.964 43.1084 104.284 40.5769C104.232 40.3829 104.161 40.1929 104.094 39.9822C102.839 41.827 101.683 43.6823 100.373 45.4228C89.9516 59.2757 76.5703 69.2742 60.5728 75.8229C54.5644 78.2834 48.3306 79.9759 41.8861 80.7919C39.2595 81.1237 36.5975 81.1675 33.9542 81.3679C32.5334 81.4764 31.5362 80.9359 31 79.5982L31 78.3481Z" fill="#FAFAFA"/>
<path d="M31 109.282C31.3505 110.078 31.9305 110.643 32.7191 111H31V109.282Z" fill="white"/>
</g>
<defs>
<clipPath id="clip0_480_15031">
<rect width="80" height="80" fill="white" transform="translate(31 31)"/>
</clipPath>
</defs>
</svg>
