<svg width="142" height="142" viewBox="0 0 142 142" fill="none" xmlns="http://www.w3.org/2000/svg">
<circle cx="71" cy="71" r="71" fill="#1573FB"/>
<g clip-path="url(#clip0_480_14995)">
<path d="M49.3078 75.3701C46.6665 74.1155 45.2312 72.0336 45.0208 69.0929C44.7792 65.7521 46.7269 62.7339 49.8556 61.6699C51.7116 61.0395 53.3906 61.362 54.8091 62.78C54.8654 62.8345 54.9153 62.8952 54.9716 62.9497C55.6007 63.5466 56.2443 63.6011 56.7672 63.1005C57.2963 62.5936 57.3129 61.8396 56.7401 61.2175C55.2653 59.6152 53.4239 58.8109 51.2513 58.8968C50.6534 58.9198 50.4576 58.7439 50.3222 58.1805C49.5619 55.0282 51.8637 51.5367 55.1757 50.9334C57.5692 50.4978 59.5251 51.2434 60.9666 53.25C61.1041 53.4406 61.2562 53.6207 61.4124 53.7945C61.8977 54.3328 62.4477 54.3286 63.0247 53.9642C63.6267 53.5851 63.66 53.0321 63.385 52.4582C62.6497 50.9334 61.3666 49.97 59.9438 49.1636C59.7418 49.0505 59.5251 48.9625 59.3189 48.8661C59.723 47.3916 61.3832 46.1642 63.083 46.0658C66.1305 45.8898 68.3365 47.9718 68.3365 51.0361C68.3385 62.7444 68.349 74.4506 68.3115 86.159C68.3094 87.0135 68.0615 87.9163 67.7199 88.7059C67.2512 89.7888 66.4513 90.4506 65.0973 90.3124C63.835 90.1846 62.5477 90.3187 61.2749 90.2642C60.9041 90.2475 60.4563 90.0715 60.1917 89.8139C59.3668 89.0117 58.8856 88.0105 58.7919 86.8397C58.6919 85.5893 59.1627 84.6677 60.2834 84.0728C61.102 83.6372 61.3436 83.0298 61.0229 82.3616C60.6937 81.6767 60.0688 81.461 59.2314 81.8296C57.69 82.5082 56.7901 83.721 56.4547 85.3652C56.3922 85.671 56.3527 85.983 56.2902 86.3768C54.1967 86.3684 52.5094 85.56 51.3179 83.8341C49.0995 80.6169 50.418 76.2415 54.0217 74.7564C54.3571 74.6182 54.7112 74.526 55.0528 74.4046C55.8173 74.1365 56.1777 73.5312 55.986 72.8379C55.8131 72.2137 55.1695 71.8032 54.4321 72.0147C53.6426 72.2409 52.874 72.574 52.1449 72.9552C51.5991 73.2421 51.1075 73.6526 50.6326 74.0569C50.1785 74.4423 49.7765 74.8926 49.3036 75.3618L49.3078 75.3701Z" fill="#FAFAFA"/>
<path d="M80.6431 90.2518H73.7795V89.3846C73.7795 75.2446 73.7795 61.1045 73.7795 46.9665C73.7795 45.1757 74.4002 44.6249 76.1729 44.828C84.3072 45.7664 91.0917 52.0269 92.6874 60.1473C94.1351 67.5116 92.1333 73.7763 86.5632 78.8304C83.3282 81.7648 81.3618 85.359 80.7994 89.7114C80.7869 89.814 80.764 89.9166 80.7348 90.0172C80.714 90.0905 80.6786 90.1617 80.6431 90.2497V90.2518ZM89.5149 63.3519C89.2149 59.098 87.5443 55.5519 84.5364 52.6469C82.9637 51.1262 81.1389 49.9952 79.0579 49.2998C78.3809 49.0736 77.8852 49.3166 77.5561 49.9135C77.2498 50.4727 77.3852 50.9922 77.8477 51.3901C78.0768 51.5849 78.3872 51.6959 78.6747 51.809C81.5659 52.9568 83.7469 54.9236 85.2988 57.6109C86.4694 59.6404 87.0006 61.846 87.0694 64.1793C87.0923 64.9479 87.5151 65.3543 88.2213 65.3815C88.9816 65.4108 89.4357 65.0171 89.5086 64.2316C89.5378 63.9216 89.5128 63.6074 89.5128 63.354L89.5149 63.3519Z" fill="#FAFAFA"/>
<path d="M70.7007 97.8339C66.3534 97.8339 62.0061 97.813 57.6608 97.8549C56.9109 97.8612 56.5818 97.5365 56.3339 96.9354C55.5028 94.9079 56.9921 92.5013 59.1752 92.4929C66.8783 92.4615 74.5835 92.4573 82.2887 92.4929C84.6218 92.5055 86.0632 95.0336 85.0363 97.1281C84.7967 97.6161 84.4926 97.8528 83.8969 97.8486C79.4974 97.8193 75.1001 97.8339 70.7007 97.8339Z" fill="#FAFAFA"/>
<path d="M70.7194 100.016C75.0897 100.016 79.4599 100.033 83.8302 99.9975C84.4967 99.9912 84.8217 100.257 85.0696 100.806C86.0028 102.869 84.5259 105.326 82.247 105.353C78.1643 105.406 74.0794 105.376 69.9945 105.374C66.3783 105.374 62.7622 105.403 59.1481 105.347C56.9942 105.313 55.5319 102.968 56.3151 100.957C56.5651 100.318 56.9067 99.9849 57.6878 99.9933C62.031 100.037 66.3763 100.014 70.7215 100.014L70.7194 100.016Z" fill="#FAFAFA"/>
<path d="M62.0019 107.573H79.5183C79.385 107.984 79.3141 108.357 79.1475 108.681C78.3976 110.152 77.1978 110.973 75.5376 110.985C72.338 111.011 69.1384 111.002 65.9389 110.99C63.9683 110.981 62.3768 109.611 62.0019 107.576V107.573Z" fill="#FAFAFA"/>
<path d="M90.5168 79.8209C90.9605 80.0848 91.3167 80.2126 91.5625 80.4556C93.4518 82.3218 95.3245 84.2027 97.1888 86.0919C97.822 86.7349 97.8325 87.3863 97.2763 87.9498C96.7201 88.5153 96.0556 88.5153 95.4244 87.8869C93.5226 85.9977 91.6354 84.0938 89.7502 82.1898C89.3565 81.7919 89.119 81.2871 89.4669 80.7844C89.7252 80.4116 90.146 80.1519 90.5189 79.8188L90.5168 79.8209Z" fill="#FAFAFA"/>
<path d="M90.4751 48.9019C90.1085 48.571 89.7003 48.3322 89.4815 47.974C89.1795 47.4797 89.3441 46.975 89.7607 46.5582C90.9063 45.4166 92.0437 44.2668 93.1852 43.1211C93.9393 42.3628 94.685 41.5962 95.4557 40.8527C96.0598 40.2683 96.7181 40.2495 97.2513 40.7605C97.8283 41.3114 97.8533 41.9879 97.2305 42.6247C95.3703 44.5265 93.4914 46.4115 91.5958 48.2778C91.3375 48.5312 90.9459 48.6464 90.4751 48.9019Z" fill="#FAFAFA"/>
<path d="M72.5317 36.3326C72.5317 35.0256 72.5192 33.7186 72.5359 32.4138C72.5463 31.5278 73.0108 31.0125 73.7566 31C74.5315 30.9874 75.0418 31.5341 75.0439 32.441C75.0543 35.0549 75.0543 37.6668 75.0439 40.2808C75.0418 41.1626 74.5023 41.7616 73.767 41.7553C73.0463 41.7469 72.5463 41.1961 72.5359 40.331C72.5192 38.9989 72.5317 37.6647 72.5297 36.3326H72.5317Z" fill="#FAFAFA"/>
<path d="M101.678 65.6392C100.403 65.6392 99.1281 65.6454 97.8533 65.6392C96.8743 65.6329 96.3202 65.1595 96.3223 64.3573C96.3264 63.5886 96.8472 63.1027 97.7867 63.0964C100.363 63.0776 102.938 63.0776 105.515 63.0964C106.51 63.1027 107.027 63.5949 107 64.4118C106.975 65.1867 106.444 65.6329 105.502 65.6392C104.227 65.6475 102.953 65.6412 101.678 65.6412V65.6392Z" fill="#FAFAFA"/>
</g>
<defs>
<clipPath id="clip0_480_14995">
<rect width="62" height="80" fill="white" transform="translate(45 31)"/>
</clipPath>
</defs>
</svg>
