<svg width="49" height="32" viewBox="0 0 49 32" fill="none" xmlns="http://www.w3.org/2000/svg">
<path d="M8.85303 16.4134C9.25265 13.9514 10.5514 11.8106 13.1775 11.5608C13.4416 11.5394 13.7056 11.5323 13.9697 11.5537L14.5691 11.6251C14.5691 11.6251 19.6358 14.558 26.8076 21.3659C33.9795 28.1738 37.3977 25.9188 38.9319 23.0144C38.8963 23.1143 35.8991 31.8347 30.0546 28.8589C24.2957 25.9188 14.3407 17.7122 8.85303 16.4134Z" fill="url(#paint0_linear_799_3428)"/>
<path d="M2.38048 25.4653C5.56321 26.4929 8.21786 26.0005 10.3801 24.9443C13.0348 23.6456 14.9544 21.4976 16.2318 20.263C18.551 18.0151 23.0682 11.0217 28.8414 4.36365C30.8252 2.07294 33.4799 0.0962238 36.6055 0.00345374C37.7045 -0.0322271 38.7749 0.210402 39.774 0.645708C41.5794 1.43069 43.1708 2.83651 44.3482 4.4136C48.7727 10.3438 49.7931 18.6003 47.0386 25.2441C43.0066 34.9706 35.0855 31.6809 32.8662 30.5177L32.7948 30.482L32.6806 30.4178L32.6449 30.3964L29.5835 28.7622C29.5835 28.7622 29.6406 28.7907 29.6692 28.805C35.4851 31.7736 38.4823 23.1389 38.5465 22.9676C40.0737 18.1293 38.0756 13.2125 37.4048 11.6711C36.3771 9.29474 33.173 5.19144 29.4765 8.2029C25.7871 11.2144 21.7623 23.6527 16.5386 27.4777C11.3506 31.2741 2.49466 25.558 2.36621 25.4795L2.38048 25.4653Z" fill="url(#paint1_linear_799_3428)"/>
<path d="M10.7653 25.005C10.7653 25.005 10.801 24.9836 10.8224 24.9765L10.5513 24.5626C10.4299 24.3699 10.2872 24.1772 10.2444 24.0916C9.84478 23.3137 9.50225 22.5002 9.23107 21.6724C8.74582 20.1524 8.56027 18.2042 8.85286 16.4202C9.25248 13.9582 10.5513 11.8174 13.1774 11.5676C13.4414 11.5462 13.7054 11.5391 13.9695 11.5605C14.1693 11.5748 14.3691 11.5962 14.5689 11.6318C14.5689 11.6318 8.21774 9.12705 1.9736 15.8279C-2.88613 21.0516 2.75858 25.5259 2.75858 25.5259C5.9413 26.5536 8.59595 26.0612 10.7582 25.005" fill="url(#paint2_linear_799_3428)"/>
<defs>
<linearGradient id="paint0_linear_799_3428" x1="8.85303" y1="20.5167" x2="38.9319" y2="20.5167" gradientUnits="userSpaceOnUse">
<stop stop-color="#FFA000"/>
<stop offset="0.7" stop-color="#F4511E"/>
</linearGradient>
<linearGradient id="paint1_linear_799_3428" x1="45.49" y1="5.36271" x2="13.884" y2="36.9688" gradientUnits="userSpaceOnUse">
<stop offset="0.1" stop-color="#1A237E"/>
<stop offset="0.8" stop-color="#00ACC1"/>
</linearGradient>
<linearGradient id="paint2_linear_799_3428" x1="0.00401798" y1="18.6324" x2="14.5689" y2="18.6324" gradientUnits="userSpaceOnUse">
<stop stop-color="#FFA000"/>
<stop offset="0.7" stop-color="#F4511E"/>
</linearGradient>
</defs>
</svg>
