<svg width="141" height="20" viewBox="0 0 141 20" fill="none" xmlns="http://www.w3.org/2000/svg">
<path d="M37.7203 14.7042C38.0742 14.8466 38.5988 14.9383 39.2939 14.9806V15.2782H31.4486V14.9806C32.1424 14.9383 32.6683 14.8466 33.0222 14.7042C33.3761 14.5631 33.6214 14.3361 33.7554 14.023C33.8894 13.7113 33.957 13.2501 33.957 12.6409V3.15493H33.8936L28.5144 15.5546H28.451L22.6883 3.19865H22.6249V12.6409C22.6249 13.2501 22.6954 13.7113 22.8378 14.023C22.9788 14.3347 23.2241 14.5617 23.571 14.7042C23.9178 14.8466 24.4395 14.9383 25.1333 14.9806V15.2782H19.1478V14.9806C19.8415 14.9383 20.3632 14.8466 20.7101 14.7042C21.0569 14.5631 21.3023 14.3361 21.4433 14.023C21.5843 13.7113 21.6562 13.2501 21.6562 12.6409V3.13377C21.6562 2.5245 21.5857 2.06332 21.4433 1.75164C21.3009 1.43995 21.0569 1.21289 20.7101 1.07045C20.3618 0.929413 19.8415 0.83633 19.1478 0.79402V0.496439H24.5171L29.4211 11.2051L34.177 0.496439H39.2939V0.79402C38.5988 0.83633 38.0742 0.929413 37.7203 1.07045C37.3664 1.21289 37.1182 1.44278 36.9758 1.76151C36.8334 2.08025 36.7629 2.5372 36.7629 3.13377V12.6409C36.7629 13.2501 36.8334 13.7113 36.9758 14.023C37.1182 14.3361 37.3664 14.5617 37.7203 14.7042ZM48.3799 7.53685C48.8184 8.34497 49.0384 9.25887 49.0384 10.28C49.0384 11.301 48.8184 12.2149 48.3799 13.0231C47.94 13.8312 47.3281 14.456 46.5413 14.8946C45.7545 15.3346 44.8577 15.5546 43.851 15.5546C42.8443 15.5546 41.9517 15.3346 41.172 14.8946C40.3923 14.456 39.7789 13.8312 39.3334 13.0231C38.8864 12.2149 38.6636 11.301 38.6636 10.28C38.6636 9.25887 38.8864 8.34497 39.3334 7.53685C39.7803 6.72872 40.3923 6.10535 41.172 5.66533C41.9517 5.2253 42.8443 5.00529 43.851 5.00529C44.8577 5.00529 45.7545 5.2253 46.5413 5.66533C47.3281 6.10535 47.94 6.72872 48.3799 7.53685ZM46.2536 10.28C46.2536 9.27297 46.1578 8.40843 45.966 7.68493C45.7742 6.96143 45.4979 6.41281 45.1369 6.03625C44.776 5.6611 44.3459 5.47211 43.851 5.47211C43.3547 5.47211 42.926 5.65969 42.5651 6.03625C42.2041 6.41281 41.9278 6.96143 41.736 7.68493C41.5442 8.40843 41.4484 9.27297 41.4484 10.28C41.4484 11.2869 41.5442 12.1515 41.736 12.875C41.9278 13.5985 42.2041 14.1471 42.5651 14.5237C42.926 14.9002 43.3547 15.0878 43.851 15.0878C44.3473 15.0878 44.776 14.9002 45.1369 14.5237C45.4979 14.1485 45.7742 13.5985 45.966 12.875C46.1578 12.1515 46.2536 11.2869 46.2536 10.28ZM56.2477 7.28157C56.6157 7.28157 56.9499 7.34504 57.2474 7.47338V5.13363C57.0627 5.04901 56.8442 5.0067 56.5889 5.0067C55.9361 5.0067 55.3594 5.29441 54.856 5.86842C54.3527 6.44242 53.9607 7.10246 53.5969 8.4169H53.549V5.09132H53.4644L49.2541 6.30421V6.58064C49.7363 6.58064 50.1086 6.62718 50.3708 6.71885C50.6331 6.81052 50.8206 6.96002 50.9348 7.16593C51.0476 7.37184 51.1055 7.65108 51.1055 8.00649V13.2812C51.1055 13.7212 51.0631 14.047 50.9785 14.2599C50.8939 14.4729 50.7374 14.6323 50.5104 14.738C50.2834 14.8438 49.9225 14.9256 49.4261 14.982V15.2796H55.3369V14.982C54.8405 14.9397 54.4683 14.865 54.2201 14.7592C53.972 14.6534 53.7986 14.4898 53.6999 14.2698C53.6012 14.0498 53.5504 13.7198 53.5504 13.2812V9.10091C53.996 8.05303 54.9773 7.28157 56.2477 7.28157ZM87.2748 14.2472C87.1902 14.0272 87.1479 13.6986 87.1479 13.2586V8.40843C87.1479 6.13074 85.8873 5.00529 84.2348 5.00529C82.5823 5.00529 81.5206 6.17587 81.0665 6.79924H81.0242V5.09132H80.9396L76.7294 6.30421V6.58064C77.1975 6.58064 77.5655 6.62718 77.8348 6.71885C78.1041 6.81052 78.2959 6.95579 78.4087 7.15464C78.5215 7.3535 78.5793 7.62993 78.5793 7.98392V13.2572C78.5793 13.6972 78.537 14.0272 78.4524 14.2458C78.3678 14.4658 78.2113 14.628 77.9843 14.7352C77.7573 14.841 77.3963 14.9228 76.9 14.9792V15.2768H82.4286V14.9792C82.0465 14.9228 81.7518 14.841 81.5459 14.7352C81.3401 14.6294 81.2019 14.4658 81.1314 14.2458C81.0609 14.0258 81.0257 13.6972 81.0257 13.2572V7.5721C81.5149 6.97835 82.0902 6.40858 83.025 6.40858C84.3095 6.40858 84.7043 7.37748 84.7043 8.4719V13.2572C84.7043 13.6972 84.6649 14.0272 84.5873 14.2458C84.5098 14.4658 84.3744 14.628 84.1826 14.7352C83.9909 14.841 83.6976 14.9228 83.3 14.9792V15.2768H88.7651V14.9792C88.297 14.9228 87.953 14.841 87.7344 14.7352C87.5117 14.6294 87.3608 14.4672 87.2748 14.2472ZM141 12.3433C140.53 13.3686 139.221 15.5546 136.556 15.5546C134.025 15.5546 131.921 13.4842 131.921 10.366C131.921 9.38721 132.134 8.48741 132.558 7.66519C132.984 6.84296 133.561 6.1942 134.291 5.71892C135.022 5.24364 135.825 5.0067 136.705 5.0067C139.259 5.0067 140.532 6.80629 140.532 8.68204V9.10514H134.197C134.197 9.14322 134.195 9.17989 134.195 9.21797C134.195 11.4745 135.199 13.6422 137.725 13.6422C139.645 13.6422 140.449 12.5788 140.765 12.1966L141 12.3433ZM134.24 8.38728H138.214C138.187 6.84578 137.727 5.50032 136.471 5.49468C135.292 5.49045 134.438 6.59051 134.24 8.38728ZM112.799 14.2472C112.714 14.0272 112.672 13.6986 112.672 13.2586V8.40843C112.672 7.67083 112.548 7.04746 112.299 6.53692C112.051 6.02637 111.707 5.64417 111.269 5.3889C110.829 5.13363 110.325 5.0067 109.759 5.0067C109.106 5.0067 108.529 5.17312 108.026 5.50596C107.522 5.8388 107.044 6.31831 106.59 6.94168H106.548V0H106.463L102.253 1.21289V1.48932C102.721 1.48932 103.089 1.53586 103.359 1.62753C103.628 1.7192 103.82 1.86447 103.933 2.06332C104.045 2.26218 104.103 2.53861 104.103 2.8926V13.2572C104.103 13.6972 104.061 14.0272 103.976 14.2458C103.892 14.4658 103.735 14.628 103.508 14.7352C103.281 14.841 102.92 14.9228 102.424 14.9792V15.2768H107.952V14.9792C107.57 14.9228 107.276 14.841 107.07 14.7352C106.864 14.6294 106.726 14.4658 106.655 14.2458C106.585 14.0258 106.549 13.6972 106.549 13.2572V7.5721C107.039 6.97835 107.614 6.40858 108.549 6.40858C109.073 6.40858 109.484 6.58205 109.783 6.92899C110.08 7.27593 110.23 7.79071 110.23 8.47049V13.2572C110.23 13.6972 110.19 14.0272 110.113 14.2458C110.035 14.4658 109.9 14.628 109.708 14.7352C109.516 14.841 109.223 14.9228 108.825 14.9792V15.2768H114.29V14.9792C113.822 14.9228 113.478 14.841 113.26 14.7352C113.035 14.6294 112.885 14.4672 112.799 14.2472ZM97.3549 14.3601C94.219 14.3812 91.7318 11.8595 91.7318 7.76814C91.7318 3.44405 94.0484 0.922361 96.6978 0.922361C99.3472 0.922361 100.484 3.31006 101.063 5.65545L101.488 5.6484V1.33277C100.492 0.781327 98.8593 0.159368 96.4863 0.159368C91.9094 0.159368 88.4549 3.50892 88.4549 7.9811C88.4549 12.2417 91.337 15.611 96.296 15.5899C99.0299 15.5687 100.936 13.937 101.847 12.686L101.551 12.3687C100.936 13.0682 99.7067 14.3389 97.3549 14.3601ZM128.923 9.36605L127.457 8.66371C126.483 8.22791 125.926 7.65108 125.926 6.94168C125.926 6.13779 126.662 5.58776 127.691 5.58776C129.19 5.58776 129.967 6.41704 130.288 8.26035H130.731V5.58071C130.291 5.41006 129.129 5.0067 127.946 5.0067C125.607 5.0067 124.183 6.47768 124.183 8.17573C124.183 8.82872 124.356 9.39849 124.703 9.88788C125.05 10.3773 125.572 10.799 126.266 11.153L127.797 11.9188C128.844 12.3969 129.265 12.8679 129.265 13.5773C129.265 14.3615 128.633 14.975 127.436 14.975C125.686 14.975 124.854 13.315 124.626 11.9822H124.183V14.7253C124.85 15.1569 126.105 15.5546 127.267 15.5546C129.508 15.5546 131.072 14.1809 131.072 12.2375C131.071 10.837 130.323 9.96122 128.923 9.36605ZM12.6942 8.83436V12.6409C12.6942 13.236 12.7788 13.693 12.9494 14.0131C13.12 14.3319 13.4035 14.5631 13.7997 14.7042C14.1959 14.8466 14.7994 14.9383 15.6073 14.9806V15.2782H7.37853V14.9806C8.07225 14.9383 8.59395 14.8466 8.94081 14.7042C9.28767 14.5631 9.53301 14.3361 9.67401 14.023C9.81501 13.7113 9.88692 13.2501 9.88692 12.6409V3.19865C9.88692 1.25379 9.00849 0.858896 7.67463 0.858896C6.21105 0.858896 5.3157 1.25238 5.3157 3.13518V13.7C5.3157 16.0877 3.7647 18.3584 0.70218 18.3584C0.4653 18.3584 0.23124 18.3443 0 18.3175V18.0622C0.72756 18.0185 1.31694 17.7717 1.76532 17.3161C2.26164 16.8126 2.5098 15.9876 2.5098 14.8382V3.13377C2.5098 2.53861 2.4393 2.08025 2.29689 1.76151C2.15448 1.44278 1.90632 1.21289 1.55241 1.07045C1.1985 0.929413 0.68103 0.83633 0 0.79402V0.496439H14.5301C17.8351 0.496439 19.881 2.14935 19.881 4.64424C19.881 7.50018 17.0765 8.83436 14.5695 8.83436H12.6942ZM12.6942 8.26317H13.708C15.4325 8.26317 16.8833 7.25337 16.8833 4.6654C16.8833 1.50201 14.7951 1.06763 13.7602 1.06763H12.6942V8.26317ZM75.8721 14.4292C76.2232 14.4292 76.532 14.2754 76.728 14.1429V14.6478C76.336 15.0145 75.6084 15.5476 74.5143 15.5476C73.5921 15.5476 72.818 14.9623 72.6122 14.0695H72.5572C72.1976 14.7493 71.0993 15.6082 69.9007 15.6082C68.4626 15.6082 67.4036 14.6492 67.4036 13.1909C67.4036 12.0513 68.1834 11.2926 69.4806 10.8328L72.5572 9.72428V8.29561C72.5572 6.99669 71.6181 6.39729 70.6001 6.39729C69.5609 6.39729 68.6021 6.83732 67.6039 7.85558L67.3049 7.57633C68.1834 6.15754 69.5821 4.99824 71.5998 4.99824C73.5174 4.99824 75.0557 6.25767 75.036 8.29561L74.9965 13.3912C74.9937 14.109 75.294 14.4292 75.8721 14.4292ZM72.5572 10.39L71.3192 10.892C70.3604 11.2714 69.7414 11.7114 69.7414 12.7297C69.7414 13.5886 70.3407 14.188 71.1796 14.188C71.6195 14.188 72.2583 13.8481 72.5586 13.4687V10.39H72.5572ZM122.812 14.4292C123.165 14.4292 123.472 14.274 123.67 14.1429V14.6478C123.278 15.0145 122.55 15.549 121.455 15.549C120.532 15.549 119.758 14.9637 119.552 14.0709H119.498C119.138 14.7507 118.04 15.6096 116.841 15.6096C115.403 15.6096 114.344 14.6506 114.344 13.1923C114.344 12.0527 115.124 11.294 116.421 10.8342L119.498 9.72569V8.29561C119.498 6.99669 118.558 6.39729 117.54 6.39729C116.501 6.39729 115.542 6.83732 114.544 7.85558L114.244 7.57633C115.122 6.15754 116.521 4.99824 118.539 4.99824C120.456 4.99824 121.995 6.25767 121.975 8.29561L121.935 13.3912C121.934 14.109 122.233 14.4292 122.812 14.4292ZM119.496 10.39L118.258 10.892C117.299 11.2714 116.68 11.7114 116.68 12.7297C116.68 13.5886 117.28 14.188 118.119 14.188C118.558 14.188 119.197 13.8481 119.498 13.4687V10.39H119.496ZM64.8783 5.70482C65.7878 6.41422 66.1896 7.4353 66.1896 8.30689C66.1896 10.5959 64.234 11.782 62.0076 11.782C61.421 11.782 60.8542 11.6988 60.3367 11.5352C60.0491 11.7566 59.8023 12.0457 59.8023 12.3842C59.8023 13.1119 60.9881 13.2586 61.696 13.2995L64.1099 13.4659C66.0444 13.5914 67.2711 14.2769 67.2711 16.0045C67.2711 18.1891 64.688 20 60.9261 20C58.742 20 57.1811 19.2511 57.1811 17.9183C57.1811 16.7605 57.8185 16.0976 59.4569 15.3106C58.3853 14.9989 58.1371 14.3601 58.1371 13.7353C58.1371 12.8806 58.8999 12.1134 59.9335 11.3857C58.6955 10.8638 57.8255 9.83006 57.8255 8.30407C57.8255 6.01509 59.7812 4.829 62.0076 4.829C63.0312 4.829 63.8462 5.0617 64.4737 5.42698C64.9418 4.48628 65.8653 3.39186 67.5207 3.39186V5.34518C66.6366 5.07158 65.558 5.21402 64.8783 5.70482ZM58.9281 17.0059C58.9281 18.2131 60.3015 18.7533 62.0908 18.7533C63.7969 18.7533 66.105 17.9832 66.105 16.7548C66.105 16.0468 65.7102 15.8804 64.6696 15.7972L60.489 15.4869C60.2437 15.4686 60.0223 15.4404 59.8235 15.4023C59.2214 15.8719 58.9281 16.3543 58.9281 17.0059ZM63.6093 8.3083C63.6093 6.35216 62.965 5.4157 62.0076 5.4157C61.0502 5.4157 60.4058 6.35216 60.4058 8.3083C60.4058 10.2644 61.0502 11.2009 62.0076 11.2009C62.965 11.2009 63.6093 10.2644 63.6093 8.3083Z" fill="black"/>
</svg>
