<svg width="115" height="115" viewBox="0 0 115 115" fill="none" xmlns="http://www.w3.org/2000/svg">
<circle cx="57.5" cy="57.5" r="57.5" fill="#1573FB"/>
<g clip-path="url(#clip0_376_2384)">
<path d="M31 92V87.9121H35.0528C35.2009 86.5192 35.3183 85.1879 35.4884 83.8619C36.2949 77.5998 38.7246 72.095 43.1381 67.5564C44.8004 65.8466 46.5988 64.2738 48.2697 62.5725C49.1391 61.6884 50.0187 60.7495 50.6245 59.6804C51.9074 57.4155 51.579 55.1539 49.9252 53.2145C48.6321 51.6982 47.1637 50.3276 45.7107 48.9604C42.9867 46.3956 40.4634 43.6766 38.6854 40.3322C36.9806 37.1249 35.9546 33.7052 35.4884 30.1107C35.3166 28.7829 35.2009 27.4466 35.0528 26.0519H31.0374V22H83.9558V26.028H79.9625C79.7736 27.6967 79.6375 29.2832 79.4061 30.8543C78.3784 37.8514 75.1134 43.6252 69.9325 48.3539C68.4913 49.6697 67.0825 51.0266 65.7146 52.4195C64.7039 53.4509 63.9332 54.6451 63.7086 56.1356C63.4414 57.9038 63.9383 59.4663 65.0833 60.7547C66.3475 62.1784 67.7138 63.5165 69.1056 64.8186C71.9061 67.4365 74.5076 70.2069 76.3248 73.6369C78.0245 76.8459 79.0522 80.2657 79.5116 83.8619C79.6783 85.1708 79.7957 86.4866 79.9438 87.8641H84.0017V92H31ZM39.3201 26.0862C39.2928 26.1599 39.2622 26.1993 39.2639 26.2387C39.3626 29.3295 39.902 32.3414 40.9449 35.2523C41.0079 35.4271 41.3278 35.6087 41.5319 35.6155C42.6413 35.6515 43.7506 35.6327 44.86 35.6327C54.3268 35.6327 63.7919 35.6275 73.2588 35.6447C73.7726 35.6447 74.0346 35.523 74.1605 35.0022C74.3528 34.2089 74.6438 33.4397 74.8445 32.6481C75.3856 30.5082 75.6833 28.3323 75.7412 26.0845H39.3201V26.0862ZM55.4634 58.4777C55.0363 60.4257 54.2315 62.1853 52.8925 63.6159C51.1706 65.4542 49.345 67.1949 47.5346 68.9476C45.8298 70.5975 44.2474 72.3502 43.0224 74.3908C42.335 75.5353 41.7684 76.7534 41.1474 77.939C43.3321 77.1971 45.3483 76.3422 47.3781 75.5147C49.8894 74.4901 52.3991 73.4622 54.9325 72.4976C55.3698 72.3314 55.4736 72.1635 55.4702 71.7455C55.4566 69.1464 55.4634 66.5473 55.4634 63.9465C55.4634 62.1236 55.4634 60.3007 55.4634 58.4777ZM73.8288 78.0983C72.8726 75.6261 71.6526 73.4622 69.9614 71.6409C67.969 69.4959 65.7877 67.529 63.7579 65.4165C62.7421 64.3594 61.7638 63.2235 60.9846 61.9865C60.3227 60.9346 59.9722 59.6856 59.5366 58.6508C59.5366 59.8055 59.5366 61.1282 59.5366 62.4491C59.5366 65.5502 59.5298 68.6512 59.5519 71.7523C59.5519 71.9819 59.7136 72.3434 59.8922 72.4171C61.1428 72.9345 62.4308 73.3628 63.683 73.8768C67.0264 75.2491 70.3578 76.6523 73.8288 78.1001V78.0983Z" fill="#FAFAFA"/>
</g>
<defs>
<clipPath id="clip0_376_2384">
<rect width="53" height="70" fill="white" transform="translate(31 22)"/>
</clipPath>
</defs>
</svg>
