<svg width="115" height="115" viewBox="0 0 115 115" fill="none" xmlns="http://www.w3.org/2000/svg">
<circle cx="57.5" cy="57.5" r="57.5" fill="#1573FB"/>
<g clip-path="url(#clip0_386_826)">
<path d="M40.2021 29.253C40.2021 27.6086 40.2021 26.0287 40.2021 24.4488C40.2021 23.1913 41.0997 22.1918 42.2538 22.0305C43.472 21.8693 44.5619 22.5787 44.9145 23.7394C45.0107 24.0941 45.0107 24.481 45.0107 24.868C45.0107 26.2867 45.0107 27.7376 45.0107 29.2208H69.0214C69.0214 27.6086 69.0214 25.9642 69.0214 24.3521C69.0534 22.6109 70.9127 21.4824 72.4835 22.2885C73.3491 22.7399 73.8299 23.4492 73.8299 24.481C73.8299 26.0609 73.8299 27.6409 73.8299 29.2853C76.138 29.2853 78.382 29.2853 80.626 29.2853C81.5877 29.2853 82.5815 29.382 83.5111 29.5755C88.9608 30.7362 93.0321 35.7984 93.0321 41.4087C93.0321 54.2093 93.0321 67.0098 93.0321 79.7781C93.0321 85.8076 88.512 90.9988 82.5494 91.8693C81.9083 91.9661 81.2671 91.9983 80.626 91.9983C64.9181 91.9983 49.1781 91.9983 33.4702 91.9983C26.3856 91.9983 21 86.5492 21 79.4879C21 66.9131 21 54.3382 21 41.7956C21 35.2825 25.5521 30.1236 31.9955 29.3175C32.4443 29.253 32.8931 29.2853 33.3419 29.2853C35.5859 29.2853 37.8299 29.2853 40.2021 29.2853V29.253ZM25.9047 47.7284H88.1594C88.1594 45.4714 88.2876 43.2466 88.1594 41.054C87.9029 37.604 85.4666 34.6699 82.2609 34.283C79.504 33.9605 76.683 34.0573 73.8299 33.9928C73.8299 35.7017 73.862 37.2493 73.8299 38.797C73.8299 39.3129 73.6696 39.861 73.4132 40.2802C72.8682 41.183 71.7462 41.5377 70.7845 41.2153C69.7587 40.8928 69.0855 40.0223 69.0534 38.926C69.0534 37.3138 69.0534 35.7339 69.0534 34.1218H45.0427C45.0427 35.7662 45.0427 37.3461 45.0427 38.926C45.0427 40.2802 43.9849 41.312 42.6705 41.312C41.3241 41.312 40.2663 40.2802 40.2663 38.8937C40.2663 38.1522 40.2663 37.3783 40.2663 36.6367C40.2663 35.7984 40.2663 34.9601 40.2663 34.0895C37.7658 34.0895 35.3936 34.025 33.0214 34.0895C29.3669 34.2507 26.3856 36.8947 26.0329 40.5059C25.8085 42.8597 26.0009 45.2779 26.0009 47.6961L25.9047 47.7284ZM73.7979 67.4935C69.1817 67.4935 65.3989 71.2659 65.3669 75.8767C65.3669 80.4875 69.1175 84.2922 73.7338 84.2922C78.382 84.2922 82.1327 80.552 82.1647 75.9089C82.1647 71.2659 78.4141 67.4935 73.7979 67.4612V67.4935ZM57.1282 55.0154C55.7818 55.0154 54.724 56.0149 54.724 57.3691C54.724 58.6911 55.7498 59.7551 57.0641 59.7873C58.3785 59.7873 59.4684 58.7556 59.4684 57.4336C59.4684 56.1439 58.4105 55.0476 57.0962 55.0154H57.1282ZM39.8175 78.2949C41.1318 78.2949 42.1576 77.2309 42.1576 75.8767C42.1576 74.5547 41.0997 73.5229 39.7533 73.5229C38.439 73.5229 37.3811 74.6192 37.4132 75.9412C37.4132 77.2632 38.5031 78.2949 39.8175 78.2949ZM57.0962 78.2949C58.4105 78.2949 59.5004 77.2632 59.5004 75.9412C59.5004 74.6515 58.4426 73.5552 57.1282 73.5229C55.7818 73.5229 54.724 74.5547 54.724 75.8767C54.724 77.1987 55.7498 78.2627 57.0641 78.2949H57.0962ZM42.1576 57.4013C42.1576 56.0794 41.1318 55.0154 39.8175 54.9831C38.4711 54.9831 37.4132 55.9826 37.4132 57.3369C37.4132 58.6588 38.4711 59.7229 39.7854 59.7551C41.1318 59.7551 42.1897 58.7233 42.1897 57.4013H42.1576ZM73.8299 55.0154C72.5156 55.0154 71.4256 56.0471 71.3936 57.3369C71.3936 58.6266 72.4515 59.7229 73.7338 59.7551C75.0481 59.7551 76.138 58.7233 76.1701 57.4336C76.1701 56.1439 75.1122 55.0154 73.7979 55.0154H73.8299Z" fill="#FAFAFA"/>
<path d="M77.3886 75.8773C77.3886 77.9086 75.8178 79.5208 73.7982 79.553C71.8107 79.553 70.1758 77.9409 70.1758 75.9096C70.1758 73.9105 71.8107 72.2338 73.7982 72.2661C75.7537 72.2661 77.3565 73.9105 77.3886 75.8773Z" fill="#FAFAFA"/>
</g>
<defs>
<clipPath id="clip0_386_826">
<rect width="72" height="70" fill="white" transform="translate(21 22)"/>
</clipPath>
</defs>
</svg>
