<svg width="154" height="115" viewBox="0 0 154 115" fill="none" xmlns="http://www.w3.org/2000/svg">
<circle cx="57.5" cy="57.5" r="57.5" fill="#1573FB"/>
<path d="M121.5 26C138.883 26 153 40.3124 153 58C153 75.6876 138.883 90 121.5 90C104.117 90 90 75.6876 90 58C90 40.3124 104.117 26 121.5 26Z" fill="#3F3F46" stroke="white" stroke-width="2"/>
<path d="M111.147 58.92C111.147 55.7 112.047 51.6 115.947 51.6C119.847 51.6 120.747 55.7 120.747 58.92C120.747 62.14 119.847 66.24 115.947 66.24C112.047 66.24 111.147 62.14 111.147 58.92ZM112.827 58.92C112.827 61 113.147 64.8 115.947 64.8C118.747 64.8 119.067 61 119.067 58.92C119.067 56.84 118.747 53.04 115.947 53.04C113.147 53.04 112.827 56.84 112.827 58.92ZM129.88 51.84V61.2H131.92V62.76H129.88V66H128.2V62.76H122.2V60.9L127.82 51.84H129.88ZM128.2 61.2V53.8H128.16L123.64 61.2H128.2Z" fill="#FAFAFA"/>
<g clip-path="url(#clip0_320_7253)">
<path d="M71.4264 52.6345C71.4264 52.9572 71.4264 53.1966 71.4264 53.436C71.4264 57.8616 71.4264 62.2873 71.4264 66.7129C71.4264 68.174 72.1213 68.8708 73.5899 68.8814C74.66 68.8885 75.7301 68.8814 76.9151 68.8814C76.8343 69.8885 76.7768 70.8265 76.6691 71.7592C76.6529 71.9046 76.4339 72.0624 76.2723 72.151C72.9579 73.9897 69.64 75.8267 66.3112 77.6405C66.1227 77.7434 65.7834 77.7576 65.5984 77.6583C60.485 74.9206 54.9695 73.2823 49.3677 71.8992C47.6818 71.4826 45.9546 71.2219 44.2364 70.94C42.2632 70.6155 40.3618 70.9311 38.5269 71.69C38.3653 71.7574 38.1929 71.7982 37.9865 71.8656C37.6705 70.3035 37.6741 68.7626 37.9093 67.2254C38.6256 62.5497 40.5234 58.296 42.7964 54.1913C45.2652 49.732 48.1522 45.5634 51.7539 41.9019C52.3104 41.3363 52.8724 41.0863 53.6821 41.1023C56.2568 41.1537 58.835 41.1129 61.4097 41.1324C61.6952 41.1342 62.074 41.2069 62.2482 41.3948C64.0041 43.2779 65.7259 45.1928 67.489 47.1326C66.6254 48.0351 65.9037 48.8117 65.155 49.5617C64.5679 50.1486 64.2788 50.8047 64.6253 51.5973C64.97 52.3881 65.6577 52.6398 66.4854 52.6363C68.0959 52.6292 69.7082 52.6345 71.421 52.6345H71.4264ZM49.0392 60.0975C49.0338 64.6615 52.7198 68.314 57.3359 68.3211C61.9016 68.3264 65.6218 64.6685 65.6344 60.1596C65.6487 55.6364 61.9124 51.9643 57.2982 51.9643C52.779 51.9643 49.0445 55.6417 49.0392 60.0993V60.0975Z" fill="#FAFAFA"/>
<path d="M33.927 75.4413C36.2539 74.576 38.5538 73.5902 40.9382 72.8774C42.7426 72.3384 44.635 72.7107 46.4537 73.1079C51.9352 74.3047 57.3179 75.8261 62.4403 78.1399C63.3883 78.569 64.3022 79.0744 65.2196 79.5371C64.7474 80.945 63.7851 81.6276 62.2625 81.7145C59.2983 81.883 56.4364 81.2695 53.587 80.5815C52.806 80.3936 52.034 80.1719 51.2601 79.9591C50.6874 79.8013 50.2798 80.0052 50.0787 80.5336C49.8848 81.0425 50.1685 81.5443 50.7592 81.7092C54.4201 82.7305 58.0989 83.6702 61.9501 83.578C63.8425 83.5337 65.4638 82.922 66.4872 81.234C66.7134 80.8617 66.9397 80.4468 67.0007 80.0265C67.0833 79.4503 67.3867 79.1683 67.8679 78.9042C71.5844 76.8722 75.2848 74.8101 78.9942 72.7675C80.1792 72.115 81.1092 72.1575 81.9172 72.8632C83.1614 73.9501 83.0842 75.7073 81.6838 76.7552C80.6155 77.5548 79.4879 78.28 78.373 79.0176C75.0281 81.2287 71.7227 83.5018 68.3114 85.61C65.5572 87.314 62.5857 88.603 59.3539 89.1934C56.9104 89.6403 54.5296 89.4842 52.1525 88.6881C49.7681 87.8902 47.3407 87.2058 44.9043 86.5834C43.4679 86.2164 41.9777 86.2483 40.5109 86.5834C40.2074 86.6526 39.9345 86.7182 39.7263 86.3317C37.8303 82.8014 35.9128 79.2836 34.0042 75.7587C33.9755 75.7037 33.9737 75.6346 33.9306 75.4395L33.927 75.4413Z" fill="#FAFAFA"/>
<path d="M66.5715 50.7774C67.2484 50.0717 67.8104 49.4812 68.3759 48.8961C70.7711 46.4138 73.1644 43.9297 75.5667 41.4527C76.7068 40.2771 77.9169 40.2771 79.0462 41.4473C81.8615 44.3605 84.6713 47.2791 87.4812 50.1958C87.6302 50.3501 87.7648 50.515 88 50.7792C86.4308 50.7792 84.9855 50.7792 83.5402 50.7792C83.226 50.7792 82.9136 50.7792 82.5994 50.7792C81.6424 50.7845 81.3498 51.0593 81.348 51.992C81.3426 54.3821 81.3462 56.7722 81.3462 59.1606C81.3462 61.572 81.3354 63.9852 81.3551 66.3966C81.3587 66.8807 81.2761 67.1041 80.7016 67.0952C78.4178 67.0615 76.1322 67.081 73.8466 67.0793C73.694 67.0793 73.5396 67.0651 73.2918 67.0527V66.2512C73.2918 61.5827 73.2918 56.9141 73.2918 52.2455C73.2918 51.0168 73.0477 50.7809 71.7963 50.7809C70.1175 50.7809 68.437 50.7809 66.5715 50.7809V50.7774Z" fill="#FAFAFA"/>
<path d="M57.3359 35.7994C55.948 35.7994 54.5601 35.787 53.1722 35.8083C52.7755 35.8136 52.5259 35.709 52.3033 35.3615C51.2098 33.6487 50.5653 31.794 50.3606 29.7815C50.3067 29.2461 50.3714 28.8507 50.9298 28.528C52.0932 27.8524 52.0663 27.8098 53.21 28.5599C54.2058 29.2136 55.2023 29.2147 56.1994 28.5634C56.963 28.0634 57.7183 28.0587 58.4652 28.5492C59.4742 29.2112 60.4886 29.2065 61.5084 28.535C62.6108 27.8098 62.5929 27.8382 63.7258 28.5209C64.2142 28.8152 64.3578 29.1503 64.3506 29.6964C64.3201 31.7851 63.8946 33.7391 62.4528 35.3491C62.2374 35.5902 61.828 35.7711 61.5013 35.7835C60.1152 35.8314 58.7255 35.803 57.3377 35.803L57.3359 35.7994Z" fill="#FAFAFA"/>
<path d="M35.4207 90.1075C35.2878 89.9373 35.1065 89.76 34.9898 89.5472C33.1548 86.1836 31.3289 82.8165 29.4993 79.4512C29.1726 78.8483 28.8584 78.2366 28.5172 77.6409C28.3036 77.2685 28.388 77.0274 28.7596 76.8341C29.5532 76.4263 30.3432 76.0131 31.126 75.5858C31.503 75.3802 31.7329 75.4653 31.9339 75.8376C34.1154 79.8696 36.3094 83.8946 38.4765 87.9337C38.5627 88.0933 38.4909 88.5046 38.3598 88.5809C37.498 89.0915 36.6003 89.5419 35.7115 90.01C35.6541 90.0401 35.5859 90.0525 35.4171 90.1057L35.4207 90.1075Z" fill="#FAFAFA"/>
<path d="M33.1334 90.0352C32.6253 90.3012 32.1961 90.5335 31.7617 90.7551C30.9034 91.193 30.4689 91.0707 30.0129 90.2373C28.9392 88.2798 27.8745 86.317 26.8063 84.356C26.2766 83.3843 25.7398 82.4198 25.2209 81.4428C24.8169 80.6821 24.9623 80.2176 25.7218 79.7991C26.1509 79.5633 26.589 79.3434 27.0253 79.12C27.0594 79.1023 27.1079 79.1147 27.203 79.1094C29.1655 82.7212 31.135 86.3525 33.1352 90.0352H33.1334Z" fill="#FAFAFA"/>
<path d="M57.3915 37.6459C59.7202 37.6459 62.0489 37.6459 64.3793 37.6459C64.5804 37.6459 64.8462 37.5803 64.97 37.6814C65.2358 37.8977 65.5769 38.1885 65.6056 38.4757C65.629 38.7133 65.2896 39.0449 65.0329 39.2329C64.8641 39.3552 64.5589 39.3144 64.3147 39.3162C59.6789 39.3197 55.0431 39.3197 50.4073 39.318C49.4557 39.318 48.9943 39.0236 49.023 38.4421C49.0481 37.8924 49.4772 37.6442 50.4055 37.6442C52.7342 37.6442 55.0628 37.6442 57.3933 37.6442L57.3915 37.6459Z" fill="#FAFAFA"/>
<path d="M49.0391 60.0959C49.0445 55.6401 52.7808 51.9609 57.2981 51.9609C61.9141 51.9609 65.6486 55.633 65.6343 60.1562C65.6199 64.667 61.9016 68.3231 57.3358 68.3178C52.7179 68.3125 49.0319 64.6599 49.0391 60.0941V60.0959ZM56.395 65.4365C56.395 65.6298 56.3591 65.9436 56.4021 66.245C56.4811 66.7823 56.8528 67.0802 57.3789 67.0518C57.8636 67.027 58.2102 66.7415 58.2586 66.2149C58.273 66.0606 58.282 65.9046 58.2658 65.7521C58.2299 65.401 58.3304 65.2095 58.7075 65.0695C60.0056 64.589 60.7471 63.6297 60.783 62.2609C60.8189 60.9009 60.0612 59.9576 58.8457 59.4186C58.2443 59.1509 57.5674 59.0516 56.9282 58.8654C56.4093 58.7147 55.9407 58.4895 55.9712 57.8494C56.0018 57.2306 56.4542 56.9841 56.9875 56.876C57.7002 56.7306 58.2927 56.9469 58.8008 57.4806C59.2228 57.9221 59.783 57.9274 60.1708 57.5639C60.5532 57.204 60.5783 56.6313 60.1618 56.2004C59.8566 55.8866 59.5154 55.5373 59.1204 55.3919C58.4633 55.1507 58.1832 54.8139 58.2425 54.1011C58.2874 53.5532 57.8636 53.2482 57.3394 53.2393C56.8097 53.2305 56.4668 53.539 56.3914 54.0798C56.3734 54.211 56.3698 54.3475 56.386 54.477C56.4399 54.8795 56.3052 55.0922 55.8869 55.2607C54.894 55.6596 54.2351 56.3884 54.095 57.4753C53.885 59.103 54.9137 60.3867 56.6356 60.7325C57.176 60.8406 57.72 60.9967 58.2191 61.2218C58.668 61.4257 59.0163 61.8602 58.8242 62.3478C58.6734 62.7325 58.3287 63.151 57.9606 63.3212C57.0503 63.7396 56.2064 63.3762 55.657 62.4914C55.3841 62.0516 54.9963 61.8176 54.4703 62.0499C53.9496 62.2804 53.7126 62.6953 53.9442 63.2325C54.1166 63.6297 54.3194 64.0677 54.639 64.3372C55.1364 64.7556 55.745 65.0429 56.3896 65.4383L56.395 65.4365Z" fill="#1573FB"/>
<path d="M56.3968 65.4336C55.7523 65.0382 55.1436 64.7491 54.6463 64.3325C54.3267 64.0647 54.1238 63.625 53.9514 63.2278C53.7198 62.6906 53.955 62.2757 54.4775 62.0452C55.0036 61.8129 55.3914 62.0469 55.6643 62.4867C56.2137 63.3697 57.0576 63.7332 57.9678 63.3165C58.3359 63.148 58.6806 62.7278 58.8314 62.3431C59.0218 61.8555 58.6752 61.421 58.2264 61.2171C57.7272 60.992 57.1832 60.8359 56.6428 60.7278C54.921 60.3802 53.8922 59.0983 54.1023 57.4706C54.2423 56.3837 54.9012 55.6549 55.8941 55.256C56.3124 55.0875 56.4453 54.8748 56.3932 54.4723C56.3753 54.3428 56.3807 54.2063 56.3986 54.0751C56.474 53.5343 56.8152 53.224 57.3466 53.2346C57.8709 53.2435 58.2946 53.5485 58.2497 54.0964C58.1905 54.8092 58.4688 55.146 59.1277 55.3872C59.5227 55.5326 59.8638 55.8819 60.169 56.1957C60.5856 56.6266 60.5622 57.1993 60.178 57.5592C59.7902 57.9227 59.23 57.9174 58.8081 57.4759C58.3 56.9422 57.7075 56.7276 56.9947 56.8713C56.4615 56.9794 56.009 57.2259 55.9785 57.8447C55.948 58.4866 56.4166 58.71 56.9355 58.8607C57.5746 59.0469 58.2515 59.1462 58.853 59.4139C60.0685 59.9547 60.8244 60.8962 60.7903 62.2562C60.7543 63.625 60.0128 64.5843 58.7147 65.0648C58.3377 65.2048 58.2354 65.3981 58.2731 65.7474C58.2892 65.8999 58.2802 66.0577 58.2659 66.2102C58.2156 66.7368 57.8709 67.0223 57.3861 67.0471C56.8601 67.0755 56.4884 66.7776 56.4094 66.2403C56.3645 65.9389 56.4022 65.6251 56.4022 65.4318L56.3968 65.4336Z" fill="#FAFAFA"/>
</g>
<defs>
<clipPath id="clip0_320_7253">
<rect width="63" height="63" fill="white" transform="translate(25 28)"/>
</clipPath>
</defs>
</svg>
