<svg width="154" height="115" viewBox="0 0 154 115" fill="none" xmlns="http://www.w3.org/2000/svg">
<circle cx="57.5" cy="57.5" r="57.5" fill="#1573FB"/>
<path d="M121.5 26C138.883 26 153 40.3124 153 58C153 75.6876 138.883 90 121.5 90C104.117 90 90 75.6876 90 58C90 40.3124 104.117 26 121.5 26Z" fill="#3F3F46" stroke="white" stroke-width="2"/>
<path d="M111.147 58.92C111.147 55.7 112.047 51.6 115.947 51.6C119.847 51.6 120.747 55.7 120.747 58.92C120.747 62.14 119.847 66.24 115.947 66.24C112.047 66.24 111.147 62.14 111.147 58.92ZM112.827 58.92C112.827 61 113.147 64.8 115.947 64.8C118.747 64.8 119.067 61 119.067 58.92C119.067 56.84 118.747 53.04 115.947 53.04C113.147 53.04 112.827 56.84 112.827 58.92ZM128.7 51.84V66H127.02V54H126.98L124.44 56.14L123.44 54.92L127.24 51.84H128.7Z" fill="#FAFAFA"/>
<g clip-path="url(#clip0_325_8394)">
<path d="M52.5623 89.5084C52.5462 89.3169 52.5444 89.1639 52.5211 89.0146C52.1647 86.568 54.1616 85.3448 55.9525 85.3483C60.1755 85.3571 64.3985 85.336 68.6215 85.3272C69.6997 85.3254 70.2352 84.9651 70.2137 84.2568C70.1922 83.5854 69.6585 83.2409 68.6233 83.2392C63.641 83.2392 58.6586 83.2392 53.6744 83.2392C53.4148 83.2392 53.1533 83.2392 52.804 83.2392C52.9366 82.9703 53.0118 82.7945 53.1085 82.6293C54.1705 80.8278 55.2469 79.0351 56.2964 77.2283C57.1596 75.7414 58.4329 74.9962 60.188 75.0085C62.758 75.0261 65.328 75.0208 67.8962 75.0103C69.8609 75.0032 71.367 75.7889 72.4702 77.3935C74.3812 80.1722 76.344 82.9176 78.2532 85.698C79.8596 88.0373 78.9445 90.9268 76.3476 91.7704C75.8909 91.9181 75.3859 91.9866 74.9023 91.9866C60.7361 91.9971 46.5698 91.9954 32.4036 91.9954C31.2484 91.9954 30.7398 91.6333 30.3888 90.5524C28.6426 85.1954 26.8982 79.8383 25.1593 74.4795C24.656 72.9276 25.3545 71.9908 27.0254 71.989C32.6346 71.982 38.242 71.9837 43.8512 71.989C45.1389 71.989 45.5776 72.3177 45.9806 73.548C47.6121 78.55 49.2419 83.552 50.8698 88.5558C51.1206 89.3268 51.6853 89.6443 52.5641 89.5084H52.5623Z" fill="white"/>
<path d="M46.6202 57.2781C45.037 59.7914 43.4538 62.3065 41.8688 64.8198C40.882 66.384 39.9042 67.9535 38.8995 69.5072C38.7741 69.7023 38.518 69.9413 38.3192 69.9431C36.0895 69.9747 33.858 69.9624 31.4922 69.9624C31.6355 69.69 31.7214 69.5055 31.8253 69.3315C35.3785 63.3786 38.912 57.4152 42.5028 51.4851C43.144 50.4271 44.018 49.5061 44.797 48.5061C45.4256 48.9314 45.8823 49.2776 46.373 49.5659C50.682 52.1003 56.1712 50.7698 58.743 46.5358C59.0421 46.0437 59.3268 45.9435 59.796 46.1439C60.7936 46.5728 61.861 46.9014 62.7618 47.4779C65.3426 49.13 67.8624 50.8718 70.3876 52.6012C72.1338 53.7981 72.7516 55.6471 72.1051 57.6296C71.7326 58.772 71.335 59.9074 70.9356 61.0815C70.2228 60.4979 69.5906 59.8846 68.8635 59.4118C68.1292 58.9337 67.3036 58.5927 66.4977 58.1832C66.4583 56.6155 66.2864 56.3852 64.7014 55.8088C63.7612 55.466 62.8227 55.1163 61.8807 54.7736C61.6819 54.7015 61.4759 54.6452 61.1625 54.5468C61.313 55.8017 61.4509 56.9459 61.5959 58.1534C58.2863 59.185 55.9814 61.2625 55.136 64.6247C54.2961 67.9606 55.2686 70.8535 57.7221 73.2702C57.7042 73.3229 57.7024 73.3879 57.6774 73.3985C56.087 74.0751 55.0268 75.2615 54.2101 76.7326C53.3039 78.3671 52.3171 79.9595 51.3643 81.5676C51.2551 81.7522 51.1315 81.9279 50.9542 82.2021C50.3399 80.3163 49.7579 78.5323 49.1758 76.7484C48.7335 75.3933 48.3144 74.033 47.8362 72.6902C47.6625 72.2033 47.4261 71.7007 47.0858 71.3193C46.7151 70.9045 46.5969 70.4985 46.6058 69.9677C46.6775 65.978 46.7258 61.9901 46.7814 58.0004C46.7849 57.7684 46.7814 57.5347 46.7814 57.3027C46.7276 57.2939 46.6721 57.2851 46.6184 57.2763L46.6202 57.2781Z" fill="white"/>
<path d="M77.9631 47.2572C74.272 47.1271 70.9337 45.9812 68.3404 43.1234C68.1757 42.9423 67.8515 42.8369 67.59 42.814C66.7447 42.742 65.8922 42.7543 65.0487 42.6717C64.8033 42.6471 64.4398 42.4572 64.3807 42.2692C64.309 42.0372 64.4183 41.6575 64.592 41.4625C65.0756 40.9194 65.6487 40.4536 66.1519 39.9281C66.2934 39.7805 66.4205 39.508 66.3865 39.3235C65.7131 35.6449 67.1298 32.7871 70.0311 30.5779C74.9454 26.8378 82.7807 27.2244 87.1416 31.367C91.1784 35.2003 90.9097 40.8983 86.5148 44.4204C84.0594 46.3889 81.1903 47.1939 77.9631 47.2572ZM73.5538 36.4095C72.8679 36.4112 72.327 36.949 72.3288 37.6257C72.3306 38.2953 72.8858 38.8419 73.561 38.8419C74.2326 38.8419 74.7931 38.2848 74.7914 37.6204C74.7914 36.9543 74.2326 36.4095 73.5538 36.4112V36.4095ZM79.3493 37.6116C79.3457 36.9525 78.7744 36.4042 78.0992 36.4077C77.4151 36.4112 76.8778 36.9525 76.8849 37.6327C76.8903 38.3076 77.4437 38.849 78.1207 38.8419C78.7905 38.8331 79.3529 38.2707 79.3493 37.6134V37.6116ZM82.6285 38.8419C83.2893 38.8613 83.8821 38.3094 83.9018 37.6556C83.9233 37 83.3717 36.4305 82.6947 36.4095C82.0106 36.3884 81.4518 36.9121 81.4375 37.5888C81.4232 38.2654 81.9533 38.8226 82.6285 38.8419Z" fill="white"/>
<path d="M44.0645 42.0115C44.0573 38.2029 47.1395 35.1676 51.024 35.1641C54.8942 35.1588 57.9961 38.2064 57.9925 42.0098C57.9889 45.7622 54.8817 48.8239 51.0598 48.8397C47.2022 48.8555 44.0716 45.7991 44.0645 42.0115Z" fill="white"/>
<path d="M63.8437 73.5965C59.9967 73.5842 56.9163 70.5472 56.9146 66.7631C56.9146 62.9562 60.0236 59.9192 63.9099 59.9297C67.7676 59.9403 70.8856 63.0371 70.8534 66.8282C70.8211 70.5841 67.6888 73.6071 63.8437 73.5948V73.5965Z" fill="white"/>
</g>
<defs>
<clipPath id="clip0_325_8394">
<rect width="65" height="64" fill="white" transform="translate(25 28)"/>
</clipPath>
</defs>
</svg>
