<svg width="120" height="120" viewBox="0 0 120 120" fill="none" xmlns="http://www.w3.org/2000/svg">
<circle cx="60" cy="60" r="60" fill="#1573FB"/>
<g clip-path="url(#clip0_1005_374)">
<path d="M54.8476 90.2703C54.8308 90.0704 54.8289 89.9109 54.8046 89.755C54.4327 87.2021 56.5164 85.9256 58.3852 85.9293C62.7918 85.9385 67.1985 85.9165 71.6051 85.9073C72.7301 85.9055 73.2889 85.5295 73.2664 84.7904C73.244 84.0898 72.6871 83.7304 71.6069 83.7285C66.408 83.7285 61.209 83.7285 56.0081 83.7285C55.7371 83.7285 55.4643 83.7285 55.0999 83.7285C55.2382 83.4479 55.3167 83.2645 55.4176 83.0921C56.5258 81.2123 57.6489 79.3416 58.744 77.4563C59.6448 75.9048 60.9735 75.1272 62.8049 75.14C65.4866 75.1583 68.1684 75.1528 70.8482 75.1418C72.8983 75.1345 74.4699 75.9543 75.6211 77.6287C77.6151 80.5282 79.6633 83.3929 81.6555 86.2943C83.3318 88.7353 82.3768 91.7504 79.6671 92.6307C79.1905 92.7847 78.6635 92.8563 78.159 92.8563C63.3768 92.8673 48.5946 92.8654 33.8124 92.8654C32.607 92.8654 32.0763 92.4876 31.71 91.3597C29.8879 85.7698 28.0677 80.1798 26.2531 74.588C25.728 72.9686 26.4568 71.991 28.2004 71.9892C34.0535 71.9819 39.9047 71.9837 45.7578 71.9892C47.1014 71.9892 47.5593 72.3322 47.9798 73.616C49.6822 78.8355 51.3828 84.055 53.0816 89.2763C53.3432 90.0808 53.9325 90.4122 54.8495 90.2703H54.8476Z" fill="white"/>
<path d="M48.6471 56.6336C46.995 59.2562 45.343 61.8806 43.6891 64.5032C42.6594 66.1354 41.6391 67.7732 40.5907 69.3944C40.4599 69.598 40.1926 69.8474 39.9852 69.8493C37.6585 69.8823 35.33 69.8694 32.8613 69.8694C33.0108 69.5852 33.1005 69.3926 33.2089 69.211C36.9166 62.9993 40.6038 56.7766 44.3507 50.5888C45.0197 49.4847 45.9317 48.5237 46.7446 47.4802C47.4006 47.924 47.8771 48.2853 48.3892 48.5861C52.8855 51.2307 58.6133 49.8424 61.2969 45.4243C61.609 44.9108 61.9062 44.8062 62.3958 45.0153C63.4367 45.4628 64.5505 45.8058 65.4905 46.4073C68.1834 48.1312 70.8128 49.9487 73.4478 51.7534C75.2699 53.0023 75.9147 54.9317 75.24 57.0004C74.8513 58.1925 74.4364 59.3772 74.0197 60.6023C73.2759 59.9934 72.6162 59.3534 71.8575 58.86C71.0913 58.3612 70.2298 58.0054 69.3888 57.5781C69.3477 55.9422 69.1683 55.7019 67.5144 55.1004C66.5333 54.7428 65.5541 54.3778 64.5711 54.0202C64.3636 53.945 64.1487 53.8863 63.8217 53.7836C63.9787 55.093 64.1226 56.287 64.2739 57.5469C60.8204 58.6235 58.4153 60.7912 57.5332 64.2996C56.6567 67.7805 57.6715 70.7993 60.2317 73.321C60.213 73.376 60.2112 73.4439 60.185 73.4549C58.5255 74.1609 57.4192 75.3989 56.567 76.9339C55.6214 78.6395 54.5917 80.3011 53.5975 81.9792C53.4835 82.1718 53.3545 82.3552 53.1695 82.6413C52.5285 80.6734 51.9212 78.8119 51.3138 76.9504C50.8522 75.5364 50.4149 74.1169 49.916 72.7158C49.7347 72.2078 49.488 71.6832 49.1329 71.2853C48.7461 70.8524 48.6228 70.4288 48.6321 69.8749C48.7069 65.7118 48.7573 61.5505 48.8152 57.3874C48.819 57.1453 48.8152 56.9013 48.8152 56.6593C48.7592 56.6501 48.7012 56.6409 48.6452 56.6318L48.6471 56.6336Z" fill="white"/>
<path d="M81.3529 46.1804C77.5014 46.0446 74.0179 44.8489 71.3119 41.8668C71.14 41.6779 70.8017 41.5679 70.5289 41.5441C69.6468 41.4689 68.7573 41.4817 67.877 41.3955C67.621 41.3698 67.2417 41.1718 67.18 40.9755C67.1052 40.7334 67.2192 40.3373 67.4005 40.1337C67.9051 39.567 68.5031 39.081 69.0282 38.5327C69.1759 38.3786 69.3085 38.0943 69.273 37.9018C68.5704 34.0632 70.0486 31.0812 73.076 28.7759C78.204 24.8732 86.38 25.2766 90.9305 29.5993C95.1428 33.5992 94.8625 39.545 90.2764 43.2203C87.7143 45.2744 84.7205 46.1143 81.3529 46.1804ZM76.752 34.861C76.0362 34.8629 75.4718 35.4241 75.4737 36.1301C75.4756 36.8289 76.0549 37.3993 76.7594 37.3993C77.4602 37.3993 78.0452 36.8179 78.0433 36.1246C78.0433 35.4296 77.4602 34.861 76.752 34.8629V34.861ZM82.7994 36.1155C82.7956 35.4277 82.1995 34.8555 81.495 34.8592C80.7811 34.8629 80.2204 35.4277 80.2279 36.1375C80.2335 36.8417 80.811 37.4066 81.5174 37.3993C82.2163 37.3901 82.8031 36.8032 82.7994 36.1173V36.1155ZM86.2212 37.3993C86.9107 37.4194 87.5293 36.8436 87.5499 36.1613C87.5723 35.4772 86.9967 34.883 86.2903 34.861C85.5764 34.839 84.9934 35.3855 84.9784 36.0916C84.9635 36.7977 85.5166 37.3791 86.2212 37.3993Z" fill="white"/>
<path d="M45.9802 40.7077C45.9728 36.7335 49.189 33.5662 53.2424 33.5625C57.2808 33.557 60.5176 36.7371 60.5139 40.7059C60.5101 44.6214 57.2678 47.8162 53.2798 47.8327C49.2544 47.8492 45.9877 44.6599 45.9802 40.7077Z" fill="white"/>
<path d="M66.6193 73.6673C62.6051 73.6545 59.3908 70.4854 59.3889 66.5368C59.3889 62.5644 62.6331 59.3953 66.6884 59.4063C70.7138 59.4173 73.9674 62.6488 73.9338 66.6047C73.9001 70.5239 70.6316 73.6783 66.6193 73.6655V73.6673Z" fill="white"/>
</g>
<defs>
<clipPath id="clip0_1005_374">
<rect width="67.8261" height="66.7826" fill="white" transform="translate(26.0869 26.0859)"/>
</clipPath>
</defs>
</svg>
