<svg width="154" height="115" viewBox="0 0 154 115" fill="none" xmlns="http://www.w3.org/2000/svg">
<circle cx="57.5" cy="57.5" r="57.5" fill="#1573FB"/>
<path d="M121.5 26C138.883 26 153 40.3124 153 58C153 75.6876 138.883 90 121.5 90C104.117 90 90 75.6876 90 58C90 40.3124 104.117 26 121.5 26Z" fill="#3F3F46" stroke="white" stroke-width="2"/>
<path d="M111.147 58.92C111.147 55.7 112.047 51.6 115.947 51.6C119.847 51.6 120.747 55.7 120.747 58.92C120.747 62.14 119.847 66.24 115.947 66.24C112.047 66.24 111.147 62.14 111.147 58.92ZM112.827 58.92C112.827 61 113.147 64.8 115.947 64.8C118.747 64.8 119.067 61 119.067 58.92C119.067 56.84 118.747 53.04 115.947 53.04C113.147 53.04 112.827 56.84 112.827 58.92ZM125.58 59.28V57.84H126.1C127.5 57.84 129.32 57.52 129.32 55.38C129.32 53.94 128.32 53.04 126.9 53.04C125.72 53.04 124.8 53.58 124.3 54.62L122.68 54C123.36 52.4 124.98 51.6 126.78 51.6C129.04 51.6 131 52.86 131 55.3C131 56.78 130 58.1 128.58 58.54V58.58C130.38 58.88 131.48 60.36 131.48 62.14C131.48 64.84 129.32 66.24 126.8 66.24C124.66 66.24 122.96 65.36 122.24 63.26L123.94 62.7C124.42 64.22 125.24 64.8 126.8 64.8C128.4 64.8 129.68 63.66 129.68 62.02C129.68 59.94 127.84 59.28 126.1 59.28H125.58Z" fill="#FAFAFA"/>
<g clip-path="url(#clip0_320_7239)">
<path d="M62.4242 28C63.3688 28.3332 64.358 28.5771 65.2519 29.016C68.2746 30.4953 70.2877 32.9906 71.994 35.813C73.0443 37.5524 73.349 39.3467 72.7518 41.2608C72.2866 42.7462 71.7076 44.197 71.1795 45.6641C71.0677 45.6641 70.956 45.6641 70.8443 45.6641C70.371 44.2153 69.8875 42.7706 69.4264 41.3177C69.1582 40.4765 68.9429 39.619 68.6707 38.7797C68.4696 38.162 68.1039 38.0198 67.4437 38.2758C65.778 38.922 64.1123 39.625 62.3835 40.0294C60.1795 40.5455 58.1176 40.0314 56.3909 38.4627C55.7693 37.8979 55.4037 37.8755 55.0015 38.5969C54.3535 39.7612 53.8192 40.9905 53.2951 42.2179C52.8807 43.1851 52.5536 44.1909 52.1291 45.339C51.284 43.8292 50.7599 42.3804 50.4227 40.8585C50.0591 39.2146 50.2521 37.6723 51.091 36.1747C52.7588 33.2039 54.8207 30.6213 57.9307 29.0709C58.8672 28.6035 59.9093 28.3515 60.9047 28C61.4125 28 61.9184 28 62.4262 28H62.4242Z" fill="#FAFAFA"/>
<path d="M55.7329 57.3056C52.7914 56.8606 50.2847 57.3361 48.1578 59.1242C46.2626 60.7193 44.8528 62.6457 44.2454 65.1206C42.9636 70.349 41.6208 75.561 40.3045 80.7812C40.2618 80.9479 40.2415 81.1226 40.2029 81.34H41.9784C42.3988 79.7083 42.8315 78.0543 43.252 76.3982C44.223 72.5781 45.0965 68.7295 46.1874 64.9439C46.9532 62.284 48.7591 60.4206 51.4974 59.303C51.4974 60.5466 51.5299 61.6723 51.4853 62.796C51.4568 63.5194 51.7128 63.9827 52.3567 64.3221C53.1368 64.7325 54.1809 65.0515 54.5506 65.7221C54.9406 66.4252 54.7802 67.5103 54.6664 68.4023C54.4267 70.2778 55.0239 71.6799 56.4947 72.8951C57.8557 74.0187 59.0461 75.3578 60.2649 76.6461C60.5229 76.9204 60.6956 77.3756 60.7139 77.7576C60.7707 78.9382 60.7342 80.1249 60.7342 81.34H62.5319C62.5319 80.1147 62.4954 78.928 62.5523 77.7454C62.5705 77.3654 62.7473 76.9062 63.0093 76.638C64.6141 74.9819 66.2494 73.3543 67.909 71.7531C68.4088 71.2715 68.6119 70.7554 68.5916 70.0726C68.555 68.8067 68.5977 67.5387 68.5733 66.2707C68.5652 65.8359 68.7033 65.5778 69.0974 65.3746C69.7474 65.0373 70.3548 64.6147 71.0028 64.2753C71.5655 63.9807 71.7931 63.554 71.7788 62.9261C71.7545 61.7963 71.7727 60.6665 71.7727 59.5387C71.852 59.4798 71.9332 59.4209 72.0124 59.362C72.8514 59.9817 73.7696 60.5202 74.5111 61.2395C75.7664 62.4526 76.5932 63.938 77.0178 65.6672C78.261 70.7228 79.557 75.7642 80.8368 80.8097C80.8795 80.9804 80.9485 81.147 81.0156 81.3482H82.8337C82.5046 80.0233 82.1917 78.735 81.8647 77.4488C80.7576 73.0901 79.6484 68.7295 78.5373 64.3729C77.4403 60.0752 72.8372 56.8585 68.2828 57.206C68.0878 57.2202 67.8928 57.2324 67.6693 57.2467C67.5454 56.5863 67.6064 56.064 68.0715 55.5459C69.5423 53.9061 70.5153 51.9594 71.3969 49.9599C71.4985 49.7303 71.7646 49.4255 71.9718 49.4113C74.8503 49.2101 77.6292 49.5616 80.1827 51.0328C83.6686 53.0445 85.3851 56.2347 86.1286 60.0467C87.0894 64.9682 86.5044 69.8349 85.4359 74.6588C84.9829 76.703 84.3389 78.7045 83.7843 80.7264C83.7315 80.9174 83.6848 81.1124 83.6157 81.3847C83.9387 81.3847 84.2089 81.3847 84.4791 81.3847C88.0523 81.3847 91.6255 81.3807 95.1987 81.3847C96.9538 81.3868 97.9838 82.415 97.9919 84.1625C97.998 85.5564 98.0041 86.9504 97.9919 88.3443C97.9756 89.9151 96.9437 90.9514 95.3775 90.9981C95.2008 91.0042 95.022 90.9981 94.8453 90.9981C72.6219 90.9981 50.3985 90.9981 28.1751 90.994C27.7464 90.994 27.3016 91.0062 26.8912 90.9087C25.8044 90.6486 25.0345 89.659 25.0183 88.5191C24.9959 86.9991 24.9959 85.4772 25.0142 83.9572C25.0325 82.4495 26.0949 81.3929 27.6205 81.3868C31.2689 81.3725 34.9193 81.3807 38.5676 81.3807C38.8399 81.3807 39.1141 81.3807 39.3924 81.3807C38.8338 79.3568 38.2487 77.398 37.7531 75.4168C36.7597 71.4442 36.2133 67.4087 36.4469 63.3081C36.6581 59.5997 37.4869 56.0701 40.1196 53.2517C42.4801 50.7219 45.4642 49.4987 48.9074 49.3849C49.6408 49.3605 50.3781 49.4011 51.1115 49.3747C51.5198 49.3605 51.7554 49.4783 51.9078 49.8827C52.7264 52.0285 53.8742 53.9772 55.3307 55.7613C55.6049 56.0986 55.5826 56.6777 55.737 57.3076L55.7329 57.3056Z" fill="#FAFAFA"/>
<path d="M56.3465 40.6016C59.8851 42.4385 63.3791 42.4365 66.7553 40.6788C67.903 43.2106 69.0427 45.71 70.164 48.2155C70.2351 48.376 70.2412 48.6137 70.1802 48.7803C69.1361 51.5987 67.6796 54.157 65.3191 56.0894C62.7474 58.1946 60.3138 58.1499 57.7949 55.9736C55.41 53.9132 53.9108 51.2695 52.9459 48.3069C52.8606 48.0468 52.9805 47.6709 53.1105 47.4006C54.0632 45.4479 55.0484 43.5093 56.0113 41.5607C56.1433 41.2924 56.2124 40.9917 56.3444 40.6016H56.3465Z" fill="#FAFAFA"/>
<path d="M53.3094 58.9688C54.5567 59.0195 55.6658 58.857 56.4885 60.1311C57.6789 61.9761 59.0948 63.6749 60.4051 65.4447C60.5493 65.6398 60.7199 65.8816 60.722 66.1051C60.7443 68.8564 60.7362 71.6078 60.7362 74.544C59.8708 73.6824 59.1944 72.8595 58.3716 72.2235C56.8339 71.0347 56.1838 69.5737 56.4865 67.6393C56.5982 66.922 56.4784 66.1722 56.5129 65.4407C56.5393 64.8575 56.2996 64.4877 55.804 64.2174C55.1824 63.8781 54.5993 63.4656 53.9615 63.1669C53.4171 62.9108 53.2708 62.5512 53.2993 61.9781C53.348 61.019 53.3114 60.0559 53.3114 58.9708L53.3094 58.9688Z" fill="#FAFAFA"/>
<path d="M70.0033 59.0589C70.0033 60.1765 70.0256 61.2636 69.985 62.3507C69.9769 62.5702 69.7839 62.8567 69.5909 62.9827C68.8921 63.4378 68.1669 63.8544 67.4336 64.2527C66.9785 64.4985 66.7937 64.8318 66.8018 65.352C66.8262 66.7947 66.8181 68.2394 66.8018 69.6842C66.7978 69.9443 66.7673 70.2836 66.6068 70.4502C65.327 71.7771 64.0107 73.0715 62.5887 74.4919C62.5643 74.116 62.5379 73.8843 62.5379 73.6506C62.5339 71.2956 62.5136 68.9384 62.5562 66.5834C62.5643 66.1424 62.7309 65.6365 62.9869 65.2788C64.226 63.5516 65.522 61.8651 66.7937 60.1602C67.653 59.0121 68.4411 58.7256 70.0033 59.0609V59.0589Z" fill="#FAFAFA"/>
<path d="M65.8208 57.9126C65.7517 58.195 65.7619 58.5344 65.6035 58.7497C64.3176 60.5034 62.9992 62.2346 61.689 63.976C60.3117 62.6938 57.4535 58.5303 57.5063 57.75C60.2284 59.5971 62.9545 59.6479 65.6746 57.7886C65.7233 57.8292 65.7721 57.8719 65.8208 57.9126Z" fill="#FAFAFA"/>
</g>
<defs>
<clipPath id="clip0_320_7239">
<rect width="73" height="63" fill="white" transform="translate(25 28)"/>
</clipPath>
</defs>
</svg>
