<svg width="120" height="120" viewBox="0 0 120 120" fill="none" xmlns="http://www.w3.org/2000/svg">
<circle cx="60" cy="60" r="60" fill="#1573FB"/>
<g clip-path="url(#clip0_1005_403)">
<path d="M75.5754 52.8391C75.5754 53.1758 75.5754 53.4256 75.5754 53.6754C75.5754 58.2934 75.5754 62.9115 75.5754 67.5296C75.5754 69.0542 76.3004 69.7813 77.8329 69.7924C78.9495 69.7998 80.0661 69.7924 81.3026 69.7924C81.2183 70.8433 81.1584 71.822 81.046 72.7952C81.0291 72.947 80.8006 73.1116 80.6319 73.2041C77.1735 75.1228 73.7112 77.0396 70.2378 78.9323C70.0411 79.0396 69.687 79.0544 69.494 78.9508C64.1583 76.0941 58.4029 74.3846 52.5576 72.9414C50.7984 72.5066 48.9961 72.2346 47.2031 71.9404C45.1442 71.6019 43.1601 71.9312 41.2454 72.7231C41.0768 72.7934 40.8969 72.8359 40.6815 72.9062C40.3518 71.2762 40.3555 69.6684 40.6009 68.0643C41.3485 63.1853 43.3287 58.7467 45.7006 54.4635C48.2766 49.8103 51.2892 45.4605 55.0475 41.6399C55.6282 41.0497 56.2147 40.7888 57.0596 40.8054C59.7462 40.8591 62.4365 40.8165 65.1231 40.8369C65.421 40.8387 65.8163 40.9146 65.9981 41.1107C67.8303 43.0756 69.627 45.0738 71.4668 47.0979C70.5656 48.0397 69.8125 48.8501 69.0312 49.6327C68.4186 50.2451 68.117 50.9297 68.4786 51.7567C68.8383 52.5819 69.5558 52.8446 70.4195 52.8409C72.1 52.8335 73.7824 52.8391 75.5697 52.8391H75.5754ZM52.2147 60.6265C52.2091 65.3889 56.0554 69.2003 60.8722 69.2077C65.6365 69.2133 69.5184 65.3963 69.5315 60.6913C69.5465 55.9714 65.6477 52.1397 60.8328 52.1397C56.1172 52.1397 52.2204 55.977 52.2147 60.6284V60.6265Z" fill="#FAFAFA"/>
<path d="M36.4456 76.6324C38.8736 75.7295 41.2736 74.7008 43.7616 73.957C45.6444 73.3945 47.6191 73.7831 49.5169 74.1975C55.2367 75.4464 60.8535 77.0338 66.1986 79.4483C67.1878 79.8961 68.1414 80.4234 69.0987 80.9063C68.606 82.3753 67.6018 83.0877 66.0131 83.1783C62.9199 83.3541 59.9336 82.7139 56.9603 81.9961C56.1454 81.7999 55.3398 81.5687 54.5323 81.3466C53.9346 81.182 53.5094 81.3947 53.2995 81.9461C53.0972 82.4771 53.3932 83.0007 54.0096 83.1728C57.8296 84.2385 61.6684 85.2191 65.6871 85.1229C67.6618 85.0766 69.3535 84.4383 70.4214 82.6769C70.6575 82.2884 70.8935 81.8554 70.9572 81.4169C71.0434 80.8156 71.36 80.5215 71.8621 80.2458C75.7403 78.1255 79.6016 75.9737 83.4722 73.8423C84.7087 73.1614 85.6792 73.2058 86.5223 73.9422C87.8206 75.0763 87.74 76.9099 86.2787 78.0033C85.164 78.8378 83.9874 79.5945 82.824 80.3642C79.3336 82.6714 75.8845 85.0433 72.3249 87.2432C69.4509 89.0212 66.3503 90.3663 62.978 90.9824C60.4282 91.4487 57.9439 91.2859 55.4634 90.4551C52.9754 89.6225 50.4425 88.9084 47.9001 88.259C46.4013 87.876 44.8463 87.9093 43.3157 88.259C42.999 88.3311 42.7143 88.3996 42.497 87.9962C40.5185 84.3125 38.5176 80.6417 36.5261 76.9635C36.4961 76.9062 36.4943 76.834 36.4493 76.6305L36.4456 76.6324Z" fill="#FAFAFA"/>
<path d="M70.5094 50.9009C71.2157 50.1645 71.8021 49.5484 72.3923 48.9378C74.8915 46.3475 77.3889 43.7554 79.8956 41.1707C81.0853 39.944 82.348 39.944 83.5265 41.1652C86.4641 44.205 89.3961 47.2504 92.3281 50.294C92.4836 50.455 92.6242 50.627 92.8696 50.9027C91.2321 50.9027 89.724 50.9027 88.2158 50.9027C87.888 50.9027 87.562 50.9027 87.2341 50.9027C86.2355 50.9083 85.9301 51.195 85.9283 52.1682C85.9227 54.6623 85.9264 57.1563 85.9264 59.6486C85.9264 62.1648 85.9152 64.6829 85.9358 67.1992C85.9395 67.7043 85.8533 67.9374 85.2538 67.9282C82.8707 67.893 80.4858 67.9134 78.1008 67.9115C77.9416 67.9115 77.7804 67.8967 77.5219 67.8838V67.0475C77.5219 62.1759 77.5219 57.3044 77.5219 52.4328C77.5219 51.1506 77.2671 50.9046 75.9613 50.9046C74.2096 50.9046 72.456 50.9046 70.5094 50.9046V50.9009Z" fill="#FAFAFA"/>
<path d="M60.8722 35.2714C59.424 35.2714 57.9758 35.2584 56.5276 35.2806C56.1135 35.2862 55.8531 35.177 55.6208 34.8144C54.4799 33.0271 53.8073 31.0918 53.5937 28.9918C53.5375 28.433 53.6049 28.0205 54.1876 27.6837C55.4016 26.9788 55.3735 26.9344 56.5669 27.717C57.6061 28.3991 58.6459 28.4004 59.6863 27.7207C60.4832 27.199 61.2713 27.194 62.0507 27.7059C63.1036 28.3967 64.1621 28.3917 65.2262 27.6911C66.3766 26.9344 66.3578 26.964 67.54 27.6763C68.0496 27.9835 68.1995 28.3331 68.192 28.903C68.1601 31.0825 67.7161 33.1214 66.2117 34.8014C65.9869 35.053 65.5597 35.2418 65.2187 35.2547C63.7724 35.3047 62.3223 35.2751 60.8741 35.2751L60.8722 35.2714Z" fill="#FAFAFA"/>
<path d="M38.0043 91.939C37.8656 91.7613 37.6764 91.5763 37.5546 91.3543C35.6399 87.8445 33.7346 84.331 31.8255 80.8193C31.4845 80.1902 31.1567 79.5519 30.8007 78.9303C30.5777 78.5417 30.6658 78.2901 31.0536 78.0884C31.8817 77.6629 32.706 77.2318 33.5229 76.7859C33.9163 76.5713 34.1561 76.6601 34.366 77.0486C36.6422 81.256 38.9317 85.4559 41.193 89.6706C41.2829 89.8371 41.208 90.2664 41.0712 90.3459C40.1719 90.8788 39.2352 91.3487 38.3078 91.8372C38.2478 91.8687 38.1766 91.8816 38.0005 91.9371L38.0043 91.939Z" fill="#FAFAFA"/>
<path d="M35.6174 91.8618C35.0872 92.1393 34.6395 92.3817 34.1861 92.613C33.2905 93.07 32.8372 92.9423 32.3613 92.0727C31.2409 90.0301 30.13 87.982 29.0152 85.9357C28.4625 84.9217 27.9024 83.9152 27.3609 82.8958C26.9394 82.1021 27.0911 81.6173 27.8836 81.1807C28.3314 80.9346 28.7885 80.7052 29.2438 80.472C29.2794 80.4535 29.33 80.4665 29.4293 80.4609C31.477 84.2298 33.5322 88.019 35.6193 91.8618H35.6174Z" fill="#FAFAFA"/>
<path d="M60.9302 37.2015C63.3601 37.2015 65.7901 37.2015 68.2219 37.2015C68.4317 37.2015 68.709 37.1331 68.8382 37.2385C69.1155 37.4643 69.4715 37.7677 69.5015 38.0674C69.5258 38.3153 69.1717 38.6613 68.9038 38.8575C68.7277 38.9851 68.4092 38.9426 68.1544 38.9444C63.3171 38.9481 58.4797 38.9481 53.6423 38.9463C52.6494 38.9463 52.1679 38.6391 52.1979 38.0323C52.2241 37.4587 52.6718 37.1997 53.6404 37.1997C56.0704 37.1997 58.5003 37.1997 60.9321 37.1997L60.9302 37.2015Z" fill="#FAFAFA"/>
<path d="M52.2147 60.6215C52.2204 55.972 56.1191 52.1328 60.8328 52.1328C65.6496 52.1328 69.5465 55.9646 69.5315 60.6844C69.5165 65.3913 65.6365 69.2064 60.8722 69.2008C56.0535 69.1953 52.2072 65.3839 52.2147 60.6196V60.6215ZM59.8904 66.1943C59.8904 66.3959 59.853 66.7234 59.8979 67.038C59.9804 67.5986 60.3682 67.9094 60.9171 67.8798C61.423 67.8539 61.7846 67.556 61.8351 67.0065C61.8501 66.8455 61.8595 66.6827 61.8426 66.5236C61.8052 66.1573 61.9101 65.9574 62.3035 65.8113C63.6581 65.3099 64.4318 64.3089 64.4693 62.8806C64.5067 61.4615 63.7161 60.4772 62.4478 59.9147C61.8201 59.6353 61.1138 59.5317 60.4469 59.3375C59.9054 59.1802 59.4165 58.9452 59.4483 58.2773C59.4802 57.6316 59.9523 57.3744 60.5087 57.2615C61.2525 57.1098 61.8707 57.3356 62.4009 57.8925C62.8412 58.3532 63.4257 58.3587 63.8304 57.9794C64.2295 57.6038 64.2557 57.0062 63.821 56.5566C63.5026 56.2291 63.1466 55.8646 62.7344 55.7129C62.0487 55.4613 61.7565 55.1098 61.8183 54.366C61.8651 53.7943 61.423 53.4761 60.8759 53.4668C60.3232 53.4576 59.9654 53.7795 59.8867 54.3438C59.868 54.4807 59.8642 54.6232 59.8811 54.7582C59.9373 55.1782 59.7968 55.4002 59.3602 55.576C58.3242 55.9923 57.6366 56.7527 57.4905 57.8869C57.2713 59.5854 58.3448 60.9249 60.1415 61.2857C60.7054 61.3986 61.2731 61.5614 61.7939 61.7964C62.2623 62.0091 62.6258 62.4624 62.4253 62.9712C62.2679 63.3727 61.9082 63.8094 61.5241 63.987C60.5743 64.4236 59.6937 64.0443 59.1204 63.1211C58.8357 62.6622 58.431 62.418 57.8821 62.6604C57.3387 62.9009 57.0914 63.3339 57.3331 63.8945C57.513 64.3089 57.7247 64.7659 58.0582 65.0471C58.5771 65.4838 59.2122 65.7835 59.8848 66.1961L59.8904 66.1943Z" fill="#1573FB"/>
<path d="M59.8923 66.1983C59.2197 65.7857 58.5846 65.4842 58.0656 65.0494C57.7321 64.77 57.5204 64.3111 57.3406 63.8967C57.0989 63.3361 57.3443 62.9032 57.8895 62.6626C58.4384 62.4203 58.8431 62.6645 59.1279 63.1233C59.7012 64.0447 60.5817 64.424 61.5316 63.9892C61.9157 63.8134 62.2754 63.375 62.4327 62.9735C62.6313 62.4647 62.2697 62.0114 61.8014 61.7986C61.2805 61.5636 60.7129 61.4008 60.149 61.2879C58.3523 60.9253 57.2788 59.5876 57.498 57.8891C57.6441 56.755 58.3317 55.9945 59.3677 55.5782C59.8042 55.4025 59.9429 55.1805 59.8885 54.7605C59.8698 54.6254 59.8754 54.4829 59.8942 54.346C59.9728 53.7817 60.3288 53.4579 60.8834 53.469C61.4304 53.4783 61.8726 53.7965 61.8257 54.3682C61.7639 55.112 62.0543 55.4635 62.7419 55.7152C63.154 55.8669 63.51 56.2314 63.8285 56.5588C64.2632 57.0084 64.2388 57.6061 63.8379 57.9816C63.4332 58.3609 62.8487 58.3554 62.4084 57.8947C61.8782 57.3378 61.2599 57.1139 60.5162 57.2638C59.9597 57.3766 59.4876 57.6338 59.4558 58.2795C59.4239 58.9493 59.9129 59.1824 60.4543 59.3397C61.1213 59.534 61.8276 59.6376 62.4552 59.9169C63.7236 60.4813 64.5123 61.4637 64.4767 62.8828C64.4393 64.3111 63.6655 65.3121 62.311 65.8135C61.9175 65.9597 61.8107 66.1613 61.8501 66.5258C61.8669 66.6849 61.8576 66.8496 61.8426 67.0087C61.7901 67.5582 61.4304 67.8561 60.9246 67.882C60.3756 67.9116 59.9878 67.6008 59.9054 67.0402C59.8586 66.7256 59.8979 66.3982 59.8979 66.1965L59.8923 66.1983Z" fill="#FAFAFA"/>
</g>
<defs>
<clipPath id="clip0_1005_403">
<rect width="65.7391" height="65.7391" fill="white" transform="translate(27.1305 27.1328)"/>
</clipPath>
</defs>
</svg>
