<svg width="120" height="120" viewBox="0 0 120 120" fill="none" xmlns="http://www.w3.org/2000/svg">
<circle cx="60" cy="60" r="60" fill="#1573FB"/>
<g clip-path="url(#clip0_1005_423)">
<path d="M60.9646 27.1328C61.9502 27.4805 62.9825 27.735 63.9152 28.193C67.0693 29.7366 69.17 32.3404 70.9505 35.2855C72.0464 37.1005 72.3644 38.9728 71.7412 40.9702C71.2558 42.5201 70.6516 44.0341 70.1005 45.565C69.9839 45.565 69.8674 45.565 69.7508 45.565C69.2569 44.0532 68.7524 42.5456 68.2712 41.0295C67.9914 40.1517 67.7667 39.2569 67.4827 38.3812C67.2728 37.7366 66.8913 37.5882 66.2024 37.8554C64.4642 38.5297 62.7261 39.2633 60.9222 39.6852C58.6223 40.2238 56.4708 39.6874 54.669 38.0505C54.0204 37.461 53.6389 37.4377 53.2191 38.1904C52.543 39.4054 51.9855 40.6882 51.4386 41.9689C51.0062 42.9781 50.6649 44.0277 50.2219 45.2257C49.3401 43.6503 48.7932 42.1385 48.4413 40.5503C48.0619 38.835 48.2633 37.2256 49.1387 35.663C50.879 32.563 53.0305 29.8681 56.2758 28.2502C57.253 27.7626 58.3404 27.4996 59.379 27.1328C59.909 27.1328 60.4368 27.1328 60.9667 27.1328H60.9646Z" fill="#FAFAFA"/>
<path d="M53.9821 57.7136C50.9128 57.2492 48.2971 57.7454 46.0777 59.6113C44.1001 61.2757 42.629 63.2858 41.9952 65.8684C40.6576 71.3241 39.2565 76.7627 37.8829 82.2099C37.8384 82.3838 37.8172 82.5661 37.777 82.793H39.6296C40.0684 81.0904 40.5199 79.3644 40.9586 77.6363C41.9719 73.6501 42.8833 69.6341 44.0216 65.6839C44.8208 62.9084 46.7052 60.9641 49.5625 59.7979C49.5625 61.0955 49.5965 62.2702 49.5498 63.4427C49.5202 64.1976 49.7872 64.681 50.4592 65.0351C51.2732 65.4634 52.3627 65.7963 52.7485 66.496C53.1555 67.2297 52.988 68.3619 52.8693 69.2928C52.6192 71.2498 53.2424 72.7129 54.777 73.9808C56.1972 75.1534 57.4394 76.5507 58.7112 77.895C58.9804 78.1812 59.1606 78.6562 59.1797 79.0548C59.239 80.2867 59.2009 81.525 59.2009 82.793H61.0768C61.0768 81.5144 61.0387 80.2761 61.098 79.0421C61.1171 78.6456 61.3015 78.1664 61.5749 77.8865C63.2495 76.1584 64.9559 74.46 66.6877 72.7892C67.2091 72.2867 67.4211 71.7481 67.3999 71.0357C67.3618 69.7147 67.4063 68.3916 67.3808 67.0685C67.3724 66.6148 67.5165 66.3455 67.9277 66.1335C68.606 65.7815 69.2398 65.3404 69.916 64.9863C70.5032 64.6789 70.7406 64.2336 70.7257 63.5784C70.7003 62.3995 70.7194 61.2206 70.7194 60.0438C70.802 59.9823 70.8868 59.9208 70.9695 59.8594C71.8449 60.5061 72.8031 61.068 73.5767 61.8186C74.8867 63.0844 75.7495 64.6344 76.1925 66.4388C77.4897 71.7142 78.8421 76.9748 80.1775 82.2396C80.222 82.4177 80.2941 82.5916 80.3641 82.8015H82.2612C81.9178 81.419 81.5914 80.0747 81.2501 78.7325C80.0949 74.1844 78.9375 69.6341 77.778 65.0881C76.6334 60.6036 71.8301 57.2471 67.0777 57.6097C66.8742 57.6245 66.6707 57.6372 66.4376 57.6521C66.3083 56.963 66.3719 56.418 66.8573 55.8774C68.3919 54.1662 69.4073 52.1349 70.3272 50.0485C70.4332 49.8089 70.7109 49.4909 70.9271 49.476C73.9307 49.2661 76.8305 49.6329 79.495 51.1681C83.1324 53.2672 84.9236 56.5961 85.6994 60.5739C86.702 65.7094 86.0915 70.7876 84.9766 75.8213C84.5039 77.9544 83.8319 80.0429 83.2532 82.1526C83.1981 82.352 83.1494 82.5555 83.0773 82.8396C83.4143 82.8396 83.6962 82.8396 83.9782 82.8396C87.7067 82.8396 91.4353 82.8354 95.1639 82.8396C96.9953 82.8418 98.07 83.9146 98.0785 85.7381C98.0848 87.1927 98.0912 88.6473 98.0785 90.1018C98.0615 91.7408 96.9847 92.8222 95.3504 92.871C95.166 92.8773 94.9795 92.871 94.795 92.871C71.6054 92.871 48.4158 92.871 25.2262 92.8667C24.7789 92.8667 24.3147 92.8795 23.8865 92.7777C22.7524 92.5063 21.9491 91.4737 21.9321 90.2842C21.9088 88.6981 21.9088 87.11 21.9279 85.524C21.947 83.9507 23.0556 82.8481 24.6475 82.8418C28.4545 82.8269 32.2636 82.8354 36.0706 82.8354C36.3546 82.8354 36.6408 82.8354 36.9312 82.8354C36.3483 80.7235 35.7378 78.6795 35.2206 76.6122C34.184 72.4669 33.6138 68.2559 33.8576 63.9771C34.0781 60.1074 34.9429 56.4244 37.69 53.4835C40.1532 50.8437 43.267 49.5672 46.8599 49.4485C47.6251 49.423 48.3946 49.4654 49.1598 49.4379C49.5859 49.423 49.8318 49.546 49.9907 49.968C50.845 52.207 52.0426 54.2404 53.5624 56.1021C53.8486 56.4541 53.8253 57.0584 53.9864 57.7157L53.9821 57.7136Z" fill="#FAFAFA"/>
<path d="M54.6223 40.2891C58.3148 42.2059 61.9607 42.2037 65.4837 40.3696C66.6813 43.0116 67.8705 45.6196 69.0405 48.234C69.1147 48.4015 69.1211 48.6496 69.0575 48.8234C67.968 51.7644 66.4481 54.4339 63.985 56.4503C61.3015 58.647 58.7621 58.6003 56.1336 56.3295C53.6451 54.1794 52.0807 51.4209 51.0739 48.3294C50.9849 48.058 51.1099 47.6657 51.2456 47.3837C52.2397 45.3461 53.2678 43.3233 54.2725 41.2899C54.4103 41.01 54.4824 40.6962 54.6202 40.2891H54.6223Z" fill="#FAFAFA"/>
<path d="M51.4533 59.4453C52.7548 59.4983 53.9122 59.3287 54.7707 60.6581C56.0128 62.5834 57.4902 64.356 58.8575 66.2028C59.008 66.4064 59.186 66.6587 59.1881 66.892C59.2115 69.7629 59.203 72.6339 59.203 75.6977C58.3 74.7987 57.5941 73.94 56.7356 73.2763C55.131 72.0359 54.4527 70.5114 54.7685 68.4928C54.8851 67.7443 54.7601 66.9619 54.7961 66.1986C54.8237 65.5901 54.5735 65.2042 54.0563 64.9222C53.4077 64.5681 52.7993 64.1376 52.1337 63.8259C51.5657 63.5588 51.413 63.1835 51.4427 62.5855C51.4936 61.5847 51.4554 60.5797 51.4554 59.4474L51.4533 59.4453Z" fill="#FAFAFA"/>
<path d="M68.8731 59.5411C68.8731 60.7072 68.8965 61.8416 68.8541 62.976C68.8456 63.205 68.6442 63.504 68.4428 63.6354C67.7137 64.1104 66.9569 64.5451 66.1917 64.9607C65.7169 65.2172 65.524 65.565 65.5325 66.1078C65.5579 67.6132 65.5494 69.1208 65.5325 70.6283C65.5282 70.8997 65.4965 71.2538 65.329 71.4277C63.9936 72.8123 62.62 74.1629 61.1362 75.6451C61.1108 75.2528 61.0832 75.0111 61.0832 74.7672C61.079 72.3098 61.0578 69.8502 61.1023 67.3927C61.1108 66.9326 61.2846 66.4046 61.5517 66.0314C62.8447 64.2291 64.1971 62.4693 65.524 60.6903C66.4206 59.4923 67.2431 59.1933 68.8731 59.5432V59.5411Z" fill="#FAFAFA"/>
<path d="M64.5086 58.3493C64.4366 58.644 64.4472 58.9981 64.2818 59.2229C62.9401 61.0528 61.5644 62.8593 60.1971 64.6764C58.76 63.3385 55.7776 58.9939 55.8327 58.1797C58.6731 60.1071 61.5177 60.1601 64.356 58.22C64.4069 58.2624 64.4578 58.3069 64.5086 58.3493Z" fill="#FAFAFA"/>
</g>
<defs>
<clipPath id="clip0_1005_423">
<rect width="76.1739" height="65.7391" fill="white" transform="translate(21.9131 27.1328)"/>
</clipPath>
</defs>
</svg>
